<svg width="70" height="70" viewBox="0 0 70 70" fill="none" xmlns="http://www.w3.org/2000/svg">
<path d="M66.5 41.264H62.86V4.97602H66.5C66.885 4.97602 67.2 4.66102 67.2 4.27602C67.2 3.89102 66.885 3.57602 66.5 3.57602H62.86H35.7V1.16802C35.7 0.783018 35.385 0.468018 35 0.468018C34.615 0.468018 34.3 0.783018 34.3 1.16802V3.57602H7.14005H3.50005C3.11505 3.57602 2.80005 3.89102 2.80005 4.27602C2.80005 4.66102 3.11505 4.97602 3.50005 4.97602H7.14005V41.264H3.50005C3.11505 41.264 2.80005 41.579 2.80005 41.964C2.80005 42.349 3.11505 42.664 3.50005 42.664H7.14005H33.586L26.306 56.51C26.124 56.853 26.257 57.273 26.6 57.455C26.705 57.511 26.817 57.532 26.922 57.532C27.174 57.532 27.419 57.399 27.545 57.161L34.874 43.224L42.203 57.161C42.329 57.399 42.574 57.532 42.826 57.532C42.938 57.532 43.05 57.504 43.148 57.455C43.491 57.273 43.624 56.853 43.442 56.51L36.162 42.664H62.86H66.5C66.885 42.664 67.2 42.349 67.2 41.964C67.2 41.579 66.885 41.264 66.5 41.264ZM8.54005 41.264V4.97602H61.46V41.264H8.54005Z" fill="black"/>
<path d="M12.467 22.7491C12.558 22.7911 12.656 22.8051 12.747 22.8051C13.02 22.8051 13.272 22.6441 13.391 22.3851L18.445 10.7721L23.709 18.0241L29.309 13.4321L35.175 19.9911L40.831 11.0871L45.78 14.4471L51.814 16.5121L57.645 12.6831C57.967 12.4731 58.058 12.0391 57.848 11.7171C57.638 11.3951 57.204 11.3041 56.882 11.5141L51.625 14.9651L46.494 13.2291L40.432 9.11309L34.993 17.6741L29.47 11.4931L23.982 15.9941L18.151 7.96509L12.117 21.8251C11.949 22.1821 12.11 22.5951 12.467 22.7491Z" fill="black"/>
<path d="M56.931 32.0731L51.947 34.6911L46.277 26.0671L40.376 31.9541L35.399 31.1631L29.33 25.3181L23.604 31.8981L18.074 30.1761L12.229 36.3991C11.963 36.6791 11.977 37.1271 12.257 37.3861C12.39 37.5121 12.565 37.5751 12.733 37.5751C12.922 37.5751 13.104 37.4981 13.244 37.3511L18.487 31.7721L24.052 33.5081L29.414 27.3481L34.734 32.4791L40.845 33.4521L46.032 28.2791L51.457 36.5321L57.561 33.3261C57.904 33.1441 58.037 32.7241 57.855 32.3811C57.694 32.0241 57.274 31.8911 56.931 32.0731Z" fill="black"/>
</svg>
