<svg width="100" height="100" viewBox="0 0 100 100" fill="none" xmlns="http://www.w3.org/2000/svg">
<path d="M29.0361 21.543L30.3799 21.9688C30.1729 22.7188 29.8291 23.2774 29.3487 23.6407C28.8683 24.0039 28.2589 24.1875 27.5206 24.1875C26.6066 24.1875 25.8565 23.875 25.2706 23.2539C24.6847 22.6289 24.3878 21.7773 24.3878 20.6953C24.3878 19.5508 24.6847 18.6641 25.2745 18.0273C25.8644 17.3945 26.6417 17.0781 27.6065 17.0781C28.4464 17.0781 29.1299 17.3281 29.6573 17.8242C29.9698 18.1172 30.2042 18.5391 30.3605 19.0898L28.9855 19.4179C28.9073 19.0625 28.7355 18.7773 28.4776 18.5742C28.2198 18.3672 27.9073 18.2656 27.5362 18.2656C27.0284 18.2656 26.6144 18.4492 26.294 18.8164C25.9776 19.1797 25.8175 19.7734 25.8175 20.5937C25.8175 21.4648 25.9737 22.082 26.2862 22.4492C26.5987 22.8203 27.005 23.0039 27.505 23.0039C27.8761 23.0039 28.1925 22.8867 28.4582 22.6523C28.7238 22.4179 28.9152 22.0468 29.0324 21.5468L29.0361 21.543ZM31.2197 21.8359L32.5713 21.7031C32.6495 22.1563 32.8174 22.4922 33.0674 22.7031C33.3174 22.9141 33.6494 23.0234 34.0713 23.0234C34.5166 23.0234 34.8565 22.9297 35.083 22.7383C35.3096 22.5508 35.4229 22.3281 35.4229 22.0742C35.4229 21.9102 35.376 21.7734 35.2783 21.6602C35.1846 21.5469 35.0166 21.4453 34.7783 21.3633C34.6182 21.3047 34.2471 21.207 33.6689 21.0625C32.9228 20.8789 32.4033 20.6523 32.1025 20.3828C31.6806 20.0039 31.4697 19.543 31.4697 19C31.4697 18.6485 31.5674 18.3242 31.7666 18.0156C31.9658 17.7109 32.251 17.4805 32.626 17.3203C33.001 17.1602 33.4502 17.082 33.9776 17.082C34.8409 17.082 35.4893 17.2695 35.9268 17.6485C36.3604 18.0274 36.5908 18.5313 36.6143 19.1641L35.2276 19.2266C35.169 18.8711 35.0401 18.6172 34.8448 18.4648C34.6495 18.3086 34.3565 18.2344 33.9659 18.2344C33.5635 18.2344 33.2471 18.3164 33.0166 18.4844C32.8682 18.5898 32.794 18.7344 32.794 18.9101C32.794 19.0742 32.8643 19.2109 33.001 19.3281C33.1768 19.4766 33.6026 19.6289 34.2783 19.7891C34.9541 19.9492 35.4541 20.1133 35.7783 20.2851C36.1025 20.457 36.3564 20.6875 36.54 20.9844C36.7236 21.2812 36.8135 21.6445 36.8135 22.0782C36.8135 22.4727 36.7041 22.8399 36.4853 23.1837C36.2666 23.5274 35.958 23.7852 35.5557 23.9493C35.1572 24.1173 34.6572 24.1993 34.0596 24.1993C33.1885 24.1993 32.5244 24.0001 32.0557 23.5977C31.5908 23.1954 31.3096 22.6094 31.2197 21.8399L31.2197 21.8359ZM37.6259 21.8359L38.9775 21.7031C39.0557 22.1563 39.2236 22.4922 39.4736 22.7031C39.7236 22.9141 40.0556 23.0234 40.4775 23.0234C40.9228 23.0234 41.2627 22.9297 41.4892 22.7383C41.7158 22.5508 41.8291 22.3281 41.8291 22.0742C41.8291 21.9102 41.7822 21.7734 41.6845 21.6602C41.5908 21.5469 41.4228 21.4453 41.1845 21.3633C41.0244 21.3047 40.6533 21.207 40.0751 21.0625C39.329 20.8789 38.8095 20.6523 38.5087 20.3828C38.0868 20.0039 37.8759 19.543 37.8759 19C37.8759 18.6485 37.9736 18.3242 38.1728 18.0156C38.372 17.7109 38.6572 17.4805 39.0322 17.3203C39.4072 17.1602 39.8564 17.082 40.3838 17.082C41.2471 17.082 41.8955 17.2695 42.333 17.6485C42.7666 18.0274 42.997 18.5313 43.0205 19.1641L41.6338 19.2266C41.5752 18.8711 41.4463 18.6172 41.251 18.4648C41.0557 18.3086 40.7627 18.2344 40.3721 18.2344C39.9697 18.2344 39.6533 18.3164 39.4228 18.4844C39.2744 18.5898 39.2002 18.7344 39.2002 18.9101C39.2002 19.0742 39.2705 19.2109 39.4072 19.3281C39.583 19.4766 40.0088 19.6289 40.6845 19.7891C41.3603 19.9492 41.8603 20.1133 42.1845 20.2851C42.5087 20.457 42.7626 20.6875 42.9462 20.9844C43.1298 21.2812 43.2197 21.6445 43.2197 22.0782C43.2197 22.4727 43.1103 22.8399 42.8915 23.1837C42.6728 23.5274 42.3642 23.7852 41.9619 23.9493C41.5634 24.1173 41.0634 24.1993 40.4658 24.1993C39.5947 24.1993 38.9306 24.0001 38.4619 23.5977C37.997 23.1954 37.7158 22.6094 37.6259 21.8399L37.6259 21.8359Z" fill="black"/>
<path d="M54.2271 46.9379L55.5865 47.2816C55.3014 48.3949 54.7896 49.2425 54.0513 49.8285C53.313 50.4145 52.4107 50.7035 51.3404 50.7035C50.2349 50.7035 49.3365 50.4809 48.6451 50.0317C47.9537 49.5824 47.4263 48.9301 47.067 48.0786C46.7076 47.2231 46.524 46.3091 46.524 45.3286C46.524 44.2622 46.7272 43.3325 47.1334 42.5356C47.5397 41.7426 48.1217 41.1372 48.8756 40.7231C49.6256 40.309 50.4537 40.1059 51.36 40.1059C52.3873 40.1059 53.2467 40.3676 53.9459 40.8871C54.6451 41.4106 55.1334 42.141 55.4068 43.0902L54.0748 43.4066C53.8365 42.6605 53.4928 42.1175 53.0396 41.7777C52.5904 41.4379 52.0201 41.266 51.3326 41.266C50.5436 41.266 49.8873 41.4535 49.3599 41.8324C48.8287 42.2113 48.4576 42.7191 48.2466 43.3558C48.0318 43.9886 47.9263 44.6449 47.9263 45.3206C47.9263 46.1956 48.0513 46.9534 48.3052 47.6058C48.5591 48.2543 48.9537 48.7425 49.4927 49.0628C50.0279 49.3831 50.6099 49.5433 51.2349 49.5433C51.9927 49.5433 52.6372 49.3245 53.1646 48.887C53.692 48.4495 54.0474 47.7972 54.2349 46.9339L54.2271 46.9379ZM56.7935 47.2387L58.0708 47.1254C58.1294 47.6371 58.27 48.059 58.4927 48.3871C58.7154 48.7152 59.0591 48.9808 59.5239 49.184C59.9887 49.3871 60.5161 49.4887 61.0981 49.4887C61.6176 49.4887 62.0708 49.4105 62.4692 49.2582C62.8637 49.1019 63.1606 48.8949 63.3559 48.6254C63.5473 48.3558 63.6489 48.0629 63.6489 47.7465C63.6489 47.4262 63.5551 47.1449 63.3676 46.9027C63.1801 46.6605 62.8754 46.4613 62.4458 46.2972C62.1684 46.1918 61.5629 46.0238 60.6216 45.7972C59.6802 45.5707 59.02 45.3597 58.645 45.1566C58.1567 44.9027 57.7895 44.5824 57.5512 44.2035C57.3129 43.8246 57.1918 43.3988 57.1918 42.9262C57.1918 42.4106 57.3363 41.9262 57.6293 41.477C57.9222 41.0278 58.3519 40.684 58.9145 40.4497C59.4809 40.2192 60.1059 40.1021 60.7934 40.1021C61.5551 40.1021 62.2231 40.2231 62.8051 40.4692C63.3832 40.7114 63.8324 41.0747 64.1449 41.5473C64.4535 42.0239 64.6253 42.5629 64.6488 43.1645L63.348 43.2622C63.2777 42.6138 63.0394 42.1255 62.637 41.7934C62.2347 41.4613 61.641 41.2973 60.8518 41.2973C60.0315 41.2973 59.4338 41.4457 59.0588 41.7465C58.6838 42.0473 58.4963 42.4106 58.4963 42.8324C58.4963 43.2035 58.6292 43.5043 58.8948 43.7426C59.1565 43.9809 59.8362 44.2231 60.9417 44.4731C62.0433 44.7231 62.8011 44.9418 63.2112 45.1254C63.8088 45.4027 64.2503 45.7504 64.5315 46.1723C64.8166 46.5942 64.9573 47.0825 64.9573 47.6293C64.9573 48.1761 64.801 48.6879 64.4885 49.1723C64.176 49.6528 63.7268 50.0278 63.1408 50.2973C62.5549 50.5629 61.8986 50.6996 61.1681 50.6996C60.2384 50.6996 59.4611 50.5668 58.8361 50.2934C58.2072 50.0239 57.715 49.6176 57.3595 49.0746C57.004 48.5316 56.8165 47.9184 56.797 47.2308L56.7935 47.2387ZM66.3443 47.2387L67.6216 47.1254C67.6802 47.6371 67.8208 48.059 68.0435 48.3871C68.2662 48.7152 68.6099 48.9808 69.0747 49.184C69.5395 49.3871 70.0669 49.4887 70.6489 49.4887C71.1684 49.4887 71.6216 49.4105 72.02 49.2582C72.4145 49.1019 72.7114 48.8949 72.9067 48.6254C73.0981 48.3558 73.1997 48.0629 73.1997 47.7465C73.1997 47.4262 73.1059 47.1449 72.9184 46.9027C72.7309 46.6605 72.4262 46.4613 71.9966 46.2972C71.7192 46.1918 71.1137 46.0238 70.1724 45.7972C69.2309 45.5707 68.5708 45.3597 68.1958 45.1566C67.7075 44.9027 67.3403 44.5824 67.102 44.2035C66.8636 43.8246 66.7426 43.3988 66.7426 42.9262C66.7426 42.4106 66.8871 41.9262 67.1801 41.477C67.473 41.0278 67.9027 40.684 68.4653 40.4497C69.0317 40.2192 69.6567 40.1021 70.3442 40.1021C71.1059 40.1021 71.7739 40.2231 72.3559 40.4692C72.934 40.7114 73.3832 41.0747 73.6957 41.5473C74.0043 42.0239 74.1761 42.5629 74.1996 43.1645L72.8988 43.2622C72.8285 42.6138 72.5902 42.1255 72.1878 41.7934C71.7855 41.4613 71.1918 41.2973 70.4026 41.2973C69.5823 41.2973 68.9846 41.4457 68.6096 41.7465C68.2346 42.0473 68.0471 42.4106 68.0471 42.8324C68.0471 43.2035 68.18 43.5043 68.4456 43.7426C68.7073 43.9809 69.387 44.2231 70.4925 44.4731C71.5941 44.7231 72.3519 44.9418 72.762 45.1254C73.3596 45.4027 73.8011 45.7504 74.0823 46.1723C74.3674 46.5942 74.5081 47.0825 74.5081 47.6293C74.5081 48.1761 74.3518 48.6879 74.0393 49.1723C73.7268 49.6528 73.2776 50.0278 72.6916 50.2973C72.1057 50.5629 71.4494 50.6996 70.7189 50.6996C69.7892 50.6996 69.0119 50.5668 68.3869 50.2934C67.758 50.0239 67.2658 49.6176 66.9103 49.0746C66.5548 48.5316 66.3673 47.9184 66.3478 47.2308L66.3443 47.2387Z" fill="black"/>
<path d="M42.399 60.2581C41.9694 60.2581 41.6178 60.6096 41.6178 61.0393C41.6178 61.469 41.9694 61.8206 42.399 61.8206H78.622C79.0517 61.8206 79.4033 61.469 79.4033 61.0393C79.4033 60.6096 79.0517 60.2581 78.622 60.2581H42.399Z" fill="black"/>
<path d="M42.399 65.7539C41.9694 65.7539 41.6178 66.1055 41.6178 66.5352C41.6178 66.9648 41.9694 67.3164 42.399 67.3164H78.622C79.0517 67.3164 79.4033 66.9648 79.4033 66.5352C79.4033 66.1055 79.0517 65.7539 78.622 65.7539H42.399Z" fill="black"/>
<path d="M42.399 71.25C41.9694 71.25 41.6178 71.6016 41.6178 72.0312C41.6178 72.4609 41.9694 72.8125 42.399 72.8125H78.622C79.0517 72.8125 79.4033 72.4609 79.4033 72.0312C79.4033 71.6016 79.0517 71.25 78.622 71.25H42.399Z" fill="black"/>
<path d="M33.8062 4H77.6542C77.9198 4 78.1581 4.13281 78.2987 4.33984L87.8104 15.5158C87.9432 15.6721 87.9862 15.8244 87.9979 16.0276V78.2226C87.9979 78.6522 87.6463 79.0038 87.2166 79.0038H33.8066C33.377 79.0038 33.0254 78.6522 33.0254 78.2226V27.4296H34.5879V77.4416H86.4359V16.3046L77.2992 5.56656H34.5882V13.965H33.0257V4.78526C33.0257 4.35557 33.3773 4.00401 33.8069 4.00401L33.8062 4Z" fill="black"/>
<path d="M87.0201 16.8011C87.4498 16.8011 87.8014 16.4495 87.8014 16.0198C87.8014 15.5901 87.4498 15.2386 87.0201 15.2386H78.4342V4.97656C78.4342 4.54687 78.0826 4.19531 77.653 4.19531C77.2233 4.19531 76.8717 4.54687 76.8717 4.97656V16.0196C76.8717 16.4493 77.2233 16.8008 77.653 16.8008L87.0201 16.8011Z" fill="black"/>
<path d="M20.4541 13.1799H52.2701C53.5631 13.1799 54.6178 14.2346 54.6178 15.5276V25.7506C54.6178 27.0436 53.5631 28.0983 52.2701 28.0983H20.4541C18.4033 28.0983 16.5361 27.2585 15.1885 25.9069C12.2705 22.9889 12.2705 18.2936 15.1885 15.3719C16.5401 14.0203 18.4033 13.1799 20.4541 13.1799ZM52.2701 14.7424H20.4541C18.833 14.7424 17.3603 15.4065 16.29 16.4729C13.9814 18.7815 13.9814 22.4885 16.29 24.7971C17.3603 25.8674 18.833 26.5276 20.4541 26.5276H52.2701C52.6998 26.5276 53.0553 26.1722 53.0553 25.7425V15.5195C53.0553 15.0898 52.6998 14.7343 52.2701 14.7343V14.7424Z" fill="black"/>
</svg>
