<svg width="70" height="66" viewBox="0 0 70 66" fill="none" xmlns="http://www.w3.org/2000/svg">
<path d="M22.2727 8.42727C22.7057 8.42727 23.1289 8.29888 23.4889 8.05834C23.8489 7.8178 24.1295 7.47591 24.2952 7.07591C24.4609 6.67591 24.5042 6.23575 24.4198 5.81111C24.3353 5.38647 24.1268 4.99641 23.8207 4.69026C23.5145 4.38411 23.1245 4.17562 22.6998 4.09115C22.2752 4.00669 21.835 4.05004 21.435 4.21572C21.035 4.38141 20.6931 4.66199 20.4526 5.02199C20.212 5.38198 20.0836 5.80522 20.0836 6.23818C20.0853 6.81825 20.3165 7.37408 20.7267 7.78425C21.1368 8.19442 21.6927 8.42559 22.2727 8.42727ZM22.2727 5.31545C22.454 5.31545 22.6311 5.3692 22.7818 5.46989C22.9325 5.57058 23.05 5.7137 23.1193 5.88114C23.1887 6.04858 23.2069 6.23283 23.1715 6.41059C23.1361 6.58835 23.0489 6.75163 22.9207 6.87978C22.7925 7.00794 22.6293 7.09521 22.4515 7.13057C22.2738 7.16593 22.0895 7.14778 21.9221 7.07843C21.7546 7.00907 21.6115 6.89162 21.5108 6.74092C21.4101 6.59023 21.3564 6.41306 21.3564 6.23182C21.358 5.9893 21.4551 5.75718 21.6266 5.58569C21.7981 5.4142 22.0302 5.31712 22.2727 5.31545ZM32.4546 34.8745C34.1211 34.8783 35.7351 34.2922 37.0109 33.22L43.6291 39.8509C43.7489 39.9724 43.9121 40.0414 44.0828 40.0426C44.2534 40.0437 44.4176 39.9771 44.5391 39.8573C44.6606 39.7374 44.7296 39.5742 44.7307 39.4036C44.7319 39.2329 44.6653 39.0688 44.5455 38.9473L37.8955 32.3164C38.931 31.0735 39.5115 29.5146 39.5413 27.8972C39.5711 26.2797 39.0482 24.7005 38.0592 23.4204C37.0701 22.1403 35.674 21.2358 34.1014 20.8565C32.5288 20.4771 30.8738 20.6454 29.4099 21.3338C27.9459 22.0221 26.7605 23.1892 26.0495 24.6422C25.3385 26.0953 25.1444 27.7475 25.4993 29.3258C25.8542 30.9041 26.7368 32.3141 28.0014 33.3229C29.266 34.3318 30.8369 34.8791 32.4546 34.8745ZM28.3118 23.6364C29.1294 22.8209 30.1704 22.2661 31.3032 22.042C32.4359 21.8179 33.6097 21.9345 34.6762 22.3771C35.7428 22.8197 36.6542 23.5685 37.2954 24.5288C37.9366 25.4892 38.2789 26.618 38.2789 27.7727C38.2789 28.9275 37.9366 30.0563 37.2954 31.0166C36.6542 31.977 35.7428 32.7257 34.6762 33.1683C33.6097 33.611 32.4359 33.7276 31.3032 33.5034C30.1704 33.2793 29.1294 32.7245 28.3118 31.9091C27.7631 31.369 27.3273 30.7252 27.0298 30.015C26.7323 29.3049 26.5792 28.5427 26.5792 27.7727C26.5792 27.0028 26.7323 26.2406 27.0298 25.5304C27.3273 24.8203 27.7631 24.1764 28.3118 23.6364ZM63 0.930908H7.00001C6.83124 0.930908 6.66938 0.997954 6.55003 1.11729C6.43069 1.23664 6.36365 1.3985 6.36365 1.56727V51.3436C6.36365 51.5124 6.43069 51.6743 6.55003 51.7936C6.66938 51.9129 6.83124 51.98 7.00001 51.98H63C63.1688 51.98 63.3306 51.9129 63.45 51.7936C63.5693 51.6743 63.6364 51.5124 63.6364 51.3436V1.56727C63.6364 1.3985 63.5693 1.23664 63.45 1.11729C63.3306 0.997954 63.1688 0.930908 63 0.930908ZM62.3636 50.7073H7.63637V11.5455H62.3636V50.7073ZM62.3636 10.2727H7.63637V2.20364H62.3636V10.2727ZM16.9591 8.42727C17.3921 8.42727 17.8153 8.29888 18.1753 8.05834C18.5353 7.8178 18.8159 7.47591 18.9816 7.07591C19.1472 6.67591 19.1906 6.23575 19.1061 5.81111C19.0217 5.38647 18.8132 4.99641 18.507 4.69026C18.2009 4.38411 17.8108 4.17562 17.3862 4.09115C16.9615 4.00669 16.5214 4.05004 16.1214 4.21572C15.7214 4.38141 15.3795 4.66199 15.1389 5.02199C14.8984 5.38198 14.77 5.80522 14.77 6.23818C14.7717 6.81825 15.0029 7.37408 15.413 7.78425C15.8232 8.19442 16.379 8.42559 16.9591 8.42727ZM16.9591 5.31545C17.1403 5.31545 17.3175 5.3692 17.4682 5.46989C17.6189 5.57058 17.7364 5.7137 17.8057 5.88114C17.8751 6.04858 17.8932 6.23283 17.8579 6.41059C17.8225 6.58835 17.7352 6.75163 17.6071 6.87978C17.4789 7.00794 17.3156 7.09521 17.1379 7.13057C16.9601 7.16593 16.7759 7.14778 16.6084 7.07843C16.441 7.00907 16.2979 6.89162 16.1972 6.74092C16.0965 6.59023 16.0427 6.41306 16.0427 6.23182C16.0444 5.9893 16.1415 5.75718 16.313 5.58569C16.4845 5.4142 16.7166 5.31712 16.9591 5.31545ZM11.6709 8.42727C12.1039 8.42727 12.5271 8.29888 12.8871 8.05834C13.2471 7.8178 13.5277 7.47591 13.6934 7.07591C13.8591 6.67591 13.9024 6.23575 13.8179 5.81111C13.7335 5.38647 13.525 4.99641 13.2188 4.69026C12.9127 4.38411 12.5226 4.17562 12.098 4.09115C11.6733 4.00669 11.2332 4.05004 10.8332 4.21572C10.4332 4.38141 10.0913 4.66199 9.85076 5.02199C9.61022 5.38198 9.48183 5.80522 9.48183 6.23818C9.48351 6.81825 9.71468 7.37408 10.1249 7.78425C10.535 8.19442 11.0909 8.42559 11.6709 8.42727ZM11.6709 5.31545C11.8522 5.31545 12.0293 5.3692 12.18 5.46989C12.3307 5.57058 12.4482 5.7137 12.5175 5.88114C12.5869 6.04858 12.605 6.23283 12.5697 6.41059C12.5343 6.58835 12.447 6.75163 12.3189 6.87978C12.1907 7.00794 12.0275 7.09521 11.8497 7.13057C11.6719 7.16593 11.4877 7.14778 11.3202 7.07843C11.1528 7.00907 11.0097 6.89162 10.909 6.74092C10.8083 6.59023 10.7546 6.41306 10.7546 6.23182C10.7562 5.9893 10.8533 5.75718 11.0248 5.58569C11.1963 5.4142 11.4284 5.31712 11.6709 5.31545Z" fill="black"/>
</svg>
