<svg width="70" height="70" viewBox="0 0 70 70" fill="none" xmlns="http://www.w3.org/2000/svg">
<path d="M48.9296 25.7032C51.0259 24.6594 52.7081 22.9379 53.7031 20.818C54.6982 18.6981 54.9477 16.3041 54.4113 14.0246C53.8749 11.745 52.584 9.71354 50.748 8.25979C48.912 6.80605 46.6387 6.01531 44.2969 6.01587H25.7031C23.3613 6.01531 21.088 6.80605 19.252 8.25979C17.416 9.71354 16.1251 11.745 15.5887 14.0246C15.0523 16.3041 15.3019 18.6981 16.2969 20.818C17.292 22.9379 18.9741 24.6594 21.0705 25.7032C19.3409 26.5639 17.8858 27.8899 16.8686 29.5323C15.8514 31.1747 15.3125 33.0682 15.3125 35.0001C15.3125 36.9319 15.8514 38.8255 16.8686 40.4678C17.8859 42.1102 19.341 43.4362 21.0706 44.2968C19.4142 45.1224 18.0084 46.3754 16.9986 47.9263C15.9888 49.4772 15.4116 51.2697 15.3266 53.1184C15.2417 54.9672 15.6522 56.805 16.5157 58.442C17.3791 60.0789 18.6641 61.4555 20.2378 62.4293C21.8116 63.4032 23.6169 63.939 25.4671 63.9814C27.3173 64.0237 29.1452 63.571 30.7619 62.6701C32.3785 61.7693 33.7251 60.4529 34.6625 58.8572C35.5999 57.2614 36.094 55.4443 36.0938 53.5936V41.3662C37.0501 42.5994 38.272 43.6012 39.6688 44.2973C41.0655 44.9933 42.6012 45.3656 44.1616 45.3866C45.722 45.4076 47.2671 45.0767 48.682 44.4185C50.097 43.7602 51.3454 42.7916 52.3346 41.5846C53.3237 40.3776 54.0282 38.9632 54.3956 37.4465C54.763 35.9298 54.7839 34.3498 54.4567 32.8239C54.1296 31.298 53.4628 29.8655 52.5059 28.6327C51.549 27.3999 50.3266 26.3986 48.9296 25.7032ZM52.5 16.4065C52.4976 18.5804 51.6332 20.6647 50.0965 22.2023C48.5598 23.74 46.4761 24.6057 44.3022 24.6095L44.2969 24.6093L44.2863 24.6096L36.0938 24.6093V8.20337H44.2969C46.4717 8.20583 48.5568 9.07088 50.0947 10.6087C51.6325 12.1466 52.4976 14.2316 52.5 16.4065ZM37.9305 26.7969C37.2445 27.3306 36.6275 27.9477 36.0938 28.6337V26.7969L37.9305 26.7969ZM17.5 16.4065C17.5025 14.2316 18.3675 12.1466 19.9054 10.6087C21.4432 9.07088 23.5283 8.20583 25.7031 8.20337H33.9063V24.6093H25.7031L25.6979 24.6095C23.524 24.6056 21.4403 23.74 19.9036 22.2023C18.3669 20.6647 17.5025 18.5804 17.5 16.4065ZM25.7031 61.7966C24.6253 61.7974 23.5579 61.5859 22.5619 61.1741C21.5659 60.7622 20.6608 60.1581 19.8984 59.3963C19.136 58.6345 18.5312 57.7299 18.1185 56.7343C17.7059 55.7386 17.4935 54.6714 17.4935 53.5936C17.4935 52.5158 17.7059 51.4486 18.1185 50.4529C18.5312 49.4572 19.136 48.5526 19.8984 47.7908C20.6608 47.029 21.5659 46.4249 22.5619 46.0131C23.5579 45.6012 24.6253 45.3897 25.7031 45.3906L33.9063 45.3904V53.5936C33.9038 55.7684 33.0387 57.8535 31.5009 59.3913C29.963 60.9291 27.878 61.7941 25.7031 61.7966ZM33.9063 43.2028L25.7031 43.2031C23.5282 43.2027 21.4425 42.3387 19.9045 40.8009C18.3665 39.2631 17.5021 37.1775 17.5014 35.0026C17.5008 32.8277 18.3638 30.7416 19.9008 29.2028C21.4379 27.6641 23.523 26.7987 25.6979 26.797L25.7031 26.7971L33.9063 26.7969V43.2028ZM44.2969 43.2031C42.1227 43.2024 40.0377 42.3386 38.5 40.8014C36.9624 39.2643 36.0979 37.1796 36.0965 35.0054C36.0951 32.8312 36.9569 30.7453 38.4926 29.2062C40.0283 27.6671 42.1121 26.8006 44.2863 26.7971H44.2969L44.3021 26.797C46.4763 26.7997 48.5605 27.6656 50.0967 29.2042C51.6329 30.7428 52.4955 32.8284 52.4948 35.0026C52.4941 37.1769 51.6302 39.2619 50.0931 40.7996C48.5559 42.3372 46.4711 43.2017 44.2969 43.2031Z" fill="black"/>
</svg>
