<svg xmlns="http://www.w3.org/2000/svg" data-name="레이어 1" viewBox="0 0 100 125" x="0px" y="0px"><path d="m62.58,42.45c2.4-1.64,3.98-4.39,3.98-7.5,0-4.98-4.06-9.04-9.04-9.04h-15.07c-4.98,0-9.03,4.06-9.03,9.04,0,3.13,1.59,5.89,4.01,7.52-2.42,1.62-4.01,4.38-4.01,7.51s1.61,5.91,4.04,7.53c-2.43,1.63-4.04,4.4-4.04,7.54,0,4.98,4.05,9.04,9.03,9.04s9.04-4.06,9.04-9.04v-8.39c1.61,1.45,3.74,2.33,6.06,2.33,4.98,0,9.03-4.05,9.03-9.04,0-3.12-1.59-5.88-4-7.5Zm-14.09,22.6c0,3.33-2.71,6.04-6.04,6.04s-6.03-2.71-6.03-6.04,2.7-6.04,6.03-6.04h6.04v6.04Zm0-9.04h-6.04c-3.33,0-6.03-2.7-6.03-6.03,0-3.12,2.37-5.7,5.41-6.01h.03c.2-.02.39-.03.59-.03h6.04v12.07Zm0-15.02h-6.04c-.2,0-.39-.01-.59-.03h-.03c-3.04-.31-5.41-2.89-5.41-6.01,0-3.33,2.7-6.04,6.03-6.04h6.04v12.08Zm3-12.08h6.03c3.33,0,6.04,2.71,6.04,6.04,0,3.09-2.34,5.65-5.34,6-.23.03-.46.04-.7.04h-6.03v-12.08Zm6.06,27.08c-3.33,0-6.04-2.71-6.04-6.04,0-3.03,2.24-5.54,5.15-5.96.29-.05.59-.07.89-.07.23,0,.46.01.68.04,3.01.33,5.35,2.89,5.35,5.99,0,3.33-2.7,6.04-6.03,6.04Z"/><text x="0" y="115" fill="#000000" font-size="5px" font-weight="bold" font-family="'Helvetica Neue', Helvetica, Arial-Unicode, Arial, Sans-serif">Created by min park</text><text x="0" y="120" fill="#000000" font-size="5px" font-weight="bold" font-family="'Helvetica Neue', Helvetica, Arial-Unicode, Arial, Sans-serif">from the Noun Project</text></svg>