<svg xmlns="http://www.w3.org/2000/svg" xmlns:xlink="http://www.w3.org/1999/xlink" version="1.1" x="0px" y="0px" viewBox="0 0 100 125" style="enable-background:new 0 0 100 100;" xml:space="preserve"><g><path d="M90.83,17.95H9.17c-3.13,0-5.67,2.54-5.67,5.67v52.76c0,3.13,2.54,5.67,5.67,5.67h81.66c3.13,0,5.67-2.54,5.67-5.67V23.62   C96.5,20.49,93.96,17.95,90.83,17.95z M6.5,23.62c0-1.47,1.2-2.67,2.67-2.67h81.66c1.47,0,2.67,1.2,2.67,2.67v6.1h-87V23.62z    M93.5,76.38c0,1.47-1.2,2.67-2.67,2.67H9.17c-1.47,0-2.67-1.2-2.67-2.67V32.72h87V76.38z"/><path d="M12.09,23.96c-0.81,0-1.48,0.67-1.48,1.48c0,0.81,0.67,1.48,1.48,1.48c0.81,0,1.48-0.67,1.48-1.48   C13.57,24.62,12.91,23.96,12.09,23.96z"/><circle cx="17.41" cy="25.44" r="1.48"/><circle cx="22.72" cy="25.44" r="1.48"/><path d="M16.9,64.9h17.89c3.19,0,5.78-2.59,5.78-5.78v-1.48h7.57v14h11.29v0.16c0,2.33,1.89,4.22,4.22,4.22h21.01   c2.33,0,4.22-1.89,4.22-4.22v-3.32c0-2.33-1.89-4.22-4.22-4.22H63.65c-2.33,0-4.22,1.89-4.22,4.22v0.16h-8.29v-11h8.29v0.16   c0,2.33,1.89,4.22,4.22,4.22h21.01c2.33,0,4.22-1.89,4.22-4.22v-3.32c0-2.33-1.89-4.22-4.22-4.22H63.65   c-2.33,0-4.22,1.89-4.22,4.22v0.16h-8.29v-11h8.29v0.16c0,2.33,1.89,4.22,4.22,4.22h21.01c2.33,0,4.22-1.89,4.22-4.22v-3.32   c0-2.33-1.89-4.22-4.22-4.22H63.65c-2.33,0-4.22,1.89-4.22,4.22v0.16H48.14v14h-7.57v-1.48c0-3.19-2.59-5.78-5.78-5.78H16.9   c-3.19,0-5.78,2.59-5.78,5.78v5.96C11.12,62.31,13.72,64.9,16.9,64.9z M62.43,68.49c0-0.67,0.55-1.22,1.22-1.22h21.01   c0.67,0,1.22,0.55,1.22,1.22v3.32c0,0.67-0.55,1.22-1.22,1.22H63.65c-0.67,0-1.22-0.55-1.22-1.22V68.49z M62.43,54.49   c0-0.67,0.55-1.22,1.22-1.22h21.01c0.67,0,1.22,0.55,1.22,1.22v3.32c0,0.67-0.55,1.22-1.22,1.22H63.65c-0.67,0-1.22-0.55-1.22-1.22   V54.49z M62.43,40.49c0-0.67,0.55-1.22,1.22-1.22h21.01c0.67,0,1.22,0.55,1.22,1.22v3.32c0,0.67-0.55,1.22-1.22,1.22H63.65   c-0.67,0-1.22-0.55-1.22-1.22V40.49z M14.12,53.17c0-1.53,1.25-2.78,2.78-2.78h17.89c1.53,0,2.78,1.25,2.78,2.78v5.96   c0,1.53-1.25,2.78-2.78,2.78H16.9c-1.53,0-2.78-1.25-2.78-2.78V53.17z"/></g><text x="0" y="115" fill="#000000" font-size="5px" font-weight="bold" font-family="'Helvetica Neue', Helvetica, Arial-Unicode, Arial, Sans-serif">Created by Justin Blake</text><text x="0" y="120" fill="#000000" font-size="5px" font-weight="bold" font-family="'Helvetica Neue', Helvetica, Arial-Unicode, Arial, Sans-serif">from the Noun Project</text></svg>