<svg xmlns="http://www.w3.org/2000/svg" xmlns:xlink="http://www.w3.org/1999/xlink" version="1.1" x="0px" y="0px" viewBox="0 0 100 125" style="enable-background:new 0 0 100 100;" xml:space="preserve"><g><path d="M63.39,88.3h18.25c0.55,0,1-0.45,1-1s-0.45-1-1-1H63.39c-0.55,0-1,0.45-1,1S62.84,88.3,63.39,88.3z"/><path d="M63.39,81.65h18.25c0.55,0,1-0.45,1-1s-0.45-1-1-1H63.39c-0.55,0-1,0.45-1,1S62.84,81.65,63.39,81.65z"/><path d="M57.22,37.81v24.38h30.6V37.81h-14.3v-4.7c0-0.55-0.45-1-1-1H51.35v-3.7H65.3V4.03H34.7v24.38h14.65v3.7H27.48   c-0.55,0-1,0.45-1,1v4.7h-14.3v24.38h14.3v9.4h-14.3v24.38h30.6V84.78h14.44v11.19h30.6V71.59h-30.6v11.19H42.78V71.59h-14.3v-9.4   h14.3V37.81h-14.3v-3.7h43.04v3.7H57.22z M36.7,6.03h26.6v20.38H36.7V6.03z M85.82,93.97h-26.6V73.59h26.6V93.97z M14.18,73.59   h26.6v20.38h-26.6V73.59z M40.78,60.19h-13.3h-13.3V39.81h26.6V60.19z M85.82,60.19h-26.6V39.81h26.6V60.19z"/><path d="M81.65,52.52H63.39c-0.55,0-1,0.45-1,1s0.45,1,1,1h18.25c0.55,0,1-0.45,1-1S82.2,52.52,81.65,52.52z"/><path d="M62.39,46.87c0,0.55,0.45,1,1,1h18.25c0.55,0,1-0.45,1-1s-0.45-1-1-1H63.39C62.84,45.87,62.39,46.32,62.39,46.87z"/><path d="M36.61,86.3H18.35c-0.55,0-1,0.45-1,1s0.45,1,1,1h18.25c0.55,0,1-0.45,1-1S37.16,86.3,36.61,86.3z"/><path d="M36.61,79.65H18.35c-0.55,0-1,0.45-1,1s0.45,1,1,1h18.25c0.55,0,1-0.45,1-1S37.16,79.65,36.61,79.65z"/><path d="M18.35,54.52h18.25c0.55,0,1-0.45,1-1s-0.45-1-1-1H18.35c-0.55,0-1,0.45-1,1S17.8,54.52,18.35,54.52z"/><path d="M18.35,47.87h18.25c0.55,0,1-0.45,1-1s-0.45-1-1-1H18.35c-0.55,0-1,0.45-1,1S17.8,47.87,18.35,47.87z"/><path d="M59.13,18.74H40.87c-0.55,0-1,0.45-1,1s0.45,1,1,1h18.25c0.55,0,1-0.45,1-1S59.68,18.74,59.13,18.74z"/><path d="M59.13,12.09H40.87c-0.55,0-1,0.45-1,1s0.45,1,1,1h18.25c0.55,0,1-0.45,1-1S59.68,12.09,59.13,12.09z"/></g><text x="0" y="115" fill="#000000" font-size="5px" font-weight="bold" font-family="'Helvetica Neue', Helvetica, Arial-Unicode, Arial, Sans-serif">Created by Justin Blake</text><text x="0" y="120" fill="#000000" font-size="5px" font-weight="bold" font-family="'Helvetica Neue', Helvetica, Arial-Unicode, Arial, Sans-serif">from the Noun Project</text></svg>