<svg width="70" height="70" viewBox="0 0 70 70" fill="none" xmlns="http://www.w3.org/2000/svg">
<path d="M67.2 42.2811V2.03809H2.80005V42.2811H30.45V50.5901H25.046C24.661 50.5901 24.346 50.9051 24.346 51.2901C24.346 51.6751 24.661 51.9901 25.046 51.9901H44.9611C45.3461 51.9901 45.6611 51.6751 45.6611 51.2901C45.6611 50.9051 45.3461 50.5901 44.9611 50.5901H39.55V42.2811H67.2ZM38.15 42.2811V50.5901H31.85V42.2811V42.2531H38.15V42.2811ZM4.20005 3.43809H65.8V40.8811H4.20005V3.43809Z" fill="black"/>
<path d="M38.969 26.097L45.269 25.159L33.082 20.217L38.024 32.404L38.969 26.097ZM37.737 24.865L37.401 27.126L35.63 22.758L39.998 24.529L37.737 24.865Z" fill="black"/>
<path d="M30.8561 19.7691L27.6361 18.4321C27.2791 18.2851 26.8661 18.4531 26.7191 18.8101C26.5721 19.1671 26.7401 19.5801 27.0971 19.7271L30.3171 21.0641C30.4081 21.0991 30.4991 21.1201 30.5831 21.1201C30.8561 21.1201 31.1151 20.9591 31.2271 20.6861C31.3811 20.3291 31.2131 19.9161 30.8561 19.7691Z" fill="black"/>
<path d="M33.558 18.3621C33.915 18.2151 34.083 17.8021 33.936 17.4451L32.599 14.2251C32.452 13.8681 32.039 13.7001 31.682 13.8471C31.325 13.9941 31.157 14.4071 31.304 14.7641L32.641 17.9841C32.753 18.2501 33.012 18.4181 33.285 18.4181C33.376 18.4181 33.467 18.3971 33.558 18.3621Z" fill="black"/>
<path d="M29.5121 15.653C29.2391 15.38 28.7981 15.38 28.5251 15.653C28.2521 15.926 28.2521 16.367 28.5251 16.64L30.9891 19.104C31.1291 19.244 31.3041 19.307 31.4861 19.307C31.6681 19.307 31.8431 19.237 31.9831 19.104C32.2561 18.831 32.2561 18.39 31.9831 18.117L29.5121 15.653Z" fill="black"/>
<path d="M46.4381 32.663H51.5481C51.8771 34.469 53.4661 35.848 55.3701 35.848C57.5121 35.848 59.2551 34.105 59.2551 31.963C59.2551 29.821 57.5121 28.078 55.3701 28.078C53.4661 28.078 51.8841 29.457 51.5481 31.263H47.5791C49.3081 28.883 50.3791 25.992 50.5191 22.863H54.3481C54.6771 24.669 56.2661 26.048 58.1701 26.048C60.3121 26.048 62.0551 24.305 62.0551 22.163C62.0551 20.021 60.3121 18.278 58.1701 18.278C56.2661 18.278 54.6841 19.657 54.3481 21.463H50.5191C50.3791 18.334 49.3081 15.443 47.5791 13.063H51.5481C51.8771 14.869 53.4661 16.248 55.3701 16.248C57.5121 16.248 59.2551 14.505 59.2551 12.363C59.2551 10.221 57.5121 8.47805 55.3701 8.47805C53.4661 8.47805 51.8841 9.85705 51.5481 11.663H46.4381C43.5961 8.56905 39.5221 6.62305 35.0001 6.62305C30.4781 6.62305 26.4041 8.56905 23.5621 11.663H18.4521C18.1231 9.85705 16.5341 8.47805 14.6301 8.47805C12.4881 8.47805 10.7451 10.221 10.7451 12.363C10.7451 14.505 12.4881 16.248 14.6301 16.248C16.5341 16.248 18.1161 14.869 18.4521 13.063H22.4211C20.6921 15.443 19.6211 18.334 19.4811 21.463H15.6521C15.3231 19.657 13.7341 18.278 11.8301 18.278C9.68807 18.278 7.94507 20.021 7.94507 22.163C7.94507 24.305 9.68807 26.048 11.8301 26.048C13.7341 26.048 15.3161 24.669 15.6521 22.863H19.4811C19.6211 25.992 20.6921 28.883 22.4211 31.263H18.4521C18.1231 29.457 16.5341 28.078 14.6301 28.078C12.4881 28.078 10.7451 29.821 10.7451 31.963C10.7451 34.105 12.4881 35.848 14.6301 35.848C16.5341 35.848 18.1161 34.469 18.4521 32.663H23.5621C26.4041 35.757 30.4781 37.703 35.0001 37.703C39.5221 37.703 43.5961 35.757 46.4381 32.663ZM55.3701 29.478C56.7421 29.478 57.8551 30.591 57.8551 31.963C57.8551 33.335 56.7421 34.448 55.3701 34.448C53.9981 34.448 52.8851 33.335 52.8851 31.963C52.8851 30.591 53.9981 29.478 55.3701 29.478ZM58.1701 19.678C59.5421 19.678 60.6551 20.791 60.6551 22.163C60.6551 23.535 59.5421 24.648 58.1701 24.648C56.7981 24.648 55.6851 23.535 55.6851 22.163C55.6851 20.791 56.7981 19.678 58.1701 19.678ZM55.3701 9.87805C56.7421 9.87805 57.8551 10.991 57.8551 12.363C57.8551 13.735 56.7421 14.848 55.3701 14.848C53.9981 14.848 52.8851 13.735 52.8851 12.363C52.8851 10.991 53.9981 9.87805 55.3701 9.87805ZM14.6301 14.848C13.2581 14.848 12.1451 13.735 12.1451 12.363C12.1451 10.991 13.2581 9.87805 14.6301 9.87805C16.0021 9.87805 17.1151 10.991 17.1151 12.363C17.1151 13.735 16.0021 14.848 14.6301 14.848ZM11.8301 24.648C10.4581 24.648 9.34507 23.535 9.34507 22.163C9.34507 20.791 10.4581 19.678 11.8301 19.678C13.2021 19.678 14.3151 20.791 14.3151 22.163C14.3151 23.535 13.2021 24.648 11.8301 24.648ZM14.6301 34.448C13.2581 34.448 12.1451 33.335 12.1451 31.963C12.1451 30.591 13.2581 29.478 14.6301 29.478C16.0021 29.478 17.1151 30.591 17.1151 31.963C17.1151 33.335 16.0021 34.448 14.6301 34.448ZM20.8601 22.163C20.8601 14.365 27.2021 8.02305 35.0001 8.02305C42.7981 8.02305 49.1401 14.365 49.1401 22.163C49.1401 29.961 42.7981 36.303 35.0001 36.303C27.2021 36.303 20.8601 29.954 20.8601 22.163Z" fill="black"/>
</svg>
