<svg width="100" height="100" viewBox="0 0 100 100" fill="none" xmlns="http://www.w3.org/2000/svg">
<path d="M22.8801 23.562V17.7104H24.0637V20.0151H26.3801V17.7104H27.5598V23.562H26.3801V21.0034H24.0637V23.562H22.8801ZM30.0989 23.562V18.6987H28.3645V17.7065H33.0168V18.6987H31.2863V23.562H30.0989ZM33.7591 23.562V17.7104H35.5286L36.5911 21.7026L37.6419 17.7104H39.4153V23.562H38.3176V18.9565L37.1535 23.562H36.0168L34.8566 18.9565V23.562H33.7591ZM40.6185 23.562V17.7573H41.7982V22.5737H44.7357V23.562H40.6146L40.6185 23.562Z" fill="black"/>
<path d="M43.8801 49.9729V40.8362H45.091V44.5901H49.8371V40.8362H51.048V49.9729H49.8371V45.6682H45.091V49.9729H43.8801ZM55.3841 49.9729V41.9143H52.3763V40.8362H59.6185V41.9143H56.5951V49.9729H55.3841ZM60.8177 49.9729V40.8362H62.638L64.7982 47.305C64.9974 47.9065 65.1459 48.3597 65.2357 48.6566C65.3412 48.3246 65.5014 47.8363 65.724 47.1918L67.9115 40.8363H69.5404V49.973H68.3763V42.3246L65.7201 49.973H64.6303L61.9897 42.1957V49.973L60.8177 49.9729ZM71.4347 49.9729V40.8362H72.6456V48.8948H77.1456V49.9729H71.4347Z" fill="black"/>
<path d="M42.399 60.2581C41.9694 60.2581 41.6178 60.6096 41.6178 61.0393C41.6178 61.469 41.9694 61.8206 42.399 61.8206H78.622C79.0517 61.8206 79.4033 61.469 79.4033 61.0393C79.4033 60.6096 79.0517 60.2581 78.622 60.2581H42.399Z" fill="black"/>
<path d="M42.399 65.7539C41.9694 65.7539 41.6178 66.1055 41.6178 66.5352C41.6178 66.9648 41.9694 67.3164 42.399 67.3164H78.622C79.0517 67.3164 79.4033 66.9648 79.4033 66.5352C79.4033 66.1055 79.0517 65.7539 78.622 65.7539H42.399Z" fill="black"/>
<path d="M42.399 71.25C41.9694 71.25 41.6178 71.6016 41.6178 72.0312C41.6178 72.4609 41.9694 72.8125 42.399 72.8125H78.622C79.0517 72.8125 79.4033 72.4609 79.4033 72.0312C79.4033 71.6016 79.0517 71.25 78.622 71.25H42.399Z" fill="black"/>
<path d="M33.8062 4H77.6542C77.9198 4 78.1581 4.13281 78.2987 4.33984L87.8104 15.5158C87.9432 15.6721 87.9862 15.8244 87.9979 16.0276V78.2226C87.9979 78.6522 87.6463 79.0038 87.2166 79.0038H33.8066C33.377 79.0038 33.0254 78.6522 33.0254 78.2226V27.4296H34.5879V77.4416H86.4359V16.3046L77.2992 5.56656H34.5882V13.965H33.0257V4.78526C33.0257 4.35557 33.3773 4.00401 33.8069 4.00401L33.8062 4Z" fill="black"/>
<path d="M87.0201 16.8011C87.4498 16.8011 87.8014 16.4495 87.8014 16.0198C87.8014 15.5901 87.4498 15.2386 87.0201 15.2386H78.4342V4.97656C78.4342 4.54687 78.0826 4.19531 77.653 4.19531C77.2233 4.19531 76.8717 4.54687 76.8717 4.97656V16.0196C76.8717 16.4493 77.2233 16.8008 77.653 16.8008L87.0201 16.8011Z" fill="black"/>
<path d="M20.4541 13.1799H52.2701C53.5631 13.1799 54.6178 14.2346 54.6178 15.5276V25.7506C54.6178 27.0436 53.5631 28.0983 52.2701 28.0983H20.4541C18.4033 28.0983 16.5361 27.2585 15.1885 25.9069C12.2705 22.9889 12.2705 18.2936 15.1885 15.3719C16.5401 14.0203 18.4033 13.1799 20.4541 13.1799ZM52.2701 14.7424H20.4541C18.833 14.7424 17.3603 15.4065 16.29 16.4729C13.9814 18.7815 13.9814 22.4885 16.29 24.7971C17.3603 25.8674 18.833 26.5276 20.4541 26.5276H52.2701C52.6998 26.5276 53.0553 26.1722 53.0553 25.7425V15.5195C53.0553 15.0898 52.6998 14.7343 52.2701 14.7343V14.7424Z" fill="black"/>
</svg>
