<svg width="70" height="70" viewBox="0 0 70 70" fill="none" xmlns="http://www.w3.org/2000/svg">
<path d="M25.5429 28L31.3249 22.176H34.0059V2.82104H7.05591V22.176H25.5499V28H25.5429ZM8.44891 4.22104H32.5989V20.776H30.7369L26.9359 24.605V20.776H8.44891V4.22104Z" fill="black"/>
<path d="M29.5469 12.222C29.5469 11.837 29.2319 11.522 28.8469 11.522H11.8089C11.4239 11.522 11.1089 11.837 11.1089 12.222C11.1089 12.607 11.4239 12.922 11.8089 12.922H28.8469C29.2319 12.922 29.5469 12.614 29.5469 12.222Z" fill="black"/>
<path d="M22.4279 16.156H11.8089C11.4239 16.156 11.1089 16.471 11.1089 16.856C11.1089 17.241 11.4239 17.556 11.8089 17.556H22.4349C22.8199 17.556 23.1349 17.241 23.1349 16.856C23.1349 16.471 22.8199 16.156 22.4279 16.156Z" fill="black"/>
<path d="M11.8089 8.28794H28.8469C29.2319 8.28794 29.5469 7.97294 29.5469 7.58794C29.5469 7.20294 29.2319 6.88794 28.8469 6.88794H11.8089C11.4239 6.88794 11.1089 7.20294 11.1089 7.58794C11.1089 7.97294 11.4169 8.28794 11.8089 8.28794Z" fill="black"/>
<path d="M36.001 2.82104V22.176H38.682L44.457 28V22.176H62.951V2.82104H36.001ZM61.551 20.776H43.057V24.605L39.256 20.776H37.394V4.22104H61.544V20.776H61.551Z" fill="black"/>
<path d="M41.1529 12.922H58.1909C58.5759 12.922 58.8909 12.607 58.8909 12.222C58.8909 11.837 58.5759 11.522 58.1909 11.522H41.1529C40.7679 11.522 40.4529 11.837 40.4529 12.222C40.4529 12.607 40.7679 12.922 41.1529 12.922Z" fill="black"/>
<path d="M58.1908 16.156H47.5718C47.1868 16.156 46.8718 16.471 46.8718 16.856C46.8718 17.241 47.1868 17.556 47.5718 17.556H58.1978C58.5828 17.556 58.8978 17.241 58.8978 16.856C58.8978 16.471 58.5828 16.156 58.1908 16.156Z" fill="black"/>
<path d="M41.1529 8.28794H58.1909C58.5759 8.28794 58.8909 7.97294 58.8909 7.58794C58.8909 7.20294 58.5759 6.88794 58.1909 6.88794H41.1529C40.7679 6.88794 40.4529 7.20294 40.4529 7.58794C40.4529 7.97294 40.7679 8.28794 41.1529 8.28794Z" fill="black"/>
<path d="M53.7108 26.7961C50.4768 26.7961 47.8378 29.4281 47.8378 32.6691C47.8378 35.6721 50.0988 38.1501 53.0108 38.4931V56.2451H43.0708V66.4791C43.0708 66.8641 43.3858 67.1791 43.7708 67.1791C44.1558 67.1791 44.4708 66.8641 44.4708 66.4791V57.6451H54.4108V38.4931C57.3158 38.1431 59.5838 35.6651 59.5838 32.6691C59.5768 29.4281 56.9448 26.7961 53.7108 26.7961ZM53.7108 37.1351C51.2468 37.1351 49.2378 35.1261 49.2378 32.6621C49.2378 30.1981 51.2468 28.1891 53.7108 28.1891C56.1748 28.1891 58.1838 30.1981 58.1838 32.6621C58.1838 35.1261 56.1748 37.1351 53.7108 37.1351Z" fill="black"/>
<path d="M16.989 38.4931C19.894 38.1431 22.162 35.6651 22.162 32.6691C22.162 29.4351 19.53 26.7961 16.289 26.7961C13.048 26.7961 10.416 29.4281 10.416 32.6691C10.416 35.6721 12.677 38.1501 15.589 38.4931V57.6451H25.529V66.4791C25.529 66.8641 25.844 67.1791 26.229 67.1791C26.614 67.1791 26.929 66.8641 26.929 66.4791V56.2451H16.989V38.4931ZM11.823 32.6691C11.823 30.2051 13.832 28.1961 16.296 28.1961C18.76 28.1961 20.769 30.2051 20.769 32.6691C20.769 35.1331 18.76 37.1421 16.296 37.1421C13.832 37.1421 11.823 35.1331 11.823 32.6691Z" fill="black"/>
<path d="M49.021 47.313C49.021 46.928 48.706 46.613 48.321 46.613H21.679C21.294 46.613 20.979 46.928 20.979 47.313C20.979 47.698 21.294 48.013 21.679 48.013H34.3V66.479C34.3 66.864 34.615 67.179 35 67.179C35.385 67.179 35.7 66.864 35.7 66.479V48.013H48.321C48.706 48.013 49.021 47.698 49.021 47.313Z" fill="black"/>
</svg>
