<svg width="70" height="70" viewBox="0 0 70 70" fill="none" xmlns="http://www.w3.org/2000/svg">
<path d="M29.953 25.958C29.953 28.688 32.172 30.914 34.909 30.914C37.646 30.914 39.865 28.695 39.865 25.958C39.865 23.228 37.646 21.002 34.909 21.002C32.172 21.002 29.953 23.228 29.953 25.958ZM34.902 29.507C32.942 29.507 31.346 27.911 31.346 25.951C31.346 23.991 32.942 22.395 34.902 22.395C36.862 22.395 38.458 23.991 38.458 25.951C38.458 27.911 36.862 29.507 34.902 29.507Z" fill="black"/>
<path d="M26.4251 46.832C26.8101 46.832 27.1251 46.517 27.1251 46.132C27.1251 39.594 30.6181 34.274 34.9091 34.274C39.2001 34.274 42.6931 39.594 42.6931 46.132C42.6931 46.517 43.0081 46.832 43.3931 46.832C43.7781 46.832 44.0931 46.517 44.0931 46.132C44.0931 38.817 39.9771 32.874 34.9091 32.874C29.8411 32.874 25.7251 38.824 25.7251 46.132C25.7251 46.517 26.0331 46.832 26.4251 46.832Z" fill="black"/>
<path d="M14.441 28.093H2.80005V39.734H14.441V28.093ZM13.041 38.341H4.20005V29.493H13.041V38.341Z" fill="black"/>
<path d="M61.376 28.093C58.163 28.093 55.552 30.704 55.552 33.917C55.552 37.13 58.163 39.741 61.376 39.741C64.589 39.741 67.2 37.13 67.2 33.917C67.2 30.704 64.589 28.093 61.376 28.093ZM61.376 38.341C58.94 38.341 56.952 36.36 56.952 33.917C56.952 31.474 58.933 29.493 61.376 29.493C63.812 29.493 65.8 31.474 65.8 33.917C65.8 36.36 63.819 38.341 61.376 38.341Z" fill="black"/>
<path d="M28.042 64.346H41.762L34.902 52.467L28.042 64.346ZM30.471 62.946L34.902 55.267L39.333 62.946H30.471Z" fill="black"/>
<path d="M27.5871 58.641C19.5931 56.282 13.2091 50.164 10.5141 42.275C10.3881 41.911 9.98905 41.715 9.62505 41.841C9.26105 41.967 9.06505 42.366 9.19105 42.73C12.0401 51.046 18.7671 57.5 27.1951 59.985C27.2581 60.006 27.3281 60.013 27.3911 60.013C27.6921 60.013 27.9721 59.817 28.0631 59.509C28.1681 59.138 27.9581 58.753 27.5871 58.641Z" fill="black"/>
<path d="M60.235 41.6659C59.871 41.5469 59.472 41.7429 59.346 42.1069C56.749 49.8769 50.54 55.9949 42.735 58.4799C42.364 58.5989 42.161 58.9909 42.28 59.3619C42.378 59.6629 42.651 59.8519 42.945 59.8519C43.015 59.8519 43.085 59.8379 43.155 59.8169C51.38 57.1989 57.925 50.7449 60.669 42.5549C60.802 42.1839 60.599 41.7919 60.235 41.6659Z" fill="black"/>
<path d="M44.387 9.94204C51.016 12.567 56.308 17.88 58.912 24.516C59.017 24.789 59.283 24.964 59.563 24.964C59.647 24.964 59.731 24.95 59.815 24.915C60.172 24.775 60.354 24.369 60.214 24.005C57.47 17.005 51.891 11.405 44.905 8.64004C44.548 8.50004 44.135 8.67504 43.995 9.03204C43.855 9.39604 44.03 9.80204 44.387 9.94204Z" fill="black"/>
<path d="M9.98914 24.915C10.0731 24.95 10.1571 24.964 10.2411 24.964C10.5211 24.964 10.7871 24.796 10.8921 24.516C13.4681 17.936 18.7111 12.644 25.2701 9.99801C25.6271 9.85101 25.8021 9.44501 25.6551 9.08801C25.5081 8.73101 25.1021 8.55601 24.7451 8.70301C17.8291 11.489 12.3061 17.068 9.59014 24.005C9.45014 24.369 9.62514 24.775 9.98914 24.915Z" fill="black"/>
<path d="M34.902 14.0579L37.226 9.80195L41.482 7.47795L37.226 5.15395L34.902 0.897949L32.578 5.15395L28.322 7.47795L32.578 9.80195L34.902 14.0579ZM33.607 6.18295L34.902 3.81695L36.197 6.18295L38.563 7.47795L36.197 8.77295L34.902 11.1389L33.607 8.77295L31.241 7.47795L33.607 6.18295Z" fill="black"/>
</svg>
