<svg width="70" height="70" viewBox="0 0 70 70" fill="none" xmlns="http://www.w3.org/2000/svg">
<g clip-path="url(#clip0_1101_35)">
<path d="M38.315 -0.178955H24.091V4.14704H9.90198V64.179H52.504V4.14704H38.315V-0.178955ZM51.104 62.779H11.302V5.54705H24.091V8.33304H38.315V5.54705H51.104V62.779ZM36.915 6.93304H25.491V1.22104H36.915V6.93304Z" fill="black"/>
<path d="M62.052 12.4001C59.819 12.4001 58.006 14.2131 58.006 16.4461V48.7231L62.052 56.7941L66.098 48.7231V16.4391C66.098 14.2131 64.285 12.4001 62.052 12.4001ZM62.052 53.6651L59.651 48.8701H64.453L62.052 53.6651ZM59.413 47.4701V20.0931H64.698V47.4701H59.413ZM59.413 16.4391C59.413 14.9831 60.596 13.7931 62.059 13.7931C63.522 13.7931 64.705 14.9761 64.705 16.4391V18.6931H59.42V16.4391H59.413Z" fill="black"/>
<path d="M17.6439 57.774H27.5699V47.855H17.6439V57.774ZM19.0439 49.255H26.1699V56.381H19.0439V49.255Z" fill="black"/>
<path d="M44.062 53.917H32.365C31.98 53.917 31.665 54.232 31.665 54.617C31.665 55.002 31.98 55.317 32.365 55.317H44.062C44.447 55.317 44.762 55.002 44.762 54.617C44.762 54.232 44.454 53.917 44.062 53.917Z" fill="black"/>
<path d="M44.062 50.312H32.365C31.98 50.312 31.665 50.627 31.665 51.012C31.665 51.397 31.98 51.712 32.365 51.712H44.062C44.447 51.712 44.762 51.397 44.762 51.012C44.762 50.627 44.454 50.312 44.062 50.312Z" fill="black"/>
<path d="M17.6439 39.7422H27.5699V29.8162H17.6439V39.7422ZM19.0439 31.2162H26.1699V38.3422H19.0439V31.2162Z" fill="black"/>
<path d="M44.062 35.885H32.365C31.98 35.885 31.665 36.2 31.665 36.585C31.665 36.97 31.98 37.285 32.365 37.285H44.062C44.447 37.285 44.762 36.97 44.762 36.585C44.762 36.2 44.454 35.885 44.062 35.885Z" fill="black"/>
<path d="M44.062 32.2729H32.365C31.98 32.2729 31.665 32.5879 31.665 32.9729C31.665 33.3579 31.98 33.6729 32.365 33.6729H44.062C44.447 33.6729 44.762 33.3579 44.762 32.9729C44.762 32.5879 44.454 32.2729 44.062 32.2729Z" fill="black"/>
<path d="M17.6439 21.7029H27.5699V11.7839H17.6439V21.7029ZM19.0439 13.1839H26.1699V20.3099H19.0439V13.1839Z" fill="black"/>
<path d="M44.062 17.8459H32.365C31.98 17.8459 31.665 18.1609 31.665 18.5459C31.665 18.9309 31.98 19.2459 32.365 19.2459H44.062C44.447 19.2459 44.762 18.9309 44.762 18.5459C44.762 18.1609 44.454 17.8459 44.062 17.8459Z" fill="black"/>
<path d="M31.665 14.941C31.665 15.326 31.98 15.641 32.365 15.641H44.062C44.447 15.641 44.762 15.326 44.762 14.941C44.762 14.556 44.447 14.241 44.062 14.241H32.365C31.98 14.241 31.665 14.556 31.665 14.941Z" fill="black"/>
</g>
<defs>
<clipPath id="clip0_1101_35">
<rect width="70" height="70" fill="white"/>
</clipPath>
</defs>
</svg>
