<svg width="70" height="70" viewBox="0 0 70 70" fill="none" xmlns="http://www.w3.org/2000/svg">
<path d="M52.3134 0.456911C53.6583 0.526517 54.7272 1.63768 54.7272 2.99988V8.72716L54.7247 8.8589C54.6576 10.159 53.6135 11.203 52.3134 11.2702L52.1817 11.2726H48.0453V18.1632L49.2211 17.154L50.0514 18.1184L47.4488 20.3482C48.0653 20.3731 48.6743 20.6216 49.1441 21.0915L53.4346 25.382L53.5241 25.4764C54.3991 26.4434 54.3991 27.9199 53.5241 28.887L53.4346 28.9814L49.1441 33.2719L49.0497 33.3614C48.7539 33.6299 48.4083 33.8163 48.0454 33.9182V40.4359L49.2212 39.4266L50.0515 40.3911L47.6427 42.4543H53.0021L53.1662 42.4593C54.8441 42.5637 55.9801 44.2615 55.3959 45.8698L53.3154 51.5971L53.2383 51.7811C52.8555 52.6237 52.0451 53.193 51.1229 53.2651L50.9216 53.2725H41.1795L41.0154 53.2675C39.3922 53.1656 38.276 51.5747 38.7335 50.0136L38.7857 49.857L39.2779 48.4998H31.2908L32.3001 49.6756L31.3356 50.5059L29.24 48.0623C28.892 50.9831 25.6207 53.2726 21.6361 53.2726C17.4177 53.2726 13.9998 50.7073 13.9998 47.5453C13.9998 44.3833 17.4177 41.818 21.6361 41.818C25.8545 41.818 29.2725 44.3833 29.2725 47.5453C29.2725 47.5726 29.27 47.6025 29.27 47.6298L29.4266 47.4484L31.3357 45.2211L32.3002 46.0513L31.291 47.2272H39.7425L40.8661 44.1298C41.2091 43.1877 42.0717 42.5389 43.0585 42.4619L43.2599 42.4544H47.175L44.7662 40.3912L45.5965 39.4267L46.7723 40.4359V33.9527C46.3621 33.8582 45.9719 33.6618 45.6388 33.361L45.5443 33.2715L41.2539 28.9811C40.2919 28.0191 40.262 26.4754 41.1644 25.4761L41.2539 25.3816L45.5443 21.0911L45.6388 21.0016C46.1285 20.5592 46.7475 20.3404 47.3639 20.3454L46.9935 20.0272L44.7663 18.1182L45.5965 17.1537L46.7723 18.1629V11.2723H42.636L42.5042 11.2699C41.2041 11.2027 40.1601 10.1587 40.093 8.85861L40.0905 8.72687V6.41508L38.0273 8.82385L37.0628 7.99358L38.072 6.81777H29.2571C29.0259 9.65653 25.7025 11.9087 21.6354 11.9087C17.417 11.9087 13.999 9.48751 13.999 6.49959C13.999 3.51167 17.417 1.0905 21.6354 1.0905C25.3939 1.0905 28.5138 3.01448 29.1502 5.54505H38.072L37.0628 4.36924L38.0273 3.53897L39.9364 5.76625L40.0905 5.94522V2.99956C40.0905 1.63736 41.1594 0.526206 42.5042 0.456587L42.636 0.454102H52.1814L52.3134 0.456911ZM21.6363 43.0907C19.7769 43.0907 18.1412 43.6575 17.0002 44.5126C15.8592 45.3703 15.2726 46.454 15.2726 47.5453C15.2726 48.6365 15.8593 49.7204 17.0002 50.5779C18.1412 51.4331 19.7769 51.9998 21.6363 51.9998C23.4957 51.9998 25.1313 51.4331 26.2723 50.5779C27.4133 49.7203 27.9999 48.6365 27.9999 47.5453C27.9999 46.454 27.4132 45.3702 26.2723 44.5126C25.1313 43.6575 23.4957 43.0907 21.6363 43.0907ZM43.2599 43.7271C42.723 43.7271 42.2457 44.0627 42.0618 44.5648L39.9812 50.2921C39.6804 51.1223 40.2944 51.9998 41.1793 51.9998H50.9214C51.4583 51.9998 51.9356 51.6642 52.1195 51.1621L54.2001 45.4348C54.491 44.6295 53.9242 43.7818 53.084 43.7296L53.002 43.7271L43.2599 43.7271ZM48.2439 21.9915C47.7467 21.4943 46.9413 21.4943 46.4442 21.9915L42.1537 26.282C41.6565 26.7791 41.6565 27.5845 42.1537 28.0816L46.4442 32.3721C46.9414 32.8693 47.7468 32.8693 48.2439 32.3721L52.5344 28.0816C53.0315 27.5845 53.0315 26.7791 52.5344 26.282L48.2439 21.9915ZM21.6363 2.36346C19.7595 2.36346 18.1139 2.90536 16.9729 3.71325C15.827 4.52608 15.2726 5.5279 15.2726 6.49982C15.2726 7.47174 15.827 8.47357 16.9729 9.28639C18.1139 10.0943 19.7595 10.6362 21.6363 10.6362C23.513 10.6362 25.1587 10.0943 26.2996 9.28639C27.4456 8.47357 27.9999 7.47174 27.9999 6.49982C27.9999 5.5279 27.4456 4.52608 26.2996 3.71325C25.1586 2.90538 23.513 2.36346 21.6363 2.36346ZM42.6363 1.72709C41.9328 1.72709 41.3635 2.29634 41.3635 2.99982V8.72709C41.3635 9.43059 41.9328 9.99982 42.6363 9.99982H52.1817C52.8852 9.99982 53.4544 9.43058 53.4544 8.72709V2.99982C53.4544 2.34106 52.9523 1.79919 52.311 1.73454L52.1817 1.72708L42.6363 1.72709Z" fill="black"/>
</svg>
