<svg width="70" height="70" viewBox="0 0 70 70" fill="none" xmlns="http://www.w3.org/2000/svg">
<path d="M43.2138 59.1889H53.9813C54.3058 59.1889 54.5713 58.8729 54.5713 58.4866C54.5713 58.1002 54.3058 57.7842 53.9813 57.7842H43.2138C42.8893 57.7842 42.6238 58.1002 42.6238 58.4866C42.6238 58.8729 42.8893 59.1889 43.2138 59.1889Z" fill="black"/>
<path d="M43.2138 54.5183H53.9813C54.3058 54.5183 54.5713 54.2022 54.5713 53.8159C54.5713 53.4296 54.3058 53.1135 53.9813 53.1135H43.2138C42.8893 53.1135 42.6238 53.4296 42.6238 53.8159C42.6238 54.2022 42.8893 54.5183 43.2138 54.5183Z" fill="black"/>
<path d="M39.5736 23.7262V40.85H57.6276V23.7262H49.1906V20.425C49.1906 20.0387 48.9251 19.7226 48.6006 19.7226H36.1103V17.1238H44.3408V0H26.2868V17.1238H34.9303V19.7226H22.027C21.7025 19.7226 21.437 20.0387 21.437 20.425V23.7262H13V40.85H21.437V47.4523H13V64.5762H31.054V56.7166H39.5736V64.5762H57.6276V47.4523H39.5736V55.3119H31.054V47.4523H22.617V40.85H31.054V23.7262H22.617V21.1274H48.0106V23.7262H39.5736ZM27.4668 1.40475H43.1608V15.7191H27.4668V1.40475ZM56.4476 63.1714H40.7536V48.857H56.4476V63.1714ZM14.18 48.857H29.874V63.1714H14.18V48.857ZM29.874 39.4453H22.027H14.18V25.1309H29.874V39.4453ZM56.4476 39.4453H40.7536V25.1309H56.4476V39.4453Z" fill="black"/>
<path d="M53.9872 34.0581H43.2138C42.8893 34.0581 42.6238 34.3742 42.6238 34.7605C42.6238 35.1468 42.8893 35.4629 43.2138 35.4629H53.9813C54.3058 35.4629 54.5713 35.1468 54.5713 34.7605C54.5713 34.3742 54.3117 34.0581 53.9872 34.0581Z" fill="black"/>
<path d="M42.6238 30.0896C42.6238 30.4759 42.8893 30.792 43.2138 30.792H53.9813C54.3058 30.792 54.5713 30.4759 54.5713 30.0896C54.5713 29.7033 54.3058 29.3872 53.9813 29.3872H43.2138C42.8893 29.3872 42.6238 29.7033 42.6238 30.0896Z" fill="black"/>
<path d="M27.4137 57.7842H16.6403C16.3158 57.7842 16.0503 58.1002 16.0503 58.4866C16.0503 58.8729 16.3158 59.1889 16.6403 59.1889H27.4078C27.7323 59.1889 27.9978 58.8729 27.9978 58.4866C27.9978 58.1002 27.7382 57.7842 27.4137 57.7842Z" fill="black"/>
<path d="M27.4137 53.1135H16.6403C16.3158 53.1135 16.0503 53.4296 16.0503 53.8159C16.0503 54.2022 16.3158 54.5183 16.6403 54.5183H27.4078C27.7323 54.5183 27.9978 54.2022 27.9978 53.8159C27.9978 53.4296 27.7382 53.1135 27.4137 53.1135Z" fill="black"/>
<path d="M16.6403 35.4629H27.4078C27.7323 35.4629 27.9978 35.1468 27.9978 34.7605C27.9978 34.3742 27.7323 34.0581 27.4078 34.0581H16.6403C16.3158 34.0581 16.0503 34.3742 16.0503 34.7605C16.0503 35.1468 16.3158 35.4629 16.6403 35.4629Z" fill="black"/>
<path d="M16.6403 30.792H27.4078C27.7323 30.792 27.9978 30.4759 27.9978 30.0896C27.9978 29.7033 27.7323 29.3872 27.4078 29.3872H16.6403C16.3158 29.3872 16.0503 29.7033 16.0503 30.0896C16.0503 30.4759 16.3158 30.792 16.6403 30.792Z" fill="black"/>
<path d="M40.7006 10.3318H29.9272C29.6027 10.3318 29.3372 10.6479 29.3372 11.0342C29.3372 11.4205 29.6027 11.7365 29.9272 11.7365H40.6947C41.0192 11.7365 41.2847 11.4205 41.2847 11.0342C41.2847 10.6479 41.0251 10.3318 40.7006 10.3318Z" fill="black"/>
<path d="M40.7006 5.66113H29.9272C29.6027 5.66113 29.3372 5.9772 29.3372 6.36351C29.3372 6.74981 29.6027 7.06588 29.9272 7.06588H40.6947C41.0192 7.06588 41.2847 6.74981 41.2847 6.36351C41.2847 5.9772 41.0251 5.66113 40.7006 5.66113Z" fill="black"/>
</svg>
