<svg width="70" height="70" viewBox="0 0 70 70" fill="none" xmlns="http://www.w3.org/2000/svg">
<path d="M61.0909 52.6364H8.90906V1.72729H61.0909V52.6364ZM10.1818 51.3637H59.8182V11.5012H10.1818V51.3637ZM22.9091 45C23.2596 45 23.5454 45.2859 23.5454 45.6364C23.5454 45.9869 23.2596 46.2727 22.9091 46.2727H14.6363C14.2858 46.2727 14 45.9869 14 45.6364C14 45.2859 14.2858 45 14.6363 45H22.9091ZM39.4545 45C39.805 45 40.0909 45.2859 40.0909 45.6364C40.0909 45.9869 39.805 46.2727 39.4545 46.2727H31.1818C30.8313 46.2727 30.5454 45.9869 30.5454 45.6364C30.5454 45.2859 30.8313 45 31.1818 45H39.4545ZM56 45C56.3505 45 56.6363 45.2859 56.6363 45.6364C56.6363 45.9869 56.3505 46.2727 56 46.2727H47.7272C47.3767 46.2727 47.0909 45.9869 47.0909 45.6364C47.0909 45.2859 47.3767 45 47.7272 45H56ZM22.9091 41.1818C23.2596 41.1818 23.5454 41.4677 23.5454 41.8182C23.5454 42.1687 23.2596 42.4546 22.9091 42.4546H14.6363C14.2858 42.4546 14 42.1687 14 41.8182C14 41.4677 14.2858 41.1818 14.6363 41.1818H22.9091ZM39.4545 41.1818C39.805 41.1818 40.0909 41.4677 40.0909 41.8182C40.0909 42.1687 39.805 42.4546 39.4545 42.4546H31.1818C30.8313 42.4546 30.5454 42.1687 30.5454 41.8182C30.5454 41.4677 30.8313 41.1818 31.1818 41.1818H39.4545ZM56 41.1818C56.3505 41.1818 56.6363 41.4677 56.6363 41.8182C56.6363 42.1687 56.3505 42.4546 56 42.4546H47.7272C47.3767 42.4546 47.0909 42.1687 47.0909 41.8182C47.0909 41.4677 47.3767 41.1818 47.7272 41.1818H56ZM23.5454 38.6364H14V29.0909H23.5454V38.6364ZM40.0909 38.6364H30.5454V29.0909H40.0909V38.6364ZM56.6363 38.6364H47.0909V29.0909H56.6363V38.6364ZM16.1725 37.3637H21.3728L18.7727 34.7635L16.1725 37.3637ZM32.718 37.3637H37.9183L35.3182 34.7635L32.718 37.3637ZM49.2634 37.3637H54.4637L51.8636 34.7635L49.2634 37.3637ZM15.2727 36.4638L17.8728 33.8637L15.2727 31.2635V36.4638ZM19.6726 33.8637L22.2727 36.4638V31.2635L19.6726 33.8637ZM31.8182 36.4638L34.4183 33.8637L31.8182 31.2635V36.4638ZM36.2181 33.8637L38.8182 36.4638V31.2635L36.2181 33.8637ZM48.3637 36.4638L50.9639 33.8637L48.3637 31.2635V36.4638ZM52.7636 33.8637L55.3637 36.4638V31.2635L52.7636 33.8637ZM18.7729 32.9638L21.373 30.3637H16.1727L18.7729 32.9638ZM35.3183 32.9638L37.9185 30.3637H32.7182L35.3183 32.9638ZM51.8638 32.9638L54.4639 30.3637H49.2636L51.8638 32.9638ZM56.6365 26.5454H14.0002V16.3636H56.6365V26.5454ZM15.2729 25.2727H16.5903L32.579 21.4545L16.5903 17.6363H15.2729V25.2727ZM22.0692 25.2727H48.5681L35.319 22.1082L22.0692 25.2727ZM38.0579 21.4545L54.0465 25.2727H55.364V17.6363H54.0465L38.0579 21.4545ZM35.3185 20.8008L48.5676 17.6363H22.0688L35.3185 20.8008ZM10.1822 10.2289H59.8185V3.0004H10.1822V10.2289ZM15.9094 4.27288C16.9634 4.27288 17.8185 5.12802 17.8185 6.18197C17.8185 7.23591 16.9634 8.09106 15.9094 8.09106C14.8555 8.09106 14.0003 7.23591 14.0003 6.18197C14.0003 5.12802 14.8555 4.27288 15.9094 4.27288ZM21.0003 4.27288C22.0543 4.27288 22.9094 5.12802 22.9094 6.18197C22.9094 7.23591 22.0543 8.09106 21.0003 8.09106C19.9464 8.09106 19.0913 7.23591 19.0913 6.18197C19.0913 5.12802 19.9464 4.27288 21.0003 4.27288ZM26.0913 4.27288C27.1452 4.27288 28.0003 5.12802 28.0003 6.18197C28.0003 7.23591 27.1452 8.09106 26.0913 8.09106C25.0373 8.09106 24.1822 7.23591 24.1822 6.18197C24.1822 5.12802 25.0373 4.27288 26.0913 4.27288ZM15.9094 5.5456C15.5589 5.5456 15.2731 5.83147 15.2731 6.18197C15.2731 6.53246 15.5589 6.81833 15.9094 6.81833C16.2599 6.81833 16.5458 6.53246 16.5458 6.18197C16.5458 5.83147 16.2599 5.5456 15.9094 5.5456ZM21.0003 5.5456C20.6499 5.5456 20.364 5.83147 20.364 6.18197C20.364 6.53246 20.6499 6.81833 21.0003 6.81833C21.3508 6.81833 21.6367 6.53246 21.6367 6.18197C21.6367 5.83147 21.3508 5.5456 21.0003 5.5456ZM26.0913 5.5456C25.7408 5.5456 25.4549 5.83147 25.4549 6.18197C25.4549 6.53246 25.7408 6.81833 26.0913 6.81833C26.4418 6.81833 26.7276 6.53246 26.7276 6.18197C26.7276 5.83147 26.4418 5.5456 26.0913 5.5456ZM56.0004 5.5456C56.3509 5.5456 56.6367 5.83147 56.6367 6.18197C56.6367 6.53246 56.3509 6.81833 56.0004 6.81833H45.8185C45.468 6.81833 45.1822 6.53246 45.1822 6.18197C45.1822 5.83147 45.468 5.5456 45.8185 5.5456H56.0004Z" fill="black"/>
</svg>
