<svg width="100" height="100" viewBox="0 0 100 100" fill="none" xmlns="http://www.w3.org/2000/svg">
<path d="M37.5797 18.6764C37.4512 18.5479 37.2777 18.475 37.0972 18.475C36.9132 18.475 36.7396 18.5479 36.6112 18.6764L28.0681 27.2194C27.9397 27.3479 27.8702 27.5214 27.8702 27.7019C27.8702 27.8825 27.9397 28.056 28.0681 28.1845L32.0116 32.128C31.2166 33.5998 30.5709 35.1445 30.0919 36.7449H24.5342C24.1558 36.7449 23.8503 37.0504 23.8503 37.4287V49.5164C23.8503 49.8948 24.1558 50.2003 24.5342 50.2003H30.0919C30.564 51.811 31.2131 53.3662 32.0254 54.8381L28.0889 58.7608V58.7573C27.9604 58.8858 27.8876 59.0593 27.8876 59.2398C27.8876 59.4238 27.9605 59.5974 28.0854 59.7258L36.6112 68.2689C36.7396 68.3973 36.9132 68.4702 37.0937 68.4702H37.0972C37.2777 68.4702 37.4512 68.3973 37.5797 68.2689L41.5232 64.3254C42.995 65.1238 44.5502 65.7695 46.1574 66.2486V71.8028C46.1574 72.1812 46.4629 72.4867 46.8378 72.4867H58.9113C59.2862 72.4867 59.5917 72.1812 59.5917 71.8028V66.2486C61.2024 65.7695 62.7576 65.1204 64.2295 64.3081L68.1695 68.2481V68.2516C68.2979 68.38 68.4715 68.4494 68.652 68.4494H68.6555C68.836 68.4494 69.0096 68.38 69.138 68.2516L77.6637 59.7085C77.9276 59.4412 77.9276 59.0108 77.6637 58.7435L73.7376 54.8C74.5395 53.3351 75.1782 51.7869 75.6433 50.1831H81.2149C81.5933 50.1831 81.8987 49.8776 81.8987 49.4992V37.4115C81.8987 37.0331 81.5933 36.7277 81.2149 36.7277H75.6399C75.1643 35.1239 74.5221 33.5756 73.7202 32.1107L77.6637 28.1673H77.6602C77.7886 28.0388 77.8615 27.8653 77.8615 27.6847C77.8615 27.5042 77.7886 27.3307 77.6602 27.2022L69.1171 18.6592C68.8463 18.4023 68.4228 18.4023 68.1521 18.6592L64.2121 22.5992C62.7403 21.7869 61.1851 21.1447 59.5743 20.676V15.1218C59.5743 14.7469 59.2688 14.4414 58.8904 14.4414H46.8205C46.4456 14.4414 46.1401 14.7469 46.1366 15.1218V20.6933C44.5328 21.1585 42.9811 21.8042 41.5197 22.6165L37.5797 18.6764ZM46.9944 21.8735C47.2964 21.7937 47.5047 21.5229 47.5047 21.214V15.8056H58.2105V21.1932C58.2105 21.5056 58.4188 21.7764 58.7173 21.8562C60.564 22.3457 62.3345 23.0781 63.9834 24.0397C64.2542 24.1959 64.5909 24.1508 64.8096 23.9321L68.635 20.1066L76.213 27.6846L72.3876 31.51C72.1689 31.7287 72.1237 32.0654 72.2799 32.3327C73.2311 33.9851 73.9635 35.7521 74.4669 37.5884C74.5467 37.887 74.8175 38.0918 75.1264 38.0918H80.5313V48.8145H75.1264C74.814 48.8145 74.5432 49.0228 74.4634 49.3248C73.9774 51.1612 73.2484 52.9281 72.2973 54.5735C72.1445 54.8408 72.1862 55.1775 72.4049 55.3962L76.213 59.2217L68.6524 66.7996L64.8269 62.9742V62.9776C64.6082 62.7589 64.2715 62.7138 64.0042 62.87C62.3483 63.8281 60.5745 64.5676 58.7312 65.0744C58.4326 65.1542 58.2278 65.425 58.2278 65.7305V71.118H47.522V65.7305C47.522 65.425 47.3172 65.1542 47.0186 65.0744C45.1754 64.5676 43.4015 63.8317 41.7421 62.884C41.4748 62.7312 41.1381 62.7764 40.9229 62.9951L37.0974 66.8205L29.5368 59.2426L33.3588 55.4344C33.581 55.2157 33.6261 54.8755 33.4664 54.6048C32.5049 52.9524 31.7654 51.182 31.2655 49.3352C31.1822 49.0401 30.9149 48.8319 30.6059 48.8319H25.2184V38.1127H30.6059C30.9149 38.1127 31.1822 37.9044 31.2655 37.6093C31.7723 35.773 32.5082 34.006 33.4524 32.3502C33.6052 32.0829 33.5601 31.7462 33.3448 31.5275L29.5194 27.702L37.0973 20.124L40.9228 23.9495C41.1415 24.1717 41.4817 24.2133 41.749 24.0571C43.391 23.0921 45.1545 22.3595 46.9944 21.8735Z" fill="black"/>
<path d="M35.8264 43.463C35.8264 47.9827 37.6211 52.3184 40.8183 55.5151C44.0154 58.7123 48.3477 60.507 52.8704 60.507C57.3901 60.507 61.7224 58.7123 64.9199 55.5151C68.1171 52.318 69.9118 47.9822 69.9118 43.463C69.9118 38.9433 68.1171 34.6075 64.9199 31.4108C61.7228 28.2171 57.3905 26.4189 52.8678 26.4189C48.3515 26.4259 44.0193 28.224 40.8218 31.4177C37.6281 34.6149 35.8299 38.9465 35.8264 43.463ZM52.8676 27.7859C57.0263 27.7859 61.0149 29.4383 63.9556 32.3786C66.8962 35.3188 68.5482 39.304 68.5482 43.463C68.5482 47.6217 66.8958 51.6103 63.9556 54.5509C61.0153 57.4915 57.0267 59.1401 52.8711 59.1401C48.7124 59.1401 44.7238 57.4912 41.7832 54.5509C38.8429 51.6107 37.1905 47.622 37.1905 43.463C37.1975 39.3077 38.8499 35.3225 41.7866 32.3821C44.7269 29.4453 48.7122 27.7894 52.8676 27.7859Z" fill="black"/>
<path d="M16.5919 46.3402H16.6371C16.8176 46.3263 16.9842 46.243 17.1057 46.1076C17.2237 45.9723 17.2862 45.7952 17.2723 45.6147C16.7377 37.5438 18.9038 29.528 23.4305 22.8283C27.9573 16.1285 34.5843 11.1262 42.2695 8.6095C42.3042 8.59909 42.3389 8.58867 42.3702 8.57826L39.9853 11.2408L39.9888 11.2443C39.7354 11.5255 39.7597 11.9559 40.0409 12.2093C40.3221 12.4592 40.7525 12.4349 41.0059 12.1537L45.0952 7.58544V7.58891C45.2583 7.40493 45.3104 7.15152 45.234 6.91893C45.1577 6.68982 44.9633 6.51625 44.7272 6.46418L38.7287 5.20751H38.7252C38.5482 5.16933 38.3642 5.20404 38.2115 5.30471C38.0622 5.40192 37.9546 5.55813 37.9164 5.73517C37.84 6.10313 38.0761 6.46763 38.444 6.544L41.9571 7.27994C41.9189 7.29035 41.8807 7.30077 41.846 7.31465C33.8722 9.92166 26.9918 15.1113 22.2987 22.0648C17.6019 29.0145 15.3525 37.3322 15.9114 45.7053C15.9322 46.0628 16.2309 46.3402 16.5919 46.3402Z" fill="black"/>
<path d="M94.2015 40.3768C94.0453 40.2831 93.8613 40.2554 93.6843 40.297C93.5073 40.3421 93.358 40.4532 93.2643 40.6094L91.4141 43.6781C91.4661 39.5228 90.8309 35.385 89.5326 31.4384C85.3356 18.7713 74.8002 9.23584 61.7793 6.31567C61.4114 6.23583 61.0503 6.46494 60.967 6.8329C60.8872 7.20087 61.1163 7.56536 61.4843 7.64868C69.6559 9.4573 76.956 14.0221 82.1566 20.5797C87.3602 27.1337 90.1477 35.281 90.0504 43.6506L88.3183 40.5159C88.2315 40.3563 88.0822 40.2382 87.9086 40.1862C87.7351 40.1376 87.5476 40.1584 87.3879 40.2452C87.2282 40.332 87.1137 40.4812 87.0616 40.6548C87.013 40.8284 87.0338 41.0158 87.1206 41.1755L90.0851 46.5423C90.2032 46.754 90.4253 46.8894 90.6718 46.8929H90.6857H90.6822C90.9217 46.8929 91.1439 46.7679 91.2689 46.5631L94.4348 41.3144C94.5285 41.1582 94.5563 40.9743 94.5111 40.7972C94.4695 40.6202 94.3543 40.4706 94.2015 40.3768Z" fill="black"/>
<path d="M85.3114 62.5063C84.992 62.305 84.572 62.4022 84.3706 62.7216C77.9868 72.7956 67.0762 79.1069 55.1626 79.6134C43.2491 80.1203 31.8421 74.7605 24.6252 65.2658L27.9994 66.7203C28.3465 66.8696 28.7492 66.7099 28.8985 66.3628C29.0477 66.0191 28.8881 65.6164 28.5409 65.4672L22.9104 63.0407C22.9 63.0372 22.8861 63.0337 22.8757 63.0302C22.7299 62.9747 22.5737 62.9747 22.4279 63.0233C22.4036 63.0302 22.3793 63.0407 22.355 63.0511C22.3237 63.0615 22.2925 63.0754 22.2647 63.0893C22.2508 63.0962 22.2439 63.1101 22.2335 63.1205C22.1814 63.1587 22.1397 63.2003 22.1016 63.2524C22.0807 63.2802 22.0634 63.3114 22.046 63.3427C21.9766 63.4642 21.9488 63.6065 21.9627 63.7453L22.6743 69.8342C22.716 70.1778 23.0076 70.4382 23.3513 70.4382C23.379 70.4382 23.4068 70.4382 23.4346 70.4347C23.6116 70.4139 23.7782 70.3202 23.8893 70.1778C24.0004 70.039 24.0525 69.855 24.0316 69.678L23.6255 66.2101C31.1341 76.0095 42.9612 81.5219 55.2987 80.9736C67.6325 80.4217 78.9213 73.8781 85.5277 63.4463C85.6249 63.2936 85.6562 63.1096 85.6145 62.9326C85.5763 62.7555 85.4652 62.6028 85.3125 62.5056L85.3114 62.5063Z" fill="black"/>
<path d="M48.0217 11.0777H58.0993C58.3458 11.0777 58.5714 10.9493 58.6929 10.7375C58.8144 10.5258 58.8144 10.2654 58.6929 10.0537L53.6524 1.32664C53.5205 1.12877 53.2983 1.01074 53.0623 1.01074C52.8228 1.01074 52.6006 1.12877 52.4687 1.32664L47.4317 10.0537C47.3102 10.2654 47.3102 10.5258 47.4317 10.7375C47.5532 10.9493 47.7787 11.0777 48.0217 11.0777ZM53.0622 3.03452L56.9189 9.71343H49.2055L53.0622 3.03452Z" fill="black"/>
<path d="M20.6294 49.8184H11.9024C11.524 49.8184 11.2185 50.1238 11.2185 50.4987V59.2258C11.2185 59.6041 11.524 59.9096 11.9024 59.9096H20.6294C21.0078 59.9096 21.3133 59.6041 21.3133 59.2258V50.4987C21.3133 50.1238 21.0078 49.8184 20.6294 49.8184ZM19.9455 58.5454H12.5827V51.1826H19.9455V58.5454Z" fill="black"/>
<path d="M88.4324 49.9991C86.4642 49.9991 84.6903 51.1863 83.937 53.0018C83.1837 54.8209 83.6002 56.9106 84.9923 58.3026C86.3843 59.6946 88.4741 60.1112 90.293 59.3579C92.1086 58.6046 93.2957 56.8307 93.2957 54.8625C93.2923 52.1791 91.1158 50.0026 88.4324 49.9991ZM88.4324 58.3617C87.016 58.3617 85.7421 57.5112 85.2006 56.2025C84.659 54.8937 84.9576 53.3906 85.9573 52.3909C86.9571 51.3911 88.4636 51.0926 89.7689 51.6307C91.0777 52.1722 91.9281 53.4497 91.9281 54.8625C91.9281 56.7961 90.3625 58.3582 88.4324 58.3617Z" fill="black"/>
</svg>
