<svg width="100" height="100" viewBox="0 0 100 100" fill="none" xmlns="http://www.w3.org/2000/svg">
<path d="M25.2319 11.9998C27.659 11.9998 29.8465 10.538 30.7771 8.29493C31.7042 6.05537 31.1902 3.47199 29.475 1.75669C27.7597 0.0414019 25.1799 -0.472466 22.9368 0.458114C20.6937 1.38523 19.2319 3.5727 19.2319 5.99981C19.2388 9.31235 21.9194 11.9964 25.2319 11.9998ZM25.2319 1.33314C27.1173 1.34703 28.8083 2.49287 29.5201 4.23936C30.2284 5.98239 29.8222 7.98586 28.4853 9.31226C27.1485 10.6387 25.1416 11.031 23.4019 10.3088C21.6624 9.5831 20.5304 7.88515 20.5304 5.99972C20.5304 4.7567 21.0269 3.56221 21.9089 2.68718C22.7943 1.81218 23.9888 1.32265 25.2319 1.33314ZM15.2425 29.3332H35.215C35.4129 29.3332 35.6039 29.2464 35.7324 29.0936C38.097 26.2741 38.9233 23.5554 38.1872 21.0033C36.6942 15.8018 29.2983 13.3401 28.9508 13.2359H28.9473C28.8779 13.2255 28.8049 13.2255 28.7355 13.2359H27.8466C27.4785 13.2394 27.1834 13.5345 27.1799 13.9026V22.5588C27.2147 23.104 27.0272 23.6352 26.6556 24.0346C26.2841 24.4304 25.7633 24.6561 25.2181 24.6561C24.6764 24.6561 24.1556 24.4304 23.7841 24.0346C23.4125 23.6353 23.2216 23.104 23.2598 22.5588V13.8574C23.2563 13.4928 22.9577 13.1942 22.5931 13.1907H21.7042C21.6348 13.1803 21.5688 13.1803 21.4993 13.1907C21.1799 13.2984 13.7493 15.7602 12.2567 20.9581C11.5275 23.5102 12.3539 26.229 14.7115 29.0485H14.708C14.833 29.2186 15.0307 29.3262 15.2425 29.3332ZM13.5551 21.3332C14.7634 17.1005 20.9857 14.7915 21.8294 14.4894H21.937V22.4894H21.9336C21.8884 23.3922 22.2148 24.2742 22.8363 24.9304C23.4578 25.5867 24.3259 25.9582 25.2287 25.9582C26.1314 25.9582 26.9961 25.5866 27.621 24.9304C28.2426 24.2742 28.5689 23.3922 28.5203 22.4894V14.4894H28.628C29.4717 14.7915 35.7391 17.104 36.9023 21.3332C37.4891 23.3609 36.812 25.5902 34.9023 27.9547H15.5511C13.6414 25.6248 12.9748 23.3957 13.5511 21.3332H13.5551ZM74.5027 11.9998C76.9333 12.0102 79.1277 10.5554 80.0652 8.31582C81.0028 6.07279 80.4958 3.48941 78.784 1.76718C77.0687 0.0449574 74.4854 -0.472377 72.2423 0.454647C69.9958 1.38176 68.5305 3.56923 68.5305 5.99981C68.5339 9.30186 71.2041 11.979 74.5027 11.9998ZM74.5027 1.33314C76.3916 1.33314 78.0931 2.46852 78.8153 4.2151C79.5375 5.95812 79.1382 7.96515 77.8049 9.29849C76.4681 10.6353 74.4611 11.0346 72.718 10.3124C70.975 9.59013 69.8361 7.88871 69.8361 5.99981C69.843 3.42345 71.9298 1.3366 74.5027 1.33314ZM64.5134 29.3332H84.5312C84.7291 29.3297 84.9166 29.2429 85.0451 29.0936C87.3992 26.2741 88.2256 23.5554 87.4999 21.0033C86.0069 15.8018 78.611 13.3401 78.2573 13.2359C78.1878 13.2255 78.1184 13.2255 78.0524 13.2359H77.1635C76.7954 13.2394 76.5003 13.5345 76.4968 13.9026V22.5588C76.5316 23.104 76.344 23.6352 75.9725 24.0346C75.601 24.4304 75.0802 24.6561 74.535 24.6561C73.9933 24.6561 73.4725 24.4304 73.101 24.0346C72.7294 23.6353 72.5385 23.104 72.5767 22.5588V13.8574C72.5697 13.4928 72.2746 13.1942 71.91 13.1907H71.0211C70.9482 13.1838 70.8787 13.1838 70.8058 13.1907C70.4933 13.2984 63.0628 15.7602 61.5694 20.9581C60.8333 23.5102 61.6596 26.229 64.0242 29.0485C64.1388 29.2116 64.3155 29.3158 64.5134 29.3332ZM62.8259 21.3332C64.0343 17.1005 70.2565 14.7915 71.1002 14.4894H71.1975V22.4894C71.1489 23.3922 71.4752 24.2742 72.1002 24.9304C72.7218 25.5867 73.5864 25.9582 74.4891 25.9582C75.3953 25.9582 76.26 25.5866 76.8815 24.9304C77.5065 24.2742 77.8294 23.3922 77.7842 22.4894V14.4894H77.8919C78.7356 14.7915 84.9578 17.104 86.1662 21.3332C86.7426 23.3609 86.0759 25.5902 84.1662 27.9547H64.8222C62.9125 25.6248 62.2389 23.3957 62.8222 21.3332H62.8259ZM25.2321 62.6773C27.6592 62.6773 29.8467 61.2155 30.7772 58.9724C31.7043 56.7293 31.1904 54.1494 29.4752 52.4341C27.7599 50.7154 25.1801 50.205 22.937 51.1321C20.6939 52.0627 19.2321 54.2501 19.2321 56.6772C19.239 59.9863 21.9195 62.6703 25.2321 62.6773ZM25.2321 52.0106C27.1175 52.0245 28.8084 53.1703 29.5203 54.9133C30.2286 56.6598 29.8223 58.6598 28.4855 59.9862C27.1487 61.3161 25.1418 61.7085 23.4021 60.9828C21.6625 60.2605 20.5305 58.5591 20.5305 56.6772C20.534 55.4341 21.0305 54.2431 21.9125 53.3646C22.7945 52.4896 23.989 52.0036 25.2321 52.0106ZM15.2427 80H35.2152C35.4131 80 35.6041 79.9131 35.7326 79.7604C38.0972 76.9409 38.9235 74.2221 38.1874 71.67C36.6943 66.4686 29.2985 64.0068 28.9509 63.9027H28.9475C28.878 63.8922 28.8051 63.8922 28.7357 63.9027H27.8468C27.4787 63.9027 27.1801 64.2013 27.1801 64.5693V73.2187C27.2148 73.7603 27.0273 74.295 26.6558 74.6908C26.2843 75.0902 25.7635 75.3158 25.2183 75.3158C24.6766 75.3158 24.1558 75.0901 23.7842 74.6908C23.4127 74.295 23.2217 73.7603 23.2599 73.2187V64.5416C23.2599 64.1735 22.9613 63.8749 22.5933 63.8749H21.7044C21.6349 63.8645 21.569 63.8645 21.4995 63.8749C21.1801 63.9826 13.7495 66.4443 12.2568 71.6423C11.5277 74.1944 12.3541 76.9132 14.7117 79.7326H14.7082C14.8367 79.8993 15.0344 79.9965 15.2427 80ZM13.5552 71.9999C14.7636 67.7673 20.9858 65.4582 21.8296 65.1631H21.9372V73.1631H21.9337C21.8886 74.0659 22.215 74.9513 22.8365 75.6076C23.458 76.2604 24.3261 76.6319 25.2289 76.6319C26.1316 76.6319 26.9962 76.2603 27.6212 75.6076C28.2427 74.9513 28.5691 74.0659 28.5205 73.1631V65.1631H28.6281C29.4719 65.4548 35.6872 67.7604 36.9025 71.9895C37.4893 74.0243 36.8122 76.2569 34.9025 78.6215H15.5513C13.6416 76.302 12.975 74.0694 13.5513 72.0451L13.5552 71.9999ZM68.5313 56.6772C68.5348 59.1044 70.0035 61.2918 72.2466 62.2155C74.4931 63.1391 77.0731 62.6183 78.7849 60.896C80.5002 59.1738 81.0036 56.5904 80.0661 54.3508C79.1286 52.1113 76.9342 50.6564 74.5036 50.6668C71.2016 50.6877 68.5313 53.3717 68.5313 56.6772ZM74.5314 52.0106C76.4203 52.0106 78.1217 53.1459 78.8439 54.8891C79.5661 56.6322 79.1668 58.6426 77.83 59.9759C76.4967 61.3093 74.4898 61.7085 72.7466 60.9863C71.0002 60.2641 69.8647 58.5627 69.8647 56.6772C69.8682 54.1113 71.941 52.0279 74.5036 52.0106H74.5314ZM64.5136 80H84.5314C84.7293 79.9965 84.9168 79.9097 85.0453 79.7604C87.3994 76.9409 88.2258 74.2221 87.5001 71.67C86.007 66.4686 78.6112 64.0068 78.2574 63.9027C78.188 63.8922 78.1185 63.8922 78.0526 63.9027H77.1637C76.7956 63.9027 76.497 64.2013 76.497 64.5693V73.2187C76.5317 73.7603 76.3442 74.295 75.9727 74.6908C75.6012 75.0902 75.0803 75.3158 74.5352 75.3158C73.9935 75.3158 73.4727 75.0901 73.1011 74.6908C72.7296 74.295 72.5386 73.7603 72.5768 73.2187V64.5416C72.5768 64.1735 72.2782 63.8749 71.9102 63.8749H71.0213C70.9484 63.868 70.8789 63.868 70.806 63.8749C70.4935 63.9826 63.063 66.4443 61.5695 71.6423C60.8334 74.1944 61.6598 76.9132 64.0244 79.7326C64.1424 79.8889 64.3191 79.9861 64.5136 80ZM62.8261 71.9999C64.0344 67.7673 70.2567 65.4582 71.1004 65.1631H71.1976V73.1631C71.149 74.0659 71.4754 74.9513 72.1004 75.6076C72.7219 76.2604 73.5865 76.6319 74.4893 76.6319C75.3955 76.6319 76.2601 76.2603 76.8817 75.6076C77.5067 74.9513 77.8296 74.0659 77.7844 73.1631V65.1631H77.8921C78.7358 65.4548 84.9511 67.7604 86.1664 71.9895C86.7428 74.0243 86.0761 76.2569 84.1664 78.6215H64.8223C62.9126 76.302 62.239 74.0694 62.8223 72.0451L62.8261 71.9999ZM50.5416 45.4861V40.6945C51.493 40.8195 52.3125 41.4236 52.7187 42.2917C52.7847 42.4618 52.9166 42.5973 53.0833 42.6632C53.2534 42.7327 53.4409 42.7327 53.6076 42.6563C53.7777 42.5938 53.9131 42.4618 53.9826 42.2917C54.052 42.125 54.0486 41.9341 53.9722 41.7674C53.3506 40.4028 52.0485 39.4723 50.559 39.323V37.9098C50.559 37.5417 50.2604 37.2431 49.8923 37.2431C49.5243 37.2431 49.2257 37.5417 49.2257 37.9098V39.3508C47.2534 39.4897 45.6874 41.0591 45.5521 43.0313C45.691 45 47.257 46.5661 49.2257 46.7015V51.4931C48.2847 51.3681 47.4722 50.7848 47.0451 49.9375C46.9792 49.7709 46.8437 49.6389 46.6771 49.573C46.5104 49.5035 46.3229 49.507 46.1562 49.5834C45.9931 49.6528 45.8611 49.7848 45.7951 49.9514C45.7292 50.1181 45.7326 50.3056 45.8021 50.4723C46.4479 51.8021 47.7361 52.7084 49.2083 52.8612V54.2848C49.2083 54.6529 49.5069 54.9515 49.875 54.9515C50.243 54.9515 50.5416 54.6529 50.5416 54.2848V52.8438C52.5034 52.6945 54.0624 51.1285 54.2014 49.1633C54.066 47.198 52.507 45.6284 50.5416 45.4861ZM46.868 43.0313C46.9826 41.7917 47.9653 40.809 49.2083 40.6945V45.3334C47.9826 45.2153 47.0069 44.2535 46.868 43.0313ZM50.5416 51.5035V46.8264C51.8298 46.8264 52.8784 47.875 52.8784 49.1632C52.8784 50.4548 51.8298 51.5035 50.5416 51.5035ZM49.8645 32.4163C46.184 32.4198 42.6562 33.885 40.0556 36.4857C37.4549 39.0899 35.9966 42.6177 35.9966 46.2982C36.0001 49.9787 37.4619 53.5066 40.066 56.1071C42.6667 58.7078 46.198 60.1696 49.8749 60.1696C53.5555 60.1661 57.0833 58.7044 59.6874 56.1036C62.2881 53.4995 63.7499 49.9717 63.7499 46.2912C63.743 42.6141 62.2812 39.0863 59.677 36.4823C57.0728 33.8816 53.5451 32.4198 49.8645 32.4163ZM49.8645 58.8367C44.7916 58.8332 40.2219 55.7742 38.285 51.0867C36.344 46.3992 37.4204 41.0066 41.0072 37.42C44.5975 33.8367 49.9894 32.7637 54.6739 34.7081C59.3614 36.6491 62.4169 41.222 62.4169 46.2913C62.4065 53.2184 56.7916 58.8296 49.8645 58.8367ZM68.781 46.2919C68.781 41.278 66.7879 36.4652 63.2393 32.9168C59.6907 29.3716 54.8817 27.3785 49.8642 27.3785C44.8467 27.3785 40.0375 29.3716 36.4891 32.9168C32.9404 36.4654 30.9474 41.2778 30.9474 46.2919C30.9474 51.3092 32.9404 56.1221 36.4891 59.6706C40.0377 63.2157 44.8467 65.2088 49.8642 65.2088C54.8781 65.2053 59.6873 63.2088 63.2358 59.6636C66.7809 56.1185 68.7741 51.3093 68.781 46.2919ZM49.8645 63.875C45.2013 63.875 40.7294 62.0244 37.4307 58.7257C34.1356 55.4271 32.2814 50.9548 32.2814 46.2919C32.2814 41.6321 34.1355 37.1603 37.4307 33.8616C40.7293 30.5631 45.2016 28.7123 49.8645 28.7123C54.5275 28.7123 58.9997 30.563 62.2983 33.8616C65.5935 37.1602 67.4477 41.6325 67.4477 46.2919C67.4407 50.9551 65.5865 55.4235 62.2914 58.7221C58.9963 62.0173 54.5273 63.8716 49.8645 63.875ZM35.9899 6.00026C35.9899 5.6322 36.2885 5.33359 36.6565 5.33359H44.5316C44.8996 5.33359 45.1982 5.6322 45.1982 6.00026V9.16346H53.5177C53.8858 9.17041 54.1809 9.46554 54.1844 9.83013V13.8579C54.1844 14.2259 53.8858 14.5245 53.5177 14.5245H46.851V16.712H60.3888C60.7569 16.712 61.0555 17.0106 61.0555 17.3787C61.0555 17.7467 60.7569 18.0453 60.3888 18.0453H46.1666C45.802 18.0384 45.5034 17.7433 45.4999 17.3787V13.8231C45.5034 13.4551 45.802 13.1599 46.1666 13.1564H52.8333V10.4898H44.5312C44.1631 10.4898 43.8645 10.1912 43.8645 9.82311V6.66684H36.6562C36.2881 6.66336 35.9933 6.36484 35.9899 6.00026ZM78.309 38.8368V43.059H80.9757V37.7257C80.9792 37.3576 81.2778 37.0625 81.6424 37.059H84.816V32.4617C84.816 32.0937 85.1146 31.7951 85.4826 31.7951C85.8507 31.7951 86.1493 32.0937 86.1493 32.4617V37.7257C86.1493 38.0937 85.8507 38.3923 85.4826 38.3923H82.3542V43.7257C82.3542 44.0937 82.0556 44.3923 81.6875 44.3923H77.6598C77.2952 44.3854 76.9966 44.0903 76.9931 43.7257V39.5034H74.8161V48.2951V48.2916C74.8161 48.6632 74.5174 48.9583 74.1494 48.9583C73.7813 48.9583 73.4827 48.6632 73.4827 48.2916V38.8365C73.4792 38.6594 73.5487 38.4858 73.6737 38.3608C73.8022 38.2358 73.9723 38.1663 74.1494 38.1698H77.705C78.0487 38.1976 78.316 38.4895 78.309 38.8368ZM24.9756 37.059V41.2812H27.1631V32.4617C27.1631 32.0937 27.4617 31.7951 27.8297 31.7951C28.1978 31.7951 28.4964 32.0937 28.4964 32.4617V41.9204C28.4964 42.2885 28.1978 42.5871 27.8297 42.5871H24.2742C23.9061 42.5871 23.6075 42.2885 23.6075 41.9204V37.6982H20.9408V43.0315C20.9339 43.3961 20.6388 43.6947 20.2742 43.6982H17.1006V48.2955V48.292C17.1006 48.6635 16.802 48.9586 16.4339 48.9586C16.0658 48.9586 15.7672 48.6635 15.7672 48.292V43.0315C15.7672 42.6635 16.0658 42.3649 16.4339 42.3649H19.6423V37.0315C19.6423 36.6635 19.9409 36.3648 20.3089 36.3648H24.3263C24.6874 36.3753 24.9756 36.6704 24.9756 37.0315L24.9756 37.059ZM53.5517 75.1559V72.4893H46.4405C46.0725 72.4893 45.7739 72.1907 45.7739 71.8226V68.6212H39.5516C39.1836 68.6212 38.885 68.3226 38.885 67.9545C38.885 67.5865 39.1836 67.2878 39.5516 67.2878H46.4058C46.7738 67.2948 47.069 67.5899 47.0724 67.9545V71.1108H54.1836C54.5516 71.1108 54.8502 71.4094 54.8502 71.7775V75.8226C54.8468 76.1872 54.5516 76.4823 54.1836 76.4893H48.5204V78.6664H60.1666C60.5347 78.6664 60.8333 78.965 60.8333 79.333C60.8333 79.7011 60.5347 79.9997 60.1666 79.9997H47.8537C47.4891 79.9962 47.194 79.6976 47.187 79.333V75.7775C47.187 75.4094 47.4856 75.1108 47.8537 75.1108L53.5517 75.1559Z" fill="black"/>
</svg>
