<svg width="100" height="100" viewBox="0 0 100 100" fill="none" xmlns="http://www.w3.org/2000/svg">
<path d="M96.3641 8.10348H75.5834C74.581 8.10348 73.7638 8.9207 73.7638 9.92307V21.3718C73.7638 22.3742 74.581 23.1914 75.5834 23.1914H78.2606V28.1874C78.2606 28.437 78.4095 28.6664 78.639 28.7711C78.7235 28.8073 78.808 28.8274 78.8966 28.8274C79.0536 28.8274 79.2066 28.7711 79.3233 28.6624L85.3297 23.1955H96.3641C97.3665 23.1955 98.1837 22.3782 98.1837 21.3759V9.92301C98.1837 8.9206 97.3664 8.10348 96.3641 8.10348ZM96.9116 21.3681C96.9116 21.67 96.666 21.9156 96.3641 21.9156H85.0843C84.9273 21.9156 84.7744 21.976 84.6576 22.0807L79.5328 26.7424V22.5476C79.5328 22.1974 79.247 21.9115 78.8968 21.9115H75.5837C75.2817 21.9115 75.0362 21.666 75.0362 21.364V9.92253C75.0362 9.6206 75.2817 9.37503 75.5837 9.37503H96.3643C96.6663 9.37503 96.9118 9.6206 96.9118 9.92253L96.9116 21.3681ZM93.0147 12.7651C93.0147 13.1153 92.7289 13.4012 92.3787 13.4012L79.5644 13.3971C79.2142 13.3971 78.9283 13.1113 78.9283 12.7611C78.9283 12.4109 79.2142 12.125 79.5644 12.125H92.3787C92.7329 12.129 93.0147 12.4108 93.0147 12.7651ZM93.0147 15.6475C93.0147 15.9978 92.7289 16.2836 92.3787 16.2836H79.5644C79.2142 16.2836 78.9283 15.9978 78.9283 15.6475C78.9283 15.2973 79.2142 15.0115 79.5644 15.0115H92.3787C92.7329 15.0115 93.0147 15.2973 93.0147 15.6475ZM93.0147 18.53C93.0147 18.8802 92.7289 19.166 92.3787 19.166H79.5644C79.2142 19.166 78.9283 18.8802 78.9283 18.53C78.9283 18.1797 79.2142 17.8939 79.5644 17.8939H92.3787C92.7329 17.8939 93.0147 18.1797 93.0147 18.53ZM75.5793 44.2822C69.8708 44.2822 64.4521 46.3997 60.27 50.2604C57.1542 48.642 53.6196 47.7242 49.8756 47.7242C46.1316 47.7242 42.5971 48.6421 39.4853 50.2644C35.3025 46.4037 29.8799 44.2862 24.1718 44.2862C11.741 44.2862 1.60004 54.4028 1.56707 66.8467V66.8869C1.56707 67.2371 1.85289 67.523 2.20313 67.523H27.4483C27.3355 68.4288 27.2752 69.3546 27.2711 70.2886V70.3249C27.2711 70.6751 27.557 70.9609 27.9072 70.9609H71.844C72.0131 70.9609 72.1741 70.8885 72.2949 70.7717C72.4156 70.651 72.4801 70.4859 72.4801 70.3168C72.4801 69.3708 72.4197 68.4368 72.307 67.519H97.5521C97.7212 67.519 97.8822 67.4465 98.003 67.3298C98.1157 67.2131 98.1841 67.048 98.1841 66.8789C98.1801 54.4192 88.0393 44.2822 75.5793 44.2822ZM27.6449 66.25H2.84705C3.1852 54.7848 12.6295 45.5539 24.1677 45.5539C29.4173 45.5539 34.4051 47.4541 38.3104 50.9161C32.8274 54.1971 28.8379 59.7405 27.6459 66.2501L27.6449 66.25ZM28.5507 69.688C28.8889 58.2227 38.3372 48.9918 49.8745 48.9918C61.4201 48.9918 70.8561 58.2147 71.1982 69.688H28.5507ZM72.1093 66.25C70.9177 59.7405 66.9323 54.1974 61.4407 50.916C65.3457 47.4539 70.3335 45.5578 75.5792 45.5578C87.1249 45.5578 96.5609 54.7807 96.903 66.254L72.1093 66.25ZM3.38595 23.1872H14.4204L20.4267 28.6541C20.5475 28.7628 20.7005 28.8192 20.8534 28.8192C20.942 28.8192 21.0266 28.799 21.1111 28.7628C21.3406 28.6622 21.4895 28.4327 21.4895 28.1791V23.1831H24.1667C25.1691 23.1831 25.9863 22.3659 25.9863 21.3635V9.922C25.9863 8.9196 25.169 8.10241 24.1667 8.10241H3.386C2.3836 8.10241 1.56641 8.91963 1.56641 9.922V21.3707C1.56641 22.3731 2.38358 23.1872 3.38595 23.1872ZM2.83845 9.92256C2.83845 9.62063 3.08402 9.37506 3.38595 9.37506H24.1666C24.4685 9.37506 24.7141 9.62063 24.7141 9.92256V21.3713C24.7141 21.6732 24.4685 21.9188 24.1666 21.9188H20.8535C20.5033 21.9188 20.2174 22.2046 20.2174 22.5549V26.7496L15.0926 22.0839C14.9759 21.9792 14.8229 21.9188 14.6659 21.9188H3.38621C3.08428 21.9188 2.83871 21.6733 2.83871 21.3713L2.83845 9.92256ZM6.73529 12.7647C6.73529 12.4145 7.02111 12.1286 7.37136 12.1286H20.1856C20.5358 12.1286 20.8217 12.4145 20.8217 12.7647C20.8217 13.1149 20.5359 13.4008 20.1856 13.4008L7.37136 13.3967C7.01709 13.3967 6.73529 13.1149 6.73529 12.7647ZM6.73529 15.6471C6.73529 15.2969 7.02111 15.0111 7.37136 15.0111H20.1856C20.5358 15.0111 20.8217 15.2969 20.8217 15.6471C20.8217 15.9974 20.5359 16.2832 20.1856 16.2832H7.37136C7.01709 16.2832 6.73529 15.9974 6.73529 15.6471ZM6.73529 18.5296C6.73529 18.1793 7.02111 17.8935 7.37136 17.8935H20.1856C20.5358 17.8935 20.8217 18.1793 20.8217 18.5296C20.8217 18.8798 20.5359 19.1656 20.1856 19.1656H7.37136C7.01709 19.1656 6.73529 18.8798 6.73529 18.5296ZM39.4841 16.0457H46.4889L49.3149 21.3394C49.4236 21.5448 49.641 21.6736 49.8705 21.6736H49.8745C50.108 21.6736 50.3213 21.5488 50.43 21.3435L53.3406 16.0416H60.2649C61.2673 16.0416 62.0845 15.2244 62.0845 14.2221V2.78053C62.0845 1.77813 61.2673 0.960938 60.2649 0.960938H39.4842C38.4818 0.960938 37.6646 1.77816 37.6646 2.78053V14.2293C37.6646 15.2276 38.4817 16.0457 39.4841 16.0457ZM38.9366 2.78104C38.9366 2.47911 39.1822 2.23354 39.4841 2.23354H60.2647C60.5667 2.23354 60.8122 2.47911 60.8122 2.78104V14.2298C60.8122 14.5317 60.5667 14.7773 60.2647 14.7773H52.9662C52.7327 14.7773 52.5193 14.9021 52.4106 15.1074L49.8865 19.7087L47.4349 15.1154C47.3262 14.9101 47.1088 14.7813 46.8753 14.7813L39.4841 14.7773C39.1821 14.7773 38.9366 14.5317 38.9366 14.2298L38.9366 2.78104ZM42.8294 5.61916C42.8294 5.26892 43.1152 4.98309 43.4655 4.98309H56.2797C56.63 4.98309 56.9158 5.26891 56.9158 5.61916C56.9158 5.9694 56.63 6.25522 56.2797 6.25522H43.4696C43.1153 6.25522 42.8294 5.9694 42.8294 5.61916ZM42.8294 8.50159C42.8294 8.15136 43.1152 7.86553 43.4655 7.86553H56.2797C56.63 7.86553 56.9158 8.15135 56.9158 8.50159C56.9158 8.85183 56.63 9.13766 56.2797 9.13766H43.4696C43.1153 9.14168 42.8294 8.85586 42.8294 8.50159ZM42.8294 11.388C42.8294 11.0378 43.1152 10.752 43.4655 10.752H56.2797C56.63 10.752 56.9158 11.0378 56.9158 11.388C56.9158 11.7383 56.63 12.0241 56.2797 12.0241H43.4696C43.1153 12.0241 42.8294 11.7383 42.8294 11.388ZM26.8636 20.2607C26.9683 19.9266 27.3266 19.7414 27.6607 19.8461C32.5279 21.3799 35.8611 26.2027 35.7645 31.5731C35.7081 34.7776 34.4723 37.7686 32.2903 40.0029C30.1446 42.1969 27.3387 43.3926 24.3637 43.3926C24.2953 43.3926 24.2308 43.3926 24.1664 43.3886C21.119 43.3322 18.2769 42.0279 16.1674 39.7091C14.0659 37.4024 12.9388 34.367 12.9991 31.1625C13.0354 29.1939 13.5305 27.2455 14.4363 25.5346C14.6014 25.2246 14.9838 25.1079 15.2938 25.2689C15.6037 25.434 15.7245 25.8164 15.5595 26.1264C14.7463 27.6642 14.3034 29.4113 14.2712 31.1867C14.2189 34.0651 15.2294 36.7865 17.1094 38.8557C18.9813 40.9129 21.4974 42.0723 24.1906 42.1206C26.8878 42.1689 29.4402 41.1021 31.3846 39.1134C33.341 37.1166 34.4442 34.4314 34.4964 31.5531C34.5809 26.7383 31.614 22.4228 27.2823 21.0618C26.9442 20.9491 26.759 20.5949 26.8636 20.2607ZM50.3011 22.7848C44.017 22.6721 38.8235 27.974 38.703 34.6046C38.5822 41.2349 43.5942 46.718 49.8704 46.8304C49.9388 46.8304 50.0032 46.8344 50.0676 46.8344C53.0426 46.8344 55.8486 45.6347 57.9942 43.4447C60.1762 41.2144 61.4121 38.2194 61.4684 35.0149C61.5248 31.8104 60.4016 28.775 58.3002 26.4682C56.1907 24.1494 53.3486 22.8412 50.3011 22.7848ZM57.0884 42.5514C55.144 44.5401 52.5877 45.6028 49.8945 45.5586C44.3188 45.458 39.8704 40.5546 39.9751 34.6252C40.0798 28.7597 44.6087 24.0535 50.1078 24.0535H50.2809C52.9741 24.1018 55.4902 25.2612 57.3621 27.3184C59.2421 29.3836 60.2526 32.1089 60.2003 34.9873C60.1479 37.8698 59.0449 40.5546 57.0884 42.5514ZM67.8735 39.814C65.6915 37.5837 64.4557 34.5886 64.3993 31.3841C64.3067 26.1387 67.3985 21.4808 72.0924 19.7942C72.4225 19.6734 72.7888 19.8465 72.9056 20.1766C73.0263 20.5067 72.8532 20.8731 72.5231 20.9898C68.3404 22.4914 65.5868 26.662 65.6714 31.3595C65.7237 34.238 66.8268 36.923 68.7832 38.9198C70.7276 40.9085 73.284 41.9753 75.9772 41.927C81.5529 41.8264 86.0013 36.923 85.8966 30.9977C85.8644 29.2263 85.4175 27.4752 84.6084 25.9373C84.4433 25.6274 84.5641 25.2409 84.874 25.0799C85.184 24.9148 85.5705 25.0356 85.7315 25.3456C86.6373 27.0565 87.1325 29.0049 87.1687 30.9735C87.2894 37.6038 82.2774 43.0869 76.0013 43.1993C75.9369 43.1993 75.8684 43.2033 75.804 43.2033C72.825 43.2073 70.0192 42.008 67.8735 39.814Z" fill="black"/>
</svg>
