<svg width="100" height="100" viewBox="0 0 100 100" fill="none" xmlns="http://www.w3.org/2000/svg">
<path d="M80.3787 0.305227C80.117 -0.0346133 79.6248 -0.0971135 79.2849 0.164606C78.9411 0.430226 78.8825 0.918517 79.1443 1.25841C83.5974 7.00451 85.9529 13.9034 85.9529 21.2074C85.9529 28.5121 83.5974 35.4064 79.1443 41.1564C78.8786 41.4962 78.9411 41.9884 79.2849 42.2502C79.4255 42.3596 79.5935 42.4143 79.7614 42.4143C79.9958 42.4143 80.2263 42.3088 80.3786 42.1096C85.0466 36.0862 87.5153 28.8596 87.5153 21.2076C87.5153 13.5556 85.0466 6.32423 80.3787 0.305227Z" fill="black"/>
<path d="M74.3355 4.9734C74.0738 4.63356 73.5816 4.57106 73.2378 4.83668C72.898 5.1023 72.8355 5.59059 73.1011 5.93438C76.5269 10.3524 78.3355 15.6336 78.3355 21.2074C78.3355 26.7933 76.5269 32.0744 73.1011 36.4844C72.8355 36.8242 72.898 37.3164 73.2378 37.5821C73.3784 37.6915 73.5503 37.7461 73.7144 37.7461C73.9487 37.7461 74.1792 37.6407 74.3316 37.4454C77.9722 32.7618 79.8941 27.1444 79.8941 21.2114C79.8941 15.2856 77.9722 9.67236 74.3316 4.97736L74.3355 4.9734Z" fill="black"/>
<path d="M61.1986 28.2742C61.3392 28.3836 61.5111 28.4383 61.6751 28.4383C61.9095 28.4383 62.14 28.3328 62.2923 28.1375C63.8431 26.1414 64.6673 23.7469 64.6673 21.2117C64.6673 18.6765 63.847 16.282 62.2923 14.2859C62.0267 13.9461 61.5384 13.8836 61.1985 14.1492C60.8586 14.4148 60.7962 14.9031 61.0618 15.243C62.3977 16.9657 63.1048 19.0282 63.1048 21.2118C63.1048 23.3954 62.3978 25.4579 61.0618 27.1806C60.7962 27.5204 60.8587 28.0125 61.1986 28.2742Z" fill="black"/>
<path d="M67.2186 32.9262C67.3592 33.0356 67.5311 33.0902 67.6951 33.0902C67.9295 33.0902 68.16 32.9848 68.3123 32.7895C70.91 29.4457 72.285 25.4379 72.285 21.2075C72.285 16.9809 70.91 12.9809 68.3123 9.63746C68.0467 9.29762 67.5584 9.23512 67.2146 9.50074C66.8748 9.76637 66.8123 10.2547 67.0779 10.5984C69.4607 13.6687 70.7224 17.3367 70.7224 21.2114C70.7224 25.0903 69.4646 28.7661 67.0779 31.8324C66.8123 32.1723 66.8748 32.6645 67.2146 32.9301L67.2186 32.9262Z" fill="black"/>
<path d="M13.5625 21.2073C13.5625 13.9026 15.918 7.00832 20.3711 1.25832C20.6367 0.918481 20.5742 0.426291 20.2305 0.164521C19.8868 -0.101099 19.3985 -0.0385992 19.1367 0.305141C14.4687 6.32854 12 13.5551 12 21.2071C12 28.8591 14.4688 36.0901 19.1367 42.1091C19.289 42.3084 19.5195 42.4138 19.7539 42.4138C19.9219 42.4138 20.0898 42.3591 20.2305 42.2498C20.5742 41.9842 20.6328 41.4959 20.3711 41.156C15.918 35.4099 13.5625 28.5113 13.5625 21.2073Z" fill="black"/>
<path d="M26.2735 37.5831C26.6133 37.3174 26.6758 36.8291 26.4102 36.4854C22.9844 32.0752 21.1758 26.794 21.1758 21.2084C21.1758 15.6303 22.9844 10.3494 26.4102 5.93536C26.6758 5.59161 26.6133 5.10333 26.2735 4.83766C25.9297 4.57204 25.4415 4.63454 25.1758 4.97438C21.5352 9.66968 19.6133 15.2834 19.6133 21.2084C19.6133 27.142 21.5352 32.7594 25.1758 37.4424C25.332 37.6416 25.5586 37.7432 25.793 37.7432C25.9609 37.7432 26.1289 37.6885 26.2695 37.5791L26.2735 37.5831Z" fill="black"/>
<path d="M37.8355 28.4384C38.0035 28.4384 38.1714 28.3838 38.3121 28.2744C38.6519 28.0088 38.7144 27.5205 38.4488 27.1806C37.1129 25.4579 36.4058 23.3954 36.4058 21.2118C36.4058 19.0282 37.1128 16.9657 38.4488 15.243C38.7144 14.9031 38.6519 14.411 38.3121 14.1492C37.9722 13.8836 37.48 13.9461 37.2183 14.2859C35.6675 16.282 34.8433 18.6765 34.8433 21.2117C34.8433 23.7469 35.6636 26.1414 37.2183 28.1375C37.3706 28.3367 37.6011 28.4384 37.8355 28.4384Z" fill="black"/>
<path d="M31.8197 33.0906C31.9876 33.0906 32.1556 33.0359 32.2962 32.9265C32.6361 32.6609 32.6986 32.1726 32.433 31.8288C30.0502 28.7585 28.7885 25.0866 28.7885 21.2078C28.7885 17.3328 30.0463 13.6648 32.433 10.5948C32.6986 10.255 32.6361 9.7628 32.2962 9.49713C31.9564 9.23541 31.4642 9.29401 31.1985 9.63385C28.6008 12.9777 27.2258 16.9816 27.2258 21.2039C27.2258 25.4344 28.6008 29.4383 31.1985 32.7859C31.3548 32.9851 31.5813 33.0866 31.8157 33.0866L31.8197 33.0906Z" fill="black"/>
<path d="M59.3275 48.6969L50.8627 27.1309C53.6557 26.6113 55.7807 24.1582 55.7807 21.2129C55.7807 17.8926 53.0776 15.1895 49.7573 15.1895C46.437 15.1895 43.7339 17.8926 43.7339 21.2129C43.7339 24.1582 45.8589 26.6113 48.6519 27.1309L43.1324 41.1969C43.1324 41.2008 43.1285 41.2008 43.1285 41.2008C43.1246 41.2047 43.1246 41.2125 43.1246 41.2164L40.1793 48.7242C40.1793 48.7281 40.1754 48.732 40.1754 48.7359L35.4176 60.8529C35.3551 60.9467 35.316 61.0482 35.2965 61.1576L28.6168 78.1776C28.6168 78.1815 28.6129 78.1854 28.6129 78.1893L25.4293 86.2987C25.273 86.7011 25.4683 87.1542 25.8707 87.3104C25.9644 87.3456 26.0621 87.3651 26.1558 87.3651C26.4683 87.3651 26.7613 87.1776 26.8824 86.869L29.9762 78.9901L49.7462 69.0448L69.5472 79.0057L72.6331 86.869C72.7933 87.2714 73.2464 87.4667 73.6448 87.3104C74.0471 87.1542 74.2425 86.6971 74.0862 86.2987L59.3282 48.7007L59.3275 48.6969ZM61.8939 59.5129L51.3279 53.5168L58.0467 49.7043L61.8983 59.5129H61.8939ZM49.7459 52.6184L43.0115 48.798L49.7498 45.4075L56.4842 48.798L49.7459 52.6223V52.6184ZM57.1287 47.3684L51.4842 44.5286L55.2654 42.6224L57.1287 47.3646V47.3684ZM45.2927 21.2124C45.2927 18.7515 47.2927 16.7515 49.7536 16.7515C52.2145 16.7515 54.2145 18.7515 54.2145 21.2124C54.2145 23.6694 52.2145 25.6733 49.7575 25.6733H49.7536H49.7497C47.2927 25.6693 45.2927 23.6694 45.2927 21.2124ZM49.7575 28.5913L54.6911 41.1653L49.7419 43.6575L44.8122 41.177L49.7536 28.591L49.7575 28.5913ZM44.2419 42.6383L48.0075 44.5328L42.3903 47.3609L44.2419 42.6383ZM41.4646 49.7164L48.1599 53.5172L37.6249 59.4977L41.4647 49.7204L41.4646 49.7164ZM30.8276 76.8104L36.4917 62.3764L48.0037 68.1694L30.8276 76.8104ZM37.7143 61.2404L49.7413 54.4123L61.7683 61.2404L49.7413 67.2912L37.7143 61.2404ZM51.4803 68.1662L63.0113 62.3654L68.6871 76.8264L51.4801 68.1702L51.4803 68.1662Z" fill="black"/>
</svg>
