<svg width="100" height="100" viewBox="0 0 100 100" fill="none" xmlns="http://www.w3.org/2000/svg">
<path d="M43.2003 57.0882C42.8057 57.3863 42.2401 57.3118 41.9376 56.9128C40.6662 55.2337 38.5749 54.9225 37.2553 55.4836C35.9576 56.0361 35.3613 57.3293 35.6288 59.0436C35.7033 59.5346 35.3701 59.995 34.8791 60.0695C34.8309 60.0783 34.787 60.0783 34.7388 60.0783C34.3004 60.0783 33.919 59.7582 33.8488 59.3154C33.4542 56.7595 34.467 54.7076 36.5539 53.8221C38.8819 52.8357 41.7491 53.6774 43.3756 55.8257C43.6738 56.2203 43.5992 56.7857 43.2003 57.0882ZM33.52 41.7872C33.0377 41.6733 32.5511 41.9714 32.4371 42.4536C32.2048 43.4225 31.6392 44.1722 30.8456 44.5668C30.131 44.9175 29.3024 44.9482 28.6228 44.6501C28.1669 44.4484 27.6364 44.6501 27.4347 45.106C27.233 45.562 27.4347 46.0925 27.8907 46.2942C28.4299 46.5353 29.0218 46.6537 29.6224 46.6537C30.3107 46.6537 31.0079 46.4958 31.6436 46.1802C32.9281 45.5445 33.8312 44.3739 34.1864 42.8745C34.3003 42.3923 34.0022 41.9056 33.52 41.7916L33.52 41.7872ZM32.1477 31.6422C32.6256 31.7869 33.1254 31.5195 33.2701 31.0416C33.7698 29.3976 35.8786 28.7794 37.6279 29.1345C38.4477 29.3011 41.1046 30.1122 40.745 33.5976C40.6924 34.093 41.0519 34.5358 41.5473 34.5841C41.578 34.5884 41.6087 34.5884 41.6394 34.5884C42.0953 34.5884 42.4855 34.2421 42.5337 33.7818C42.9415 29.8097 40.3373 27.8455 37.9786 27.3721C35.4752 26.868 32.3668 27.8018 31.5426 30.5244C31.3979 30.9979 31.6653 31.502 32.1432 31.6467L32.1477 31.6422ZM79.2123 31.9886C79.8085 36.4955 79.2868 41.0069 77.6603 45.3872C76.2003 49.3154 74.0389 51.9897 71.9477 54.5808C68.8832 58.3731 65.9896 61.9549 65.1961 69.3374C65.1961 69.3505 65.1874 69.3593 65.1874 69.3725C66.1212 70.1704 66.7262 71.341 66.7262 72.665C66.7262 74.708 65.3058 76.4134 63.4031 76.8782C63.9905 77.6191 64.3588 78.5486 64.3588 79.5656C64.3588 81.67 62.8551 83.4325 60.8646 83.8315C60.4832 87.9526 56.7128 89.9167 53.1616 89.9956C53.0871 89.9956 53.0125 90 52.938 90C49.1413 90 45.3139 87.9087 44.7747 83.8271C42.8019 83.415 41.3113 81.6613 41.3113 79.57C41.3113 78.5529 41.6795 77.6234 42.267 76.8826C40.3643 76.4178 38.9482 74.7124 38.9482 72.6694C38.9482 71.3672 39.5357 70.2099 40.4432 69.412C40.4432 69.4032 40.4388 69.3944 40.4388 69.3857C40.2897 68.3335 40.0618 66.799 39.5444 65.2339C37.9529 66.0493 36.4053 66.4089 34.963 66.4089C32.179 66.4089 29.794 65.0936 28.2772 63.2566C26.7866 61.4503 26.221 59.2802 26.5104 57.2021H26.5016C24.0333 57.2021 21.8062 55.7992 20.618 53.4142C19.4168 50.9942 19.636 48.2804 21.1135 46.3469C18.4654 44.1548 17.4 40.7658 18.3909 37.4514C18.689 36.4562 19.1493 35.5487 19.7368 34.7508C17.3035 32.5631 16.3522 28.8891 17.4571 25.5089C18.5356 22.2033 21.2319 20.1076 24.7698 19.7613C23.9675 14.3951 26.1158 10.2344 30.6447 8.51984C33.1085 7.58601 35.8355 7.56409 38.1504 8.26556C40.4257 3.9866 44.8055 2.41274 48.1462 3.10534C51.0091 3.70158 52.8767 5.8717 53.2099 8.853C61.952 9.05467 69.7163 13.1276 74.6086 20.1247C77.0594 23.6321 78.6552 27.7401 79.2208 32.0014L79.2123 31.9886ZM42.1265 68.4907C42.4992 68.3855 42.8894 68.3109 43.2971 68.3109H51.4736V9.721C51.4517 7.11681 50.1057 5.33688 47.7734 4.85461C45.2218 4.32412 41.7364 5.61746 39.8512 8.94063C41.1357 9.60702 42.1923 10.5365 42.8456 11.6939C43.0911 12.1279 42.9377 12.6759 42.5036 12.9215C42.0696 13.167 41.5216 13.0136 41.276 12.5795C39.7503 9.86568 35.0768 8.75209 31.2757 10.1902C27.3079 11.6939 25.642 15.416 26.7117 20.4053C26.7687 20.6727 26.703 20.949 26.532 21.1594C26.361 21.3698 26.1023 21.4926 25.8305 21.4926C21.1526 21.4926 19.6093 24.6798 19.1578 26.0521C18.2678 28.7747 19.0175 31.7121 20.951 33.4263C22.6915 31.8699 25.059 30.958 27.7377 30.958C28.2331 30.958 28.6365 31.3614 28.6365 31.8568C28.6365 32.3522 28.2331 32.7555 27.7377 32.7555C23.2527 32.7555 20.8546 35.443 20.1049 37.9552C19.2499 40.818 20.3591 43.7598 22.9326 45.4521C23.165 45.6056 23.314 45.8555 23.336 46.1317C23.3579 46.4079 23.2527 46.6797 23.0466 46.8682C21.3017 48.4641 21.3718 50.8972 22.218 52.6027C22.9808 54.1372 24.6205 55.5928 26.9792 55.3472C27.33 54.5054 27.8341 53.7076 28.5049 52.9885C28.8425 52.6246 29.4125 52.6027 29.7763 52.9402C30.1402 53.2778 30.1621 53.8478 29.8246 54.2116C27.3782 56.8466 27.9789 60.0733 29.6536 62.0987C31.508 64.3434 35.0154 65.5754 38.8516 63.5543C38.4526 62.752 37.9616 61.9848 37.3215 61.3183C36.9795 60.9588 36.9883 60.3889 37.3478 60.047C37.7073 59.705 38.2772 59.7138 38.6192 60.0733C41.0831 62.6468 41.7758 66.2287 42.1134 68.4952L42.1265 68.4907ZM59.0313 83.914H46.6193C47.2199 86.9259 50.2844 88.2544 53.121 88.193C55.8655 88.1316 58.6061 86.7769 59.0313 83.914ZM62.5605 79.5649C62.5605 78.1576 61.4163 77.0134 60.009 77.0134H45.6598C44.2525 77.0134 43.1082 78.1576 43.1082 79.5649C43.1082 80.9722 44.2525 82.1165 45.6598 82.1165H60.009C61.4163 82.1165 62.5605 80.9722 62.5605 79.5649ZM64.9236 72.6599C64.9236 71.2526 63.7794 70.1083 62.3721 70.1083H43.2922C42.7705 70.1083 42.2838 70.2662 41.8761 70.538C41.8717 70.5424 41.8673 70.5424 41.863 70.5467C41.1878 71.0071 40.7406 71.7831 40.7406 72.6599C40.7406 74.0672 41.8848 75.2115 43.2922 75.2115H62.3721C63.7794 75.2115 64.9236 74.0672 64.9236 72.6599ZM73.1264 21.1419C68.5888 14.6533 61.39 10.8654 53.2743 10.6417V68.3113H54.5676V34.4344C54.5676 32.3169 56.558 30.5982 59.0088 30.5982C61.4595 30.5982 63.4499 32.3212 63.4499 34.4344C63.4499 36.5519 61.4595 38.2706 59.0088 38.2706C58.0179 38.2706 57.106 37.9768 56.3651 37.499V68.3108H62.3714C62.7616 68.3108 63.1343 68.3809 63.4938 68.4774C64.4495 61.0199 67.5448 57.1708 70.5479 53.4525C72.6392 50.8615 74.6165 48.4195 75.9711 44.7674C78.9392 36.7707 77.8739 27.9412 73.1258 21.1454L73.1264 21.1419ZM59.0095 36.4686C60.4651 36.4686 61.6532 35.5523 61.6532 34.43C61.6532 33.3077 60.4695 32.3914 59.0095 32.3914C57.554 32.3914 56.3658 33.3077 56.3658 34.43C56.3658 35.5523 57.5496 36.4686 59.0095 36.4686ZM42.7052 21.7378C43.1348 21.8255 43.582 21.8693 44.0336 21.8693C46.2081 21.8693 48.4572 20.8435 49.1412 18.59C49.2859 18.1165 49.0184 17.6123 48.5405 17.4676C48.0627 17.3229 47.5629 17.5904 47.4182 18.0682C46.9184 19.7123 44.8096 20.3305 43.0603 19.9753C42.2405 19.8087 39.5836 18.9977 39.9432 15.5122C39.9959 15.0168 39.6364 14.574 39.1409 14.5258C38.6455 14.4775 38.2027 14.8327 38.1545 15.3281C37.7468 19.3002 40.3509 21.2643 42.7097 21.7377L42.7052 21.7378ZM45.7654 38.5338C43.9241 38.1567 42.0432 39.5246 41.1927 41.8613C40.3773 44.106 40.6666 46.9733 43.1524 48.3148C43.2883 48.3893 43.433 48.4244 43.5777 48.4244C43.8978 48.4244 44.209 48.2534 44.3712 47.9509C44.608 47.5125 44.4458 46.9689 44.0074 46.7322C42.4641 45.8992 42.3326 43.9964 42.8806 42.4751C43.3322 41.23 44.345 40.0813 45.4015 40.2962C45.8882 40.397 46.3661 40.0813 46.4625 39.5947C46.5633 39.1081 46.2477 38.6302 45.761 38.5337L45.7654 38.5338ZM64.6309 5.33246C64.7581 5.39822 64.8984 5.42891 65.0299 5.42891C65.3587 5.42891 65.6787 5.24478 65.8366 4.92912L67.6429 1.299C67.8621 0.856196 67.6823 0.312552 67.2395 0.0933689C66.7967 -0.125837 66.2531 0.0539108 66.0339 0.496707L64.2276 4.12683C64.0084 4.57402 64.1881 5.11328 64.6309 5.33246ZM81.0408 11.2993L77.8623 13.8158C77.4721 14.1227 77.4063 14.6883 77.7132 15.0785C77.893 15.3021 78.156 15.4205 78.4191 15.4205C78.6164 15.4205 78.8137 15.3591 78.9759 15.2275L82.1544 12.711C82.5446 12.4041 82.6103 11.8386 82.3034 11.4484C81.9965 11.0582 81.431 10.9924 81.0408 11.2993ZM85.2365 29.8091C85.3022 29.8091 85.3724 29.8003 85.4425 29.7872L89.3926 28.8709C89.8749 28.7569 90.1774 28.2746 90.0678 27.7923C89.9538 27.3101 89.4715 27.0076 88.9893 27.1172L85.0392 28.0335C84.5569 28.1475 84.2544 28.6297 84.364 29.112C84.4604 29.5285 84.8287 29.8091 85.2408 29.8091H85.2365ZM89.1909 42.7385L85.2408 41.8222C84.7586 41.7082 84.2719 42.0108 84.1623 42.4974C84.0483 42.9797 84.3508 43.4663 84.8375 43.5759L88.7876 44.4922C88.8577 44.5097 88.9235 44.5141 88.9936 44.5141C89.4014 44.5141 89.774 44.2335 89.8705 43.817C89.9845 43.3348 89.682 42.8481 89.1953 42.7385H89.1909Z" fill="black"/>
</svg>
