<svg width="100" height="100" viewBox="0 0 100 100" fill="none" xmlns="http://www.w3.org/2000/svg">
<path d="M59.7838 58.0199V48.3611C59.7838 47.9807 59.4754 47.6756 59.0983 47.6756H59.0298C57.8542 47.6756 56.8979 46.7228 56.8979 45.5506C56.8979 44.3783 57.8541 43.4187 59.0298 43.4187H59.0983C59.4754 43.4187 59.7838 43.1136 59.7838 42.7332V33.0744C59.7838 32.6939 59.4754 32.3889 59.0983 32.3889H50.0775C49.7861 30.7506 48.35 29.5029 46.6294 29.5029C44.926 29.5029 43.5001 30.7265 43.1882 32.3889H33.3513C32.9743 32.3889 32.6658 32.6939 32.6658 33.0744V49.1735L29.1047 53.4167L29.0121 53.1356C28.2889 50.9386 25.9823 49.7288 23.7646 50.3902C22.7673 50.6747 22.1674 51.6893 22.4039 52.7004C22.7364 54.0988 23.1785 55.7474 23.7166 57.6016C24.7689 61.1901 23.1031 63.6408 22.7707 64.0864C22.1469 63.7333 21.739 63.538 21.6705 63.5037C21.4271 63.3906 21.1358 63.4249 20.9301 63.6031L9.70514 73.2373C9.41724 73.4841 9.38639 73.9159 9.63317 74.2039C9.87994 74.4918 10.3118 74.5261 10.5997 74.2758L21.4685 64.9391C23.0589 65.7857 29.0672 69.2611 31.8231 74.8681L25.8113 84.4479C25.609 84.7701 25.7084 85.1917 26.0272 85.3939C26.1403 85.4659 26.2671 85.5001 26.3905 85.5001C26.6201 85.5001 26.8429 85.387 26.9732 85.178L33.1872 75.2796C33.3105 75.0843 33.3277 74.8375 33.2283 74.6284C32.9712 74.0732 32.6867 73.5419 32.3817 73.0278L32.7073 72.6748L36.4569 69.3193C36.6866 69.1239 42.0986 64.5243 44.2407 62.0017C45.0702 61.0214 45.1525 59.6333 44.4395 58.629C43.9631 57.9641 43.2604 57.5631 42.5099 57.4774C42.6538 56.7747 42.527 56.0344 42.1157 55.4312C41.6393 54.7389 40.9263 54.3241 40.1586 54.2384C40.3025 53.5324 40.1757 52.7921 39.7644 52.1923C39.3703 51.6199 38.815 51.236 38.198 51.0715L41.2142 47.4795L45.5808 51.9866C45.7111 52.1202 45.8893 52.1957 46.0744 52.1957C46.2595 52.1957 46.4377 52.1202 46.5679 51.9866L51.7845 46.6055C52.4906 45.8788 52.8711 44.9157 52.8574 43.9012C52.8403 42.8867 52.429 41.9373 51.7023 41.2346C50.9723 40.5251 50.0126 40.1618 48.9912 40.1583C47.9768 40.1755 47.0307 40.5868 46.3316 41.3168L46.0779 41.5773L45.8277 41.3168C44.371 39.8122 41.9581 39.7745 40.4466 41.2346C40.2033 41.4745 40.0113 41.7384 39.8468 42.016C39.0756 42.0434 38.3525 42.3896 37.8521 42.9826L34.0372 47.5274V33.7491H43.8127C44.1897 33.7491 44.4982 33.3755 44.4982 32.9951C44.4982 31.8195 45.4544 30.8632 46.6301 30.8632C47.8057 30.8632 48.762 31.8194 48.762 33.0636C48.762 33.444 49.0705 33.7491 49.4475 33.7491H58.414V42.0915C56.7756 42.3829 55.528 43.819 55.528 45.5396C55.528 47.2602 56.7756 48.6894 58.414 48.9808V57.3232H46.4072C46.0302 57.3232 45.7217 57.6283 45.7217 58.0087C45.7217 58.3892 46.0302 58.6942 46.4072 58.6942H59.0993C59.4763 58.6942 59.7848 58.3892 59.7848 58.0087L59.7838 58.0199ZM44.8403 42.2779L45.5806 43.0456C45.7109 43.1793 45.8857 43.2547 46.0707 43.2547C46.2387 43.2753 46.4341 43.1793 46.5643 43.0456L47.3149 42.2744C47.7639 41.8083 48.3637 41.5478 49.0115 41.5341C49.6559 41.5478 50.2762 41.7672 50.7459 42.223C51.212 42.672 51.4725 43.2787 51.4828 43.9265C51.493 44.5743 51.2497 45.1878 50.7973 45.654L46.0742 50.5278L42.088 46.4115C42.8455 45.3558 42.8352 43.9162 42.0229 42.9771C41.807 42.7269 41.5499 42.5349 41.2723 42.3807C41.3169 42.3293 41.3546 42.2745 41.4025 42.2265C42.3691 41.2942 43.9114 41.3181 44.8403 42.2779ZM38.9005 43.8751C39.1576 43.57 39.5346 43.3918 39.9356 43.3884C40.0316 43.3815 40.1241 43.3918 40.2132 43.4089C40.2269 43.4089 40.2372 43.4158 40.2509 43.4123C40.5388 43.474 40.7822 43.642 40.9844 43.875C41.4094 44.3652 41.3786 45.1535 40.9159 45.7087L36.138 51.4018C36.138 51.4018 36.1346 51.4018 36.1346 51.4052L34.1398 53.6125C33.8862 53.8935 33.9067 54.3288 34.1878 54.5825C34.318 54.7024 34.4826 54.7607 34.6471 54.7607C34.8356 54.7607 35.0207 54.6853 35.1578 54.5345L37.036 52.454C37.533 52.2792 38.2082 52.3649 38.6332 52.9784C38.9622 53.4617 38.904 54.1471 38.5029 54.627C38.4995 54.6304 38.4995 54.6339 38.4961 54.6339L36.7995 56.2859C36.5287 56.5498 36.5219 56.9851 36.7858 57.2559C36.9194 57.393 37.0977 57.465 37.2759 57.465C37.4473 57.465 37.6221 57.3998 37.7557 57.2696L39.37 55.6964C39.8705 55.5181 40.556 55.6038 40.9809 56.2208C41.3065 56.6972 41.2483 57.3929 40.837 57.8796C40.8335 57.8831 40.8267 57.8933 40.8164 57.9036L39.4968 59.1992C39.2261 59.4632 39.2226 59.8984 39.4866 60.1692C39.6202 60.3063 39.7985 60.3749 39.9767 60.3749C40.1515 60.3749 40.3229 60.3098 40.4565 60.1795L41.7213 58.9388C42.2114 58.7605 42.8866 58.8394 43.3185 59.4392C43.6612 59.9224 43.6098 60.6319 43.1916 61.1289C41.1214 63.5658 35.6204 68.241 35.5518 68.2992L31.744 71.7095L31.6103 71.8535C29.2693 68.5117 26.0783 66.1399 23.943 64.7997C24.5223 63.9771 26.1812 61.1666 25.0261 57.2284C24.4949 55.3982 24.0595 53.7735 23.7339 52.3991C23.6654 52.101 23.8436 51.8028 24.1452 51.7171C25.6534 51.2715 27.2162 52.0872 27.7064 53.5782L28.1862 55.0246C28.2651 55.261 28.4638 55.4358 28.7072 55.4838C28.9505 55.5284 29.2008 55.4427 29.3618 55.2508L38.8969 43.8854L38.9005 43.8751Z" fill="black"/>
<path d="M94.912 0.5H43.4172C43.0402 0.5 42.7317 0.805048 42.7317 1.18549V26.9329C42.7317 27.3133 43.0402 27.6184 43.4172 27.6184H53.8779C54.255 27.6184 54.5634 27.3133 54.5634 26.9329V26.8609C54.5634 25.6853 55.5197 24.7324 56.6953 24.7324C57.871 24.7324 58.8272 25.6887 58.8272 26.8609V26.9329C58.8272 27.3133 59.1357 27.6184 59.5127 27.6184H68.4827V35.9574C66.8444 36.2487 65.5933 37.6849 65.5933 39.4055C65.5933 41.126 66.8444 42.5622 68.4827 42.8535V51.8779C68.4827 52.2583 68.7912 52.5634 69.1682 52.5634H94.9156C95.2926 52.5634 95.6011 52.2583 95.6011 51.8779L95.5977 1.18598C95.5977 0.805531 95.289 0.5 94.912 0.5ZM94.2265 26.2474H84.451C84.074 26.2474 83.7655 26.5524 83.7655 26.9329V27.0049C83.7655 28.1804 82.8093 29.1368 81.6336 29.1368C80.458 29.1368 79.5017 28.1805 79.5017 27.0049V26.9329C79.5017 26.5524 79.1932 26.2474 78.8162 26.2474H69.8462V17.9084C71.4845 17.617 72.7356 16.1809 72.7356 14.4603C72.7356 12.7397 71.4845 11.3036 69.8462 11.0123L69.8496 1.87116H94.2256L94.2265 26.2474ZM56.6925 23.358C54.972 23.358 53.5358 24.6056 53.2445 26.2474H44.1034L44.1 1.87143H68.4759V11.6469C68.4759 12.0274 68.7844 12.3324 69.1614 12.3324H69.2334C70.409 12.3324 71.3653 13.2886 71.3653 14.4643C71.3653 15.6399 70.4091 16.5962 69.2334 16.5962H69.1614C68.7844 16.5962 68.4759 16.9012 68.4759 17.2817V26.2517H60.1369C59.8455 24.6099 58.4094 23.3623 56.6888 23.3623L56.6925 23.358ZM94.2265 51.1893H69.8505V42.2193C69.8505 41.8388 69.542 41.5338 69.165 41.5338H69.093C67.9174 41.5338 66.9611 40.5776 66.9611 39.4019C66.9611 38.2263 67.9174 37.2734 69.093 37.2734H69.165C69.542 37.2734 69.8505 36.9684 69.8505 36.5879V27.6179H78.1895C78.4809 29.2597 79.917 30.5073 81.6376 30.5073C83.3581 30.5073 84.7943 29.2597 85.0856 27.6179H94.2267L94.2265 51.1893Z" fill="black"/>
<path d="M67.4922 67.202C65.2884 66.3588 63.5404 64.6108 62.6972 62.407C62.5944 62.1431 62.3408 61.9648 62.0563 61.9648C61.7718 61.9648 61.5182 62.1396 61.4154 62.407C60.5722 64.6108 58.8242 66.3589 56.6204 67.202C56.3565 67.3014 56.1782 67.5584 56.1782 67.8429C56.1782 68.1274 56.353 68.381 56.6204 68.4839C58.8242 69.327 60.5722 71.075 61.4154 73.2789C61.5182 73.5428 61.7718 73.721 62.0563 73.721C62.3408 73.721 62.5944 73.5462 62.6972 73.2789C63.5404 71.075 65.2884 69.327 67.4922 68.4839C67.7561 68.3845 67.9344 68.1274 67.9344 67.8429C67.9344 67.5584 67.7596 67.3048 67.4922 67.202ZM62.0563 71.4383C61.1994 69.944 59.9553 68.6998 58.4608 67.8429C59.9552 66.986 61.1994 65.7418 62.0563 64.2474C62.9131 65.7418 64.1573 66.986 65.6517 67.8429C64.1574 68.6997 62.9132 69.9439 62.0563 71.4383Z" fill="black"/>
<path d="M19.5757 29.1912C21.2655 29.8356 22.6021 31.1757 23.2499 32.8655C23.3528 33.1294 23.6064 33.3076 23.8909 33.3076C24.1754 33.3076 24.429 33.1328 24.5318 32.8655C25.1762 31.1757 26.5163 29.8391 28.2026 29.1912C28.4666 29.0918 28.6448 28.8348 28.6448 28.5503C28.6448 28.2658 28.47 28.0122 28.2026 27.9094C26.5129 27.265 25.1762 25.9249 24.5318 24.2351C24.429 23.9712 24.1754 23.793 23.8909 23.793C23.6064 23.793 23.3528 23.9678 23.2499 24.2351C22.6056 25.9249 21.2655 27.2616 19.5757 27.9094C19.3118 28.0088 19.1335 28.2658 19.1335 28.5503C19.1335 28.8348 19.3083 29.0884 19.5757 29.1912ZM23.8875 26.0242C24.5216 27.0525 25.3887 27.9197 26.4135 28.5537C25.3853 29.1878 24.5181 30.0549 23.8875 31.0832C23.2534 30.0549 22.3863 29.1877 21.358 28.5537C22.3863 27.9196 23.2535 27.0525 23.8875 26.0242Z" fill="black"/>
</svg>
