<svg width="100" height="100" viewBox="0 0 100 100" fill="none" xmlns="http://www.w3.org/2000/svg">
<path d="M29.262 71.1047H26.0432C24.9338 71.0969 24.0354 70.2024 24.0315 69.093V67.6868C24.0354 67.2923 23.7932 66.9368 23.426 66.7923L21.4065 65.9485C21.0471 65.8079 20.637 65.8939 20.3635 66.1673L19.3205 67.2103L19.3244 67.2064C18.5197 67.9603 17.2697 67.9603 16.4689 67.2064L14.1994 64.9369C13.8166 64.558 13.6057 64.0463 13.6057 63.5111C13.6057 62.972 13.8166 62.4603 14.1994 62.0814L15.1877 61.0931C15.4611 60.8197 15.5432 60.4095 15.3947 60.0501L14.5822 57.9563C14.4338 57.5891 14.0744 57.3508 13.676 57.3547H12.2932C11.176 57.3547 10.2698 56.4485 10.2698 55.3313V52.1243C10.2698 51.0071 11.176 50.1048 12.2932 50.1048H13.6877C14.0705 50.1087 14.4221 49.8861 14.5822 49.5423L15.4142 47.5111H15.4181C15.5627 47.1518 15.4806 46.7416 15.2072 46.4681L14.2189 45.4251C13.84 45.0501 13.6252 44.5345 13.6252 43.9993C13.6252 43.4642 13.84 42.9485 14.2189 42.5735L16.4884 40.304V40.3001C17.2931 39.5462 18.5431 39.5462 19.3439 40.3001L20.3869 41.2884V41.2923C20.6604 41.5619 21.0666 41.6478 21.426 41.5111L23.4455 40.6673H23.4494C23.8166 40.5189 24.0549 40.1634 24.051 39.7689V38.3627C24.0588 37.265 24.9416 36.3705 26.0432 36.3549H29.262C30.3597 36.3705 31.2464 37.265 31.2503 38.3627V39.7689C31.2464 40.1634 31.4886 40.5189 31.8558 40.6673L33.8753 41.5111C34.2346 41.6478 34.6448 41.5619 34.9183 41.2923L35.9065 40.304V40.3001C36.7073 39.5462 37.9573 39.5462 38.762 40.3001L41.0315 42.5696V42.5735C41.8167 43.3626 41.8167 44.636 41.0315 45.4251L39.9885 46.4681C39.7151 46.7416 39.6331 47.1517 39.7815 47.5111L40.6135 49.5423C40.7698 49.9017 41.1253 50.1361 41.5198 50.1361H42.9182C44.0315 50.1361 44.9377 51.0384 44.9377 52.1556V55.3626C44.9377 56.4798 44.0314 57.386 42.9182 57.386H41.6682C41.2697 57.3821 40.9104 57.6204 40.7619 57.9875L39.8752 59.9564C39.7268 60.3157 39.8088 60.7259 40.0822 60.9994L41.1252 61.9876C41.9104 62.7767 41.9104 64.054 41.1252 64.8431L38.8557 67.1126C38.0511 67.8665 36.801 67.8665 36.0002 67.1126L35.012 66.0696V66.0735C34.7385 65.8001 34.3284 65.7142 33.969 65.8548L31.9495 66.6985C31.5823 66.8431 31.3401 67.1985 31.344 67.5931V68.9993C31.3674 69.5618 31.1565 70.1048 30.762 70.5071C30.3674 70.9055 29.8206 71.1203 29.262 71.1047ZM21.0315 64.8547C21.2971 64.8547 21.5588 64.9055 21.801 65.011L23.8205 65.843H23.8244C24.5666 66.1672 25.0549 66.8938 25.0744 67.7063V69.1125C25.0744 69.6477 25.508 70.0812 26.0432 70.0812H29.262C29.7971 70.0812 30.2307 69.6477 30.2307 69.1125V67.6867C30.2463 66.8742 30.7346 66.1476 31.4807 65.8234L33.5002 64.9914V64.9875C34.2541 64.671 35.1252 64.8468 35.6994 65.425L36.6877 66.468C37.0822 66.8117 37.6682 66.8117 38.0627 66.468L40.3322 64.1242C40.5197 63.9445 40.6252 63.6945 40.6252 63.4367C40.6252 63.1789 40.5197 62.9289 40.3322 62.7492L39.3439 61.7062C38.7814 61.1241 38.6134 60.2648 38.9064 59.5109L39.7502 57.4289V57.425C40.1095 56.7023 40.8635 56.2648 41.6682 56.3117H43.0627C43.6017 56.3117 44.0431 55.8742 44.0431 55.3312V52.1242C44.0431 51.8664 43.9377 51.6164 43.7541 51.4328C43.5705 51.2492 43.3205 51.1437 43.0627 51.1437H41.6682C40.8518 51.1476 40.1135 50.6593 39.801 49.9054L38.9572 47.8859C38.6486 47.132 38.8205 46.2648 39.3947 45.6867L40.383 44.6437H40.3869C40.5705 44.464 40.676 44.2179 40.676 43.9562C40.676 43.6984 40.5705 43.4523 40.3869 43.2687L38.1174 40.9992H38.1135C37.7229 40.6555 37.133 40.6555 36.7385 40.9992L35.7502 41.9875C35.176 42.5695 34.3049 42.7414 33.551 42.425L31.5315 41.593C30.762 41.3117 30.2385 40.5891 30.2073 39.7688V38.3626C30.2073 37.8274 29.7737 37.3938 29.2386 37.3938H26.0433C25.5081 37.3938 25.0745 37.8274 25.0745 38.3626V39.7688C25.0706 40.5891 24.5784 41.3235 23.8245 41.636L21.805 42.468H21.8011C21.0511 42.7844 20.18 42.6125 19.6058 42.0305L18.6175 41.0422H18.6136C18.2191 40.6907 17.6253 40.6907 17.2308 41.0422L14.9691 43.2922C14.7816 43.4719 14.6801 43.718 14.6801 43.9797C14.6801 44.2375 14.7816 44.4836 14.9691 44.6672L16.0121 45.7102V45.7063C16.5863 46.2844 16.7582 47.1516 16.4496 47.9055L15.6059 49.925C15.2934 50.6828 14.5551 51.1711 13.7387 51.1672H12.2934C11.7504 51.1672 11.3129 51.6047 11.3129 52.1438V55.3547C11.3129 55.8937 11.7504 56.3312 12.2934 56.3312H13.6879C14.5043 56.3312 15.2387 56.8195 15.5512 57.5734L16.3949 59.6554C16.6918 60.4093 16.5199 61.2687 15.9574 61.8546L14.9144 62.8976L14.9183 62.8937C14.7308 63.0773 14.6254 63.3234 14.6254 63.5812C14.6254 63.8429 14.7308 64.089 14.9183 64.2687L17.18 66.5382L17.1761 66.5421C17.5707 66.8937 18.1683 66.8937 18.5628 66.5421L19.5511 65.4991C19.93 65.0773 20.4652 64.839 21.0316 64.8312L21.0315 64.8547ZM83.3325 69.718H55.9065C53.4768 69.7141 51.2659 68.3274 50.1956 66.1477C49.1292 63.968 49.3909 61.3704 50.8753 59.4485L63.0633 43.6985C64.2 42.2297 64.8172 40.429 64.8133 38.5735V23.7375H64.2195C62.5398 23.7375 61.1726 22.3781 61.1687 20.6984V20.4484C61.1726 18.7648 62.5398 17.4054 64.2195 17.4054H75.0005C75.8208 17.3859 76.6138 17.6984 77.2036 18.2687C77.7896 18.8429 78.1216 19.6281 78.1255 20.4484V20.6984C78.1216 21.5187 77.7896 22.3039 77.2036 22.8742C76.6138 23.4484 75.8208 23.757 75.0005 23.7375H74.4068V38.5735C74.4107 40.4251 75.0279 42.2258 76.1568 43.6985L79.2818 47.7493L88.3013 59.4053C89.8052 61.3194 90.0865 63.9209 89.0317 66.1084C87.977 68.2998 85.7661 69.7024 83.3325 69.718ZM60.5745 48.605L51.6995 60.062C50.4612 61.6636 50.2347 63.8276 51.1214 65.6479C52.0042 67.4721 53.8402 68.6362 55.8636 68.6557H83.3326C85.356 68.6362 87.1959 67.4721 88.0787 65.6479C88.9615 63.8276 88.7388 61.6635 87.5005 60.062L78.6138 48.605H60.5745ZM61.387 47.562H77.887L75.3753 44.3315C74.1019 42.6831 73.4105 40.6557 73.4065 38.5737V23.7377H65.8557V38.5737C65.8518 40.6557 65.1565 42.6831 63.8869 44.3315L61.387 47.562ZM64.219 18.449C63.1135 18.449 62.2151 19.3396 62.2073 20.449V20.699C62.2151 21.8045 63.1135 22.699 64.219 22.699H75C75.5429 22.7185 76.0742 22.5193 76.4688 22.1404C76.8633 21.7654 77.0821 21.242 77.0821 20.699V20.449C77.0821 19.9021 76.8633 19.3826 76.4688 19.0037C76.0743 18.6248 75.543 18.4256 75 18.449L64.219 18.449ZM79.168 65.168C78.2188 65.168 77.3633 64.5938 77 63.7188C76.6367 62.8438 76.8398 61.836 77.5078 61.1641C78.1797 60.4961 79.1875 60.293 80.0625 60.6563C80.9375 61.0196 81.5117 61.8751 81.5117 62.8243C81.5039 64.1134 80.4571 65.1601 79.168 65.168ZM79.168 61.5235V61.5196C78.6406 61.5196 78.1641 61.8399 77.9649 62.3243C77.7618 62.8126 77.875 63.3712 78.2461 63.7423C78.6172 64.1173 79.1797 64.2267 79.6641 64.0275C80.1524 63.8243 80.4688 63.3478 80.4688 62.8244C80.4727 62.4767 80.336 62.1408 80.0899 61.8908C79.8477 61.6447 79.5157 61.5041 79.168 61.5002L79.168 61.5235ZM59.523 62.5665L59.5191 62.5626C59.2339 62.5626 58.9995 62.3282 58.9995 62.0431V61.0001H57.9565C57.6714 61.0001 57.437 60.7657 57.437 60.4806C57.437 60.1915 57.6714 59.9571 57.9565 59.9571H58.9995V58.918C58.9995 58.629 59.2339 58.3946 59.5191 58.3946C59.6597 58.3946 59.7925 58.4493 59.8902 58.5469C59.9878 58.6446 60.0425 58.7774 60.0425 58.918V59.961H61.0855L61.0816 59.9571C61.2222 59.9571 61.355 60.0118 61.4527 60.1094C61.5503 60.2071 61.605 60.3399 61.605 60.4805C61.605 60.6172 61.5503 60.7501 61.4527 60.8477C61.355 60.9454 61.2222 61.0001 61.0816 61.0001H60.0386V62.0431H60.0425C60.0425 62.1876 59.98 62.3282 59.8745 62.4259C59.7691 62.5235 59.6245 62.5743 59.48 62.5626L59.523 62.5665ZM27.691 62.3907L27.6871 62.3868C24.1832 62.4025 21.0152 60.3048 19.6637 57.0743C18.3082 53.8438 19.0348 50.1173 21.5035 47.629C23.9723 45.1446 27.6949 44.3907 30.9332 45.7228C34.1754 47.0548 36.2926 50.2072 36.3004 53.7072C36.3082 56.008 35.398 58.215 33.7731 59.8439C32.1481 61.4689 29.945 62.3869 27.6442 62.3869L27.691 62.3907ZM27.691 46.1287L27.6871 46.1248C24.6012 46.1092 21.8082 47.9568 20.6207 50.8045C19.4293 53.6522 20.0777 56.9373 22.2574 59.1209C24.4371 61.3045 27.7222 61.9568 30.5699 60.7693C33.4215 59.5818 35.273 56.7927 35.2613 53.7068C35.2417 49.5154 31.8394 46.1248 27.6441 46.1248L27.691 46.1287ZM70.136 58.9177C68.7844 58.9216 67.5657 58.113 67.0462 56.8669C66.5267 55.6208 66.8118 54.1833 67.7649 53.2302C68.7142 52.2732 70.1516 51.988 71.3977 52.5037C72.6438 53.0193 73.4563 54.2342 73.4563 55.5818C73.4563 57.4216 71.9719 58.9099 70.136 58.9177ZM70.136 53.2927C69.2063 53.2888 68.3665 53.8435 68.011 54.6989C67.6516 55.5544 67.8469 56.5427 68.4993 57.1989C69.1555 57.8591 70.1399 58.0544 70.9993 57.7029C71.8547 57.3474 72.4173 56.5114 72.4173 55.5817C72.4212 54.9724 72.1829 54.3865 71.7571 53.9529C71.3274 53.5193 70.7454 53.2732 70.136 53.2693L70.136 53.2927ZM17.23 33.4997C15.1792 33.5036 13.2847 32.4059 12.2691 30.6247L12.0191 30.199C10.4527 27.4685 11.3824 23.9881 14.105 22.406L18.5308 19.8865L21.7066 18.074L24.9996 16.1248L44.3546 5.08176C43.8546 3.69506 44.4249 2.14816 45.7062 1.41766L45.9132 1.29266H45.9171C47.3819 0.460629 49.2413 0.968438 50.0812 2.42546L55.4445 11.8005H55.4484C56.2883 13.2614 55.7844 15.1286 54.3234 15.9685L54.1164 16.0817H54.1125C53.4094 16.488 52.5734 16.5974 51.7922 16.3864C51.1828 16.2067 50.6477 15.8435 50.261 15.3434L20.054 32.6054H20.0501C19.1985 33.125 18.2259 33.4062 17.2298 33.4257L17.23 33.4997ZM15.4488 22.8747L14.6675 23.3122C12.4292 24.5895 11.6519 27.4372 12.9253 29.6755L13.1753 30.113C14.4565 32.3474 17.3042 33.1208 19.5425 31.8435L44.3945 17.5735L33.8325 12.2923L32.4263 13.0814L33.9575 15.7572V15.7611C34.1021 16.0111 34.02 16.3314 33.77 16.4799C33.5161 16.6127 33.1997 16.5267 33.0513 16.2806L31.5201 13.6048L29.1685 14.9251L30.6997 17.6126C30.77 17.7337 30.7895 17.8744 30.7544 18.0072C30.7192 18.14 30.6294 18.2533 30.5122 18.3236C30.2622 18.4642 29.9419 18.3744 29.8012 18.1244L28.2582 15.4486L26.0434 16.7689L27.5746 19.4447V19.4486C27.7074 19.7025 27.6215 20.0189 27.3754 20.1673C27.1254 20.3001 26.8129 20.2142 26.6684 19.9681L25.0942 17.2493L22.7817 18.6048L24.3129 21.2923C24.4535 21.5423 24.3637 21.8587 24.1137 21.9993C23.8637 22.1321 23.5512 22.0462 23.4066 21.8001L21.8754 19.1243L19.5629 20.4485L21.0941 23.1243C21.1644 23.2415 21.184 23.386 21.1488 23.5188C21.1137 23.6516 21.0277 23.7649 20.9066 23.8313C20.6566 23.9759 20.3363 23.8938 20.1879 23.6438L18.6567 20.9563L16.3559 22.2805L17.8871 24.9563C18.0199 25.2102 17.934 25.5266 17.6879 25.6751C17.4379 25.8118 17.1254 25.722 16.9808 25.4798L15.4488 22.8747ZM34.9176 11.6682L45.4796 16.9494L49.6984 14.5432L44.7922 6.01204L34.9176 11.6682ZM47.4176 1.93774C47.0504 1.92993 46.691 2.01977 46.3746 2.19946L46.1675 2.32446C45.6988 2.57837 45.3629 3.01587 45.23 3.53146C45.0855 4.04318 45.1519 4.59006 45.4175 5.05096L50.7925 14.426C51.0621 14.883 51.4996 15.2189 52.0113 15.3635C52.5426 15.5236 53.1168 15.4494 53.5933 15.1681L53.8004 15.0549V15.051C54.7613 14.5002 55.0934 13.2776 54.5504 12.3127L49.1754 2.93766C48.8121 2.31657 48.1481 1.93376 47.4254 1.93766L47.4176 1.93774ZM68.2496 12.2187C67.9605 12.2187 67.73 11.9844 67.73 11.6992C67.7222 9.25001 65.7378 7.26951 63.2925 7.26951H60.6987C60.4097 7.26951 60.1753 7.03904 60.1753 6.74998C60.1753 6.46092 60.4097 6.23045 60.6987 6.23045H63.2612C64.7143 6.22654 66.1089 6.80076 67.1362 7.82815C68.1674 8.85155 68.7456 10.2461 68.7495 11.6992C68.7495 11.836 68.6949 11.9727 68.5933 12.0703C68.4917 12.168 68.3589 12.2227 68.2183 12.2188L68.2496 12.2187Z" fill="black"/>
</svg>
