<svg width="100" height="100" viewBox="0 0 100 100" fill="none" xmlns="http://www.w3.org/2000/svg">
<path fill-rule="evenodd" clip-rule="evenodd" d="M30.099 41.8395H16.2209C15.2691 41.8537 15.262 40.3516 16.2209 40.3622H30.099C31.0543 40.348 31.0614 41.8537 30.099 41.8395ZM44.1899 40.3622H33.8563C32.8975 40.348 32.901 41.8502 33.8563 41.8395H44.1936C45.1524 41.8502 45.1452 40.3481 44.1899 40.3622ZM16.2209 19.1622H56.459C57.4249 19.1765 57.4037 17.6743 56.459 17.685H16.2209C15.2549 17.6708 15.2762 19.1729 16.2209 19.1622ZM43.0572 26.7191H64.1118C65.0741 26.7333 65.0635 25.2312 64.1118 25.2418L43.0572 25.2453C42.0984 25.2311 42.109 26.7332 43.0572 26.7191ZM27.1627 25.2453C26.2039 25.2311 26.2074 26.7332 27.1627 26.7226L39.9754 26.7191C40.9342 26.7333 40.9271 25.2312 39.9754 25.2418L27.1627 25.2453ZM16.2218 26.7191H23.4589C23.8673 26.7191 24.1976 26.3888 24.1976 25.9804C24.1976 25.572 23.8673 25.2418 23.4589 25.2418H16.2218C15.2629 25.2311 15.2665 26.7332 16.2218 26.7191ZM64.1163 32.8022H51.6909C50.732 32.788 50.7391 34.2901 51.6909 34.2794H64.1163C65.0751 34.2936 65.068 32.7915 64.1163 32.8022ZM48.3318 32.8022H16.2227C15.2603 32.788 15.2745 34.2901 16.2227 34.2794H48.3318C49.2941 34.2936 49.2799 32.7915 48.3318 32.8022ZM66.5172 10.384C67.5968 10.4124 67.1777 8.71852 67.2558 8.08997C67.2701 7.13116 65.7679 7.1347 65.7786 8.08997C65.8567 8.71853 65.4377 10.416 66.5172 10.384ZM74.9334 10.384C76.0129 10.4124 75.5939 8.71852 75.672 8.08997C75.6862 7.13116 74.1841 7.1347 74.1948 8.08997C74.2729 8.71853 73.8539 10.416 74.9334 10.384ZM66.4498 14.0203C66.1621 14.3044 66.1621 14.7732 66.4462 15.0608C68.1188 16.7653 70.8035 17.3122 72.998 16.3889C73.7402 16.0941 74.4256 15.636 75.0044 15.0608C75.6862 14.3932 74.6209 13.3385 73.9604 14.0239C72.6962 15.3201 70.6329 15.7213 68.971 15.0146C68.069 14.8655 67.373 13.2782 66.4498 14.0203ZM94.997 52.4967V79.674C95.1107 82.5646 91.2435 84.1662 89.2832 82.0426C87.8095 80.7855 85.2598 77.3871 84.0808 77.6143H54.688C53.1433 77.6143 51.6944 77.0142 50.5723 76.0163C50.2278 76.5739 49.7484 77.0497 49.1341 77.3729C51.073 79.5568 49.8799 83.3246 47.0709 84.0348C47.9694 86.3466 46.1157 88.9957 43.6335 88.9495H28.2499C26.9146 88.9424 25.0112 88.392 23.5446 87.9055C22.9657 89.1343 21.737 90.0007 20.2953 90.0007H14.6455C12.6604 90.0007 11.0339 88.3778 11.0339 86.3892V67.8846C11.0339 65.8995 12.6569 64.2731 14.6455 64.2731H20.2953C21.6199 64.2731 22.7349 65.0295 23.3635 66.0983C24.7023 63.8504 27.3728 59.5181 29.024 57.8668C30.0539 56.9115 31.0233 54.7986 31.6377 52.8703C29.5958 52.849 25.7712 52.5543 24.8763 53.2681C24.3507 53.4953 14.099 62.6499 13.6227 61.8761C12.2626 61.8761 10.9984 60.722 11.0374 59.3299V53.8753C11.0374 53.3072 10.5722 52.8455 10.004 52.842C7.2484 52.8455 5.00049 50.5941 5.00049 47.842V11.6811C5.00049 8.92897 7.2484 6.68106 10.0005 6.68106H60.8241C62.209 3.04825 65.4974 0.136337 70.725 0.00488281C83.1896 0.328037 84.7205 16.3649 75.3379 20.5694V23.8365C76.8258 23.0056 78.5943 22.4552 80.7179 22.3983C94.937 22.7677 94.9334 43.5983 80.7179 43.9647C78.5944 43.9114 76.8259 43.361 75.3379 42.5301V46.2552H88.7579C92.1918 46.2552 94.9973 49.0642 94.9973 52.4982L94.997 52.4967ZM74.1379 39.7622C83.0336 48.2245 95.7607 35.4902 87.3016 26.5985C78.4096 18.1397 65.6716 30.8776 74.1379 39.7622ZM64.1416 17.3649C73.0372 25.8272 85.7679 13.0929 77.3052 4.20125C68.4132 -4.25757 55.6861 8.47325 64.1416 17.3649ZM32.0534 51.3703C32.2132 50.6814 32.3055 50.0742 32.302 49.6481C32.302 49.1012 32.5577 48.6182 32.9767 48.2382C36.4141 45.9264 38.726 48.2596 39.7807 51.3668H48.5662C48.8006 50.0991 49.4079 48.9627 50.285 48.0855C51.4142 46.9563 52.9767 46.2532 54.692 46.2532H73.8647L73.8611 41.5408C68.8256 37.3895 68.8256 28.9735 73.8611 24.8217V21.054C72.8952 21.331 71.8761 21.5334 70.7255 21.5653C62.4265 21.3487 59.0101 14.1719 60.3991 8.15261H10.001C8.06206 8.15261 6.47469 9.73997 6.47469 11.6789V47.8398C6.47469 48.8092 6.87242 49.69 7.5116 50.3292C8.54851 51.6786 10.6508 50.9471 11.773 52.1012C13.0585 53.0209 12.334 57.9143 12.508 59.3277C12.4583 60.0237 13.3355 60.6274 13.9427 60.3042C14.66 59.8852 24.6281 51.1143 25.2818 51.4903C26.095 51.3128 30.3205 51.3632 32.0534 51.3703ZM40.2317 57.2226C39.6919 59.5877 38.0939 60.1913 37.8986 63.0501H46.9291C47.4831 63.0323 47.9839 63.1495 48.449 63.3271V52.8443H40.1749C40.4874 54.3997 40.5158 55.9975 40.2317 57.2226ZM22.4298 86.3881V67.8835C22.4298 66.7116 21.4675 65.7493 20.2956 65.7493H14.6458C13.4739 65.7493 12.5115 66.7116 12.5115 67.8835V86.3881C12.5115 86.974 12.753 87.5103 13.14 87.8937C13.829 89.0194 19.106 88.3553 20.2956 88.5223C21.4675 88.5223 22.4263 87.5635 22.4298 86.3881ZM49.1489 75.4681C49.8769 74.6371 49.9586 73.1882 49.2981 72.2862C48.9572 71.5902 48.0836 71.5015 47.6788 70.912C47.5155 70.5391 47.6859 70.1023 48.0552 69.9425C49.0709 69.4951 49.7562 68.483 49.7527 67.3502C49.7527 65.7983 48.485 64.5234 46.926 64.5234H37.1323C36.7275 64.5234 36.3937 64.1932 36.3937 63.7848C36.3937 61.1853 37.2211 59.8785 37.9455 58.728C39.6713 56.26 38.9434 52.5454 37.5833 49.9353C36.8837 48.6853 34.9803 48.5362 33.9611 49.3245C33.5172 50.5 33.5456 52.5561 32.5016 54.8501C31.8979 56.3877 31.0669 57.9076 30.0655 58.909C28.1017 60.8728 24.4369 67.1547 23.9043 68.0744V86.3845C23.9043 86.4129 23.8865 86.4377 23.8865 86.4661C25.2146 86.91 27.0328 87.4533 28.2473 87.4676H43.6346C45.1119 87.496 46.2021 85.937 45.6978 84.5628C45.3605 83.8596 44.636 82.9825 45.918 82.7162C48.5493 82.8014 49.6253 79.0869 47.3704 77.7553C46.7881 77.4499 46.9407 76.4982 47.5977 76.3917C48.2192 76.2745 48.7655 75.9368 49.1489 75.4681ZM93.5235 52.4953C93.5235 49.8746 91.3786 47.7297 88.7578 47.7297H54.6879C53.3775 47.7297 52.1843 48.2659 51.3214 49.1289C50.4585 49.9918 49.9222 51.185 49.9222 52.4953V64.3453C51.4457 65.9646 51.7191 68.7097 49.9222 70.3858V70.7906C50.9627 71.7353 51.3427 73.1522 51.1154 74.4838C52.0138 75.5101 53.2816 76.1351 54.6879 76.1351H84.0806C86.1438 75.89 88.8249 79.7714 90.3235 80.9966C91.4278 82.1934 93.5869 81.2949 93.5195 79.6721L93.5235 52.4953ZM59.3335 65.8408C54.2376 65.8159 54.2376 58.0709 59.3335 58.0461C64.4294 58.0745 64.4294 65.8195 59.3335 65.8408ZM61.0451 60.2335C58.8008 58.0034 55.3917 61.4125 57.6219 63.6568C59.8662 65.8869 63.2753 62.4778 61.0451 60.2335ZM71.7233 65.8408C66.6061 65.7449 66.6061 58.1383 71.7233 58.0461C76.844 58.1419 76.844 65.7485 71.7233 65.8408ZM73.4349 60.2335C71.1906 58.007 67.7815 61.4161 70.0117 63.6568C72.256 65.8904 75.6651 62.4778 73.4349 60.2335ZM84.1131 65.8408C79.0172 65.8159 79.0172 58.0709 84.1131 58.0461C89.209 58.0745 89.209 65.8195 84.1131 65.8408ZM85.8248 60.2335C83.5804 58.0034 80.1713 61.4125 82.4015 63.6568C84.6458 65.8869 88.0549 62.4778 85.8248 60.2335ZM76.5102 32.7835C77.5898 32.8119 77.1707 31.1181 77.2488 30.4895C77.2631 29.5307 75.7609 29.5342 75.7716 30.4895C75.8497 31.1145 75.4307 32.812 76.5102 32.7835ZM84.9264 32.7835C86.0095 32.8119 85.5869 31.1181 85.665 30.4895C85.6792 29.5307 84.1771 29.5342 84.1878 30.4895C84.2659 31.1145 83.8468 32.812 84.9264 32.7835ZM76.4392 39.0158C76.7269 39.3034 77.1956 39.3034 77.4832 39.0158C78.3532 38.1493 79.4931 37.677 80.7183 37.677C81.9435 37.677 83.0869 38.1493 83.9534 39.0158C84.621 39.7012 85.6792 38.6394 84.9974 37.9718C82.7424 35.6316 78.6906 35.6316 76.4391 37.9718C76.1515 38.2594 76.1516 38.7282 76.4392 39.0158Z" fill="black"/>
</svg>
