<svg width="100" height="100" viewBox="0 0 100 100" fill="none" xmlns="http://www.w3.org/2000/svg">
<path d="M31.2459 66.6501C29.0098 65.7109 27.0562 64.2066 25.5766 62.2848C24.0971 60.363 23.1423 58.0897 22.8061 55.6878C22.4698 53.2858 22.7635 50.8377 23.6584 48.5835C24.5534 46.3293 26.0188 44.3463 27.9109 42.8291L28.5877 43.6737C26.8388 45.0735 25.484 46.9041 24.6564 48.9857C23.8287 51.0673 23.5566 53.3283 23.8667 55.5469C24.1769 57.7654 25.0586 59.8652 26.4254 61.64C27.7922 63.4148 29.597 64.8037 31.6627 65.6702L31.2459 66.6501Z" fill="black"/>
<path d="M40.2707 67.2675L39.9892 66.2226C42.7372 65.4854 45.1655 63.8627 46.8979 61.6057C48.6302 59.3487 49.5701 56.5834 49.5717 53.7383V13.4644L49.523 8.85724C49.3606 4.45576 45.5925 1.27782 40.5576 1.27782C38.5295 1.272 36.5765 2.04496 35.1017 3.43719C33.6268 4.82941 32.7427 6.73467 32.6317 8.75979L32.5234 10.9253L31.4407 10.8658L31.5489 8.70024C31.667 6.39688 32.6655 4.22692 34.3381 2.63893C36.0108 1.05095 38.2296 0.166338 40.536 0.167971C46.1772 0.167971 50.4001 3.81151 50.5841 8.83017L50.6329 13.459V53.7383C50.6332 56.8189 49.6183 59.8137 47.7451 62.2594C45.872 64.7051 43.245 66.4652 40.2707 67.2675Z" fill="black"/>
<path d="M20.5803 55.7086C17.6843 55.702 14.8789 54.6987 12.6354 52.8674C10.392 51.0361 8.84735 48.4883 8.26109 45.6522C7.67482 42.8162 8.08268 39.8648 9.41612 37.294C10.7496 34.7233 12.9273 32.6899 15.5833 31.5356L20.0389 29.251L20.5316 30.2146L16.0489 32.5155C13.426 33.6602 11.3227 35.7396 10.1482 38.3493C8.97372 40.959 8.81209 43.9123 9.69476 46.6346C10.5774 49.3569 12.4412 51.6534 14.9236 53.0775C17.4059 54.5015 20.3293 54.9511 23.1248 54.3389L23.3684 55.3946C22.4533 55.6006 21.5184 55.7059 20.5803 55.7086Z" fill="black"/>
<path d="M68.4173 82.248H67.2804C66.0819 82.2466 64.9329 81.7699 64.0854 80.9224C63.238 80.075 62.7612 78.926 62.7598 77.7275L62.5378 72.7196L63.6206 72.6709L63.8426 77.7058C63.8412 78.1587 63.929 78.6074 64.1009 79.0264C64.2729 79.4453 64.5258 79.8263 64.845 80.1475C65.1642 80.4688 65.5436 80.724 65.9615 80.8986C66.3793 81.0732 66.8275 81.1638 67.2804 81.1653H68.4173V82.248Z" fill="black"/>
<path d="M72.7648 86.5575C71.8011 86.5575 70.8591 86.2717 70.0578 85.7363C69.2565 85.2009 68.632 84.4399 68.2632 83.5496C67.8944 82.6593 67.798 81.6796 67.986 80.7344C68.174 79.7892 68.638 78.921 69.3195 78.2396C70.0009 77.5582 70.8691 77.0941 71.8142 76.9061C72.7594 76.7181 73.7391 76.8146 74.6294 77.1834C75.5198 77.5522 76.2808 78.1767 76.8161 78.978C77.3515 79.7793 77.6373 80.7213 77.6373 81.685C77.6373 82.9773 77.124 84.2166 76.2102 85.1304C75.2964 86.0441 74.0571 86.5575 72.7648 86.5575ZM72.7648 77.8628C72.0153 77.8628 71.2826 78.0851 70.6594 78.5015C70.0362 78.9179 69.5504 79.5098 69.2636 80.2022C68.9768 80.8947 68.9017 81.6567 69.0479 82.3918C69.1942 83.127 69.5551 83.8022 70.0851 84.3322C70.6151 84.8622 71.2904 85.2232 72.0255 85.3694C72.7606 85.5156 73.5226 85.4406 74.2151 85.1537C74.9076 84.8669 75.4994 84.3812 75.9158 83.758C76.3323 83.1347 76.5545 82.402 76.5545 81.6525C76.5545 80.6474 76.1553 79.6835 75.4446 78.9728C74.7338 78.2621 73.7699 77.8628 72.7648 77.8628Z" fill="black"/>
<path d="M31.4082 79.1722H30.2712V78.0894H31.4082C32.3204 78.088 33.1948 77.7246 33.8394 77.079C34.4839 76.4334 34.846 75.5584 34.846 74.6462V59.5469H35.9287V74.6462C35.9273 75.8452 35.4507 76.9947 34.6034 77.843C33.7561 78.6914 32.6071 79.1693 31.4082 79.1722Z" fill="black"/>
<path d="M25.9023 83.4813C24.9386 83.4813 23.9965 83.1955 23.1953 82.6601C22.394 82.1247 21.7695 81.3638 21.4007 80.4734C21.0319 79.5831 20.9354 78.6034 21.1234 77.6582C21.3114 76.7131 21.7755 75.8449 22.4569 75.1634C23.1383 74.482 24.0065 74.018 24.9517 73.83C25.8969 73.6419 26.8766 73.7384 27.7669 74.1072C28.6572 74.476 29.4182 75.1005 29.9536 75.9018C30.489 76.7031 30.7748 77.6451 30.7748 78.6088C30.7748 79.9011 30.2614 81.1404 29.3476 82.0542C28.4339 82.968 27.1945 83.4813 25.9023 83.4813ZM25.9023 74.7866C25.1527 74.7866 24.42 75.0089 23.7968 75.4253C23.1736 75.8417 22.6879 76.4336 22.401 77.1261C22.1142 77.8185 22.0392 78.5805 22.1854 79.3157C22.3316 80.0508 22.6925 80.7261 23.2225 81.2561C23.7525 81.7861 24.4278 82.147 25.1629 82.2932C25.8981 82.4394 26.6601 82.3644 27.3525 82.0776C28.045 81.7907 28.6369 81.305 29.0533 80.6818C29.4697 80.0586 29.692 79.3259 29.692 78.5763C29.692 77.5712 29.2927 76.6073 28.582 75.8966C27.8713 75.1859 26.9074 74.7866 25.9023 74.7866Z" fill="black"/>
<path d="M48.9978 74.8301H47.915V80.7637H48.9978V74.8301Z" fill="black"/>
<path d="M48.4565 89.9999C47.4928 89.9999 46.5507 89.7141 45.7495 89.1787C44.9482 88.6433 44.3237 87.8823 43.9549 86.992C43.5861 86.1017 43.4896 85.122 43.6776 84.1768C43.8656 83.2316 44.3297 82.3634 45.0111 81.682C45.6925 81.0006 46.5607 80.5365 47.5059 80.3485C48.4511 80.1605 49.4308 80.257 50.3211 80.6258C51.2114 80.9946 51.9724 81.6191 52.5078 82.4204C53.0432 83.2216 53.329 84.1637 53.329 85.1274C53.329 86.4196 52.8156 87.659 51.9018 88.5727C50.9881 89.4865 49.7487 89.9999 48.4565 89.9999ZM48.4565 81.3052C47.7069 81.3052 46.9742 81.5274 46.351 81.9439C45.7278 82.3603 45.2421 82.9522 44.9552 83.6446C44.6684 84.3371 44.5934 85.0991 44.7396 85.8342C44.8858 86.5694 45.2467 87.2446 45.7767 87.7746C46.3067 88.3046 46.982 88.6656 47.7171 88.8118C48.4523 88.958 49.2143 88.883 49.9067 88.5961C50.5992 88.3093 51.1911 87.8236 51.6075 87.2003C52.0239 86.5771 52.2462 85.8444 52.2462 85.0949C52.2462 84.0898 51.8469 83.1259 51.1362 82.4152C50.4255 81.7045 49.4616 81.3052 48.4565 81.3052Z" fill="black"/>
<path d="M48.9978 67.0293H47.915V71.6148H48.9978V67.0293Z" fill="black"/>
<path d="M16.1735 32.0174C13.7273 29.5969 12.1926 26.4055 11.8293 22.9834C11.466 19.5613 12.2963 16.1188 14.1797 13.2386C16.0631 10.3584 18.8838 8.21753 22.1645 7.17831C25.4451 6.13908 28.9841 6.26539 32.1823 7.53585L31.7817 8.54283C30.1514 7.89018 28.4108 7.55749 26.6547 7.56292C23.9083 7.55825 21.2225 8.37096 18.9394 9.89761C16.6563 11.4242 14.8791 13.5958 13.8341 16.1357C12.7891 18.6756 12.5236 21.469 13.0713 24.1604C13.619 26.8517 14.9552 29.3191 16.9098 31.2486L16.1735 32.0174Z" fill="black"/>
<path d="M60.5618 69.7307H55.0234V49.9051H55.5648C59.3953 49.7586 63.0201 48.1339 65.6783 45.3721C68.3366 42.6102 69.8215 38.926 69.8215 35.0927C69.8215 31.2595 68.3366 27.5752 65.6783 24.8134C63.0201 22.0515 59.3953 20.4269 55.5648 20.2804H55.0234V0H61.244C61.7939 0 62.3213 0.218459 62.7102 0.607318C63.099 0.996178 63.3175 1.52358 63.3175 2.07351V8.67844C63.3194 8.85865 63.3709 9.03485 63.4664 9.18767C63.5619 9.3405 63.6977 9.46402 63.8589 9.54466L70.2797 13.0907C70.463 13.1939 70.6745 13.2354 70.8832 13.2091C71.0918 13.1828 71.2864 13.09 71.4383 12.9446L76.9442 7.74725C77.334 7.37369 77.8549 7.1683 78.3948 7.17539C78.9346 7.18248 79.45 7.40148 79.8298 7.78515L84.7023 12.6576C85.0901 13.0464 85.3079 13.573 85.3079 14.1221C85.3079 14.6712 85.0901 15.1978 84.7023 15.5865L79.1044 21.152C78.9645 21.2904 78.8696 21.4677 78.8319 21.6609C78.7943 21.854 78.8156 22.054 78.8932 22.2348L81.7842 29.0075C81.8613 29.1847 81.9884 29.3354 82.15 29.4412C82.3116 29.547 82.5006 29.6033 82.6937 29.6031H89.6073C90.1568 29.6045 90.6833 29.8234 91.0719 30.212C91.4604 30.6005 91.6794 31.1271 91.6808 31.6766V38.0595C91.6794 38.609 91.4604 39.1356 91.0719 39.5242C90.6833 39.9127 90.1568 40.1316 89.6073 40.1331H83.1106C82.919 40.1334 82.7316 40.1894 82.5711 40.2941C82.4106 40.3989 82.284 40.5479 82.2065 40.7232L78.5088 49.093C78.4271 49.2806 78.405 49.4887 78.4457 49.6892C78.4864 49.8897 78.5878 50.0728 78.7362 50.2137L83.3705 54.5448C83.5734 54.7348 83.7359 54.9637 83.8484 55.2179C83.9608 55.4722 84.0209 55.7464 84.0249 56.0244C84.0289 56.3023 83.9769 56.5783 83.8719 56.8356C83.7669 57.093 83.6111 57.3266 83.4138 57.5224L78.5954 62.3462C78.2157 62.7288 77.7015 62.948 77.1625 62.9571C76.6236 62.9662 76.1023 62.7645 75.7099 62.3949L71.3409 58.3128C71.2025 58.1856 71.0312 58.0998 70.8464 58.0654C70.6616 58.0309 70.4709 58.0491 70.296 58.1179L63.8426 60.7004C63.675 60.7689 63.529 60.8816 63.4203 61.0265C63.3116 61.1714 63.2443 61.3431 63.2255 61.5233L62.6245 67.8413C62.581 68.3578 62.3446 68.8389 61.9624 69.189C61.5802 69.5392 61.0802 69.7325 60.5618 69.7307ZM56.1062 68.6479H60.5618C60.8085 68.6476 61.0461 68.5554 61.2283 68.3892C61.4106 68.223 61.5242 67.9948 61.5472 67.7492L62.1481 61.4312C62.1845 61.0523 62.3244 60.6908 62.5527 60.3861C62.7809 60.0815 63.0886 59.8456 63.442 59.7042L69.8953 57.1272C70.258 56.9846 70.6535 56.947 71.0365 57.0188C71.4195 57.0906 71.7746 57.2689 72.0609 57.5332L76.4353 61.6153C76.6193 61.7945 76.866 61.8949 77.1229 61.8949C77.3797 61.8949 77.6264 61.7945 77.8104 61.6153L82.6342 56.7915C82.8222 56.6013 82.9273 56.3444 82.9265 56.0769C82.924 55.9438 82.8949 55.8124 82.841 55.6907C82.7871 55.5689 82.7094 55.4591 82.6125 55.3677L77.9783 51.0366C77.6653 50.7425 77.4514 50.3585 77.366 49.9376C77.2807 49.5167 77.3282 49.0797 77.5018 48.687L81.2158 40.2846C81.3782 39.9176 81.6437 39.6055 81.9801 39.3864C82.3165 39.1673 82.7092 39.0505 83.1106 39.0503H89.6073C89.7374 39.0503 89.8662 39.0246 89.9864 38.9749C90.1066 38.9251 90.2158 38.8521 90.3078 38.7601C90.3998 38.6681 90.4728 38.5589 90.5226 38.4387C90.5724 38.3185 90.598 38.1896 90.598 38.0595V31.6658C90.5966 31.4034 90.4917 31.1523 90.3063 30.9668C90.1208 30.7813 89.8696 30.6764 89.6073 30.675H82.6937C82.2888 30.6748 81.8928 30.5563 81.5542 30.3342C81.2157 30.112 80.9494 29.7958 80.7881 29.4244L77.8971 22.6679C77.733 22.2878 77.6871 21.8672 77.7653 21.4607C77.8435 21.0543 78.0422 20.6807 78.3356 20.3887L83.9227 14.8069C84.0155 14.7153 84.0892 14.6061 84.1395 14.4858C84.1898 14.3654 84.2157 14.2363 84.2157 14.1058C84.2157 13.9754 84.1898 13.8463 84.1395 13.7259C84.0892 13.6056 84.0155 13.4964 83.9227 13.4048L79.0502 8.53227C78.8667 8.3501 78.6185 8.24788 78.3599 8.24788C78.1013 8.24788 77.8532 8.3501 77.6697 8.53227L72.1638 13.7296C71.8463 14.0326 71.4404 14.2264 71.0052 14.2828C70.57 14.3393 70.1281 14.2555 69.7438 14.0436L63.3067 10.4921C62.9802 10.3145 62.7075 10.0525 62.517 9.73347C62.3265 9.41442 62.2253 9.05003 62.2239 8.67844V2.07351C62.2239 1.81075 62.1195 1.55876 61.9337 1.37296C61.7479 1.18716 61.4959 1.08277 61.2331 1.08277H56.0954V19.2084C60.0999 19.5046 63.8443 21.3043 66.5769 24.2465C69.3096 27.1887 70.8283 31.0556 70.8283 35.0711C70.8283 39.0865 69.3096 42.9534 66.5769 45.8956C63.8443 48.8378 60.0999 50.6376 56.0954 50.9337L56.1062 68.6479Z" fill="black"/>
</svg>
