<svg width="100" height="100" viewBox="0 0 100 100" fill="none" xmlns="http://www.w3.org/2000/svg">
<path d="M65.4351 30.1348C67.6063 32.8048 68.5813 35.7748 68.4201 39.2136L67.7489 53.5646C67.7339 53.8909 67.4526 54.1459 67.1301 54.1271C66.8039 54.1122 66.5526 53.8346 66.5676 53.5084L67.2389 39.1573C67.3851 36.0223 66.4964 33.3148 64.5164 30.881C59.7351 24.9973 53.5215 22.376 47.0156 23.501C39.6093 24.7835 32.844 30.7085 30.1858 38.239C27.8045 44.9852 29.1282 51.7011 33.9095 57.1424C40.0595 64.1399 44.4023 74.2573 45.9806 81.1799C47.0643 85.9349 50.8593 88.7962 53.9044 88.8111H53.9606C57.4481 88.8111 62.1094 87.0711 64.7942 82.1849C65.1167 81.5962 65.2742 81.0374 65.308 80.3662L66.1517 62.3249C66.1667 61.9986 66.4443 61.7474 66.7705 61.7624C67.0967 61.7774 67.348 62.0549 67.333 62.3811L66.4892 80.4224C66.448 81.2699 66.2417 82.0124 65.833 82.755C62.9005 88.0987 57.793 90 53.9645 90H53.9007C50.4432 89.9812 46.0932 86.9775 44.8295 81.4462C43.2845 74.6699 39.0357 64.77 33.0243 57.9261C27.9468 52.1474 26.5443 45.0151 29.0756 37.8448C31.8731 29.921 39.002 23.6886 46.8202 22.3312C53.7615 21.1312 60.3721 23.9023 65.4351 30.1348ZM67.0213 56.4303C66.6913 56.4153 66.4176 56.6665 66.4026 56.9928L66.3538 58.0352C66.3388 58.3615 66.5901 58.639 66.9163 58.654H66.9426C67.2576 58.654 67.5201 58.4065 67.5351 58.0915L67.5838 57.049C67.6026 56.7228 67.3476 56.4453 67.0213 56.4303ZM50.0005 42.1089C51.3618 40.8714 53.848 40.114 56.3605 42.0564C56.6192 42.2552 56.9905 42.2102 57.193 41.9477C57.3918 41.6889 57.3468 41.3177 57.0843 41.1152C54.1893 38.8802 51.043 39.5627 49.2055 41.2277C47.2818 42.9752 46.2543 46.1965 48.3018 49.4515C48.4143 49.6315 48.6055 49.729 48.8043 49.729C48.913 49.729 49.0218 49.699 49.1193 49.639C49.3968 49.4664 49.4793 49.0989 49.3068 48.8214C47.6193 46.1515 48.4405 43.5265 50.0005 42.1089ZM62.1464 38.7751C62.3264 39.0489 62.6939 39.1239 62.9677 38.9401C63.2414 38.7601 63.3164 38.3926 63.1327 38.1189C60.0389 33.4539 55.8727 31.1213 51.3947 31.5527C46.4635 32.0252 41.6824 35.8802 39.4926 41.1415C37.3289 46.339 38.0939 51.761 41.5851 56.0177C45.3539 60.6115 48.0164 67.2641 48.9876 71.8164C49.8051 75.6527 52.6514 77.734 54.9164 77.7489H54.9614C57.4702 77.7489 59.9526 76.4889 61.6064 74.3702C61.8089 74.1115 61.7639 73.7402 61.5052 73.5377C61.2464 73.3352 60.8752 73.3839 60.6727 73.639C59.2402 75.4728 57.1102 76.564 54.9614 76.564H54.9239C53.3789 76.5565 50.8777 75.0002 50.1464 71.569C49.1489 66.874 46.3964 60.0115 42.5039 55.2643C39.3014 51.3568 38.6002 46.3731 40.5914 41.592C42.6164 36.7245 47.0039 33.1582 51.5153 32.7269C54.354 32.4607 58.5092 33.2889 62.1464 38.7751ZM86.1273 1.97632V15.3789C86.1273 16.4701 85.2385 17.3552 84.151 17.3552H80.8623V23.3552C80.8623 23.5877 80.7235 23.8014 80.5098 23.8989C80.431 23.9327 80.3523 23.9514 80.2697 23.9514C80.1235 23.9514 79.981 23.8989 79.8722 23.7977L72.796 17.359H59.8167C58.7255 17.359 57.8405 16.4702 57.8405 15.3827V1.97626C57.8405 0.885026 58.7292 0 59.8167 0H84.1509C85.2421 0 86.1273 0.888811 86.1273 1.97632ZM84.9423 1.97632C84.9423 1.53757 84.586 1.18507 84.151 1.18507H59.8169C59.3781 1.18507 59.0256 1.54131 59.0256 1.97632V15.3789C59.0256 15.8177 59.3819 16.1702 59.8169 16.1702H73.0246C73.1708 16.1702 73.3133 16.2264 73.4221 16.3239L79.6771 22.0164V16.7626C79.6771 16.4364 79.9433 16.1701 80.2696 16.1701H84.1509C84.5896 16.1701 84.9421 15.8139 84.9421 15.3789L84.9423 1.97632ZM79.486 4.71012H64.4821C64.1559 4.71012 63.8896 4.97637 63.8896 5.30262C63.8896 5.62887 64.1559 5.89513 64.4821 5.89513H79.486C79.8122 5.89513 80.0785 5.62888 80.0785 5.30262C80.0785 4.97638 79.8122 4.71012 79.486 4.71012ZM79.486 8.08885H64.4821C64.1559 8.08885 63.8896 8.3551 63.8896 8.68135C63.8896 9.0076 64.1559 9.27386 64.4821 9.27386H79.486C79.8122 9.27386 80.0785 9.00761 80.0785 8.68135C80.0785 8.35135 79.8122 8.08885 79.486 8.08885ZM79.486 11.4638H64.4821C64.1559 11.4638 63.8896 11.7301 63.8896 12.0563C63.8896 12.3826 64.1559 12.6488 64.4821 12.6488H79.486C79.8122 12.6488 80.0785 12.3826 80.0785 12.0563C80.0785 11.7263 79.8122 11.4638 79.486 11.4638ZM23.0369 17.2014C22.8044 16.9689 22.4294 16.9689 22.2006 17.2014C21.9681 17.4339 21.9681 17.8089 22.2006 18.0376L26.2469 22.0839C26.3631 22.2001 26.5131 22.2564 26.6669 22.2564C26.8206 22.2564 26.9706 22.2001 27.0869 22.0839C27.3194 21.8513 27.3194 21.4764 27.0869 21.2476L23.0369 17.2014ZM20.7907 33.6414L13.7181 32.1039C13.3994 32.0326 13.0844 32.2351 13.0131 32.5576C12.9456 32.8764 13.1444 33.1914 13.4669 33.2626L20.5394 34.8002C20.5807 34.8077 20.6257 34.8152 20.6669 34.8152C20.9407 34.8152 21.1844 34.6277 21.2444 34.3464C21.3119 34.0277 21.1094 33.7127 20.7907 33.6414ZM38.641 15.7911C38.701 16.0686 38.9447 16.2599 39.2185 16.2599C39.2597 16.2599 39.301 16.2561 39.346 16.2449C39.6647 16.1774 39.8672 15.8586 39.7997 15.5399L38.2659 8.46735C38.1984 8.1486 37.8797 7.9461 37.5609 8.0136C37.2422 8.0811 37.0397 8.39985 37.1072 8.7186L38.641 15.7911Z" fill="black"/>
</svg>
