<svg width="100" height="100" viewBox="0 0 100 100" fill="none" xmlns="http://www.w3.org/2000/svg">
<path d="M80.6706 3.89748C77.8968 3.9003 75.1916 4.75806 72.9246 6.35352C70.6577 7.94899 68.9395 10.2043 68.0051 12.8113C67.9425 12.9862 67.8841 13.1632 67.8298 13.3422C67.7867 13.4987 67.8062 13.6659 67.8843 13.8082C67.9625 13.9506 68.0931 14.057 68.2485 14.1049C68.4038 14.1528 68.5718 14.1385 68.7168 14.0649C68.8617 13.9913 68.9723 13.8643 69.0251 13.7108C69.0751 13.5484 69.1294 13.388 69.1878 13.2298C69.9911 10.9821 71.4394 9.02007 73.3523 7.58848C75.2651 6.15688 77.5577 5.319 79.9444 5.1793C82.331 5.03961 84.7061 5.60428 86.7734 6.80291C88.8408 8.00154 90.5089 9.78111 91.5699 11.9197C92.6308 14.0583 93.0377 16.4614 92.7397 18.8293C92.4417 21.1972 91.4521 23.4251 89.8942 25.2353C88.3363 27.0456 86.279 28.358 83.9789 29.009C81.6789 29.66 79.2377 29.6207 76.9598 28.8961L76.4842 28.7337C76.3282 28.6765 76.1559 28.6836 76.0051 28.7533C75.8543 28.823 75.7374 28.9496 75.6801 29.1054C75.6228 29.2611 75.6299 29.4331 75.6997 29.5837C75.7696 29.7342 75.8964 29.8509 76.0524 29.908L76.5843 30.0892C79.5105 31.0268 82.6705 30.9337 85.5362 29.8254C88.4019 28.7171 90.7998 26.6608 92.3293 23.9999C93.8588 21.339 94.4273 18.2347 93.9397 15.2058C93.4521 12.1769 91.938 9.40667 89.6504 7.35805L91.2086 5.4841L92.1347 6.24617C92.2633 6.35137 92.4285 6.40126 92.594 6.38486C92.7595 6.36846 92.9116 6.28711 93.017 6.15872C93.1224 6.03033 93.1724 5.8654 93.156 5.70023C93.1395 5.53505 93.058 5.38316 92.9294 5.27796L91.5214 4.1286L90.0884 2.95425C89.9598 2.84905 89.7946 2.79916 89.6291 2.81556C89.4636 2.83196 89.3115 2.91331 89.2061 3.0417C89.1007 3.17009 89.0507 3.33502 89.0672 3.50019C89.0836 3.66537 89.1651 3.81726 89.2937 3.92246L90.2449 4.70328L88.6867 6.57724C86.3761 4.84062 83.5629 3.90018 80.6706 3.89748Z" fill="black"/>
<path d="M80.6706 7.92676C80.5047 7.92676 80.3455 7.99257 80.2282 8.10971C80.1108 8.22686 80.0449 8.38574 80.0449 8.55141V15.2789C79.6064 15.4088 79.2218 15.6766 78.9482 16.0424C78.6747 16.4082 78.5269 16.8525 78.5269 17.309C78.5269 17.7656 78.6747 18.2099 78.9482 18.5757C79.2218 18.9415 79.6064 19.2093 80.0449 19.3392V19.7827C80.0449 19.9483 80.1108 20.1072 80.2282 20.2244C80.3455 20.3415 80.5047 20.4073 80.6706 20.4073C80.8366 20.4073 80.9958 20.3415 81.1131 20.2244C81.2305 20.1072 81.2964 19.9483 81.2964 19.7827V19.3642C81.7349 19.2343 82.1195 18.9665 82.3931 18.6007C82.6666 18.2348 82.8144 17.7905 82.8144 17.334C82.8144 16.8775 82.6666 16.4332 82.3931 16.0674C82.1195 15.7015 81.7349 15.4337 81.2964 15.3039V8.55141C81.2964 8.38574 81.2305 8.22686 81.1131 8.10971C80.9958 7.99257 80.8366 7.92676 80.6706 7.92676ZM81.5592 17.2966C81.5592 17.4705 81.5076 17.6405 81.411 17.7852C81.3143 17.9299 81.1768 18.0428 81.016 18.1097C80.8551 18.1765 80.678 18.1943 80.5071 18.1608C80.3361 18.1273 80.1788 18.0441 80.0552 17.9215C79.9316 17.799 79.847 17.6426 79.8123 17.4722C79.7775 17.3017 79.7941 17.1248 79.8599 16.9638C79.9258 16.8028 80.0379 16.6648 80.1822 16.5673C80.3264 16.4697 80.4964 16.417 80.6706 16.4158C80.7873 16.4166 80.9027 16.4404 81.0102 16.4857C81.1177 16.531 81.2152 16.5971 81.2971 16.68C81.3791 16.7629 81.4438 16.8612 81.4877 16.9691C81.5316 17.0771 81.5538 17.1926 81.553 17.309L81.5592 17.2966Z" fill="black"/>
<path d="M77.0601 3.29817H84.2815C84.4474 3.29817 84.6066 3.23236 84.7239 3.11521C84.8413 2.99807 84.9072 2.83918 84.9072 2.67352V0.624653C84.9072 0.458985 84.8413 0.300102 84.7239 0.182957C84.6066 0.0658115 84.4474 0 84.2815 0L77.0601 0C76.8941 0 76.735 0.0658115 76.6176 0.182957C76.5003 0.300102 76.4343 0.458985 76.4343 0.624653V2.67352C76.4343 2.83918 76.5003 2.99807 76.6176 3.11521C76.735 3.23236 76.8941 3.29817 77.0601 3.29817ZM77.6859 1.24931H83.6557V2.04886H77.6859V1.24931Z" fill="black"/>
<path d="M35.9094 57.1003C35.6779 58.9118 37.6678 60.2736 39.0382 60.7545C39.5952 60.9482 43.8817 60.8295 45.5337 60.361C46.9026 63.2667 47.9517 66.312 48.6626 69.4435C48.6829 69.5286 48.7198 69.6089 48.7714 69.6796C48.823 69.7504 48.8881 69.8102 48.9629 69.8557C49.5872 70.0059 50.2311 70.0586 50.8715 70.0119C54.0942 70.0119 60.5084 69.5059 63.8875 68.5814C67.2667 67.657 75.9586 62.7784 75.5581 60.867C75.3829 59.9987 74.3065 59.3491 72.5294 58.3684C71.4781 57.775 70.2891 57.1191 69.8573 56.5444C68.9562 55.3888 68.6559 52.5029 68.731 50.9225C68.7685 50.0792 69.8761 47.2683 70.9524 44.5448C72.5732 40.4283 74.4129 35.7622 74.6257 33.2073C75.1075 27.4793 73.5056 19.6711 67.5545 14.93C62.2417 10.6948 47.2859 5.41653 37.4363 17.2974C35.6716 19.365 33.5502 22.3446 33.4063 24.3623C33.4063 24.456 33.0246 33.7321 33.6817 34.6753C33.7755 34.8065 33.8882 34.9439 34.0071 35.0938C34.3199 35.4873 34.7455 36.0183 34.7455 36.3431C34.7455 36.6679 34.3512 37.5549 31.698 42.2711L31.5228 42.5834C31.2891 43.0875 31.2154 43.6508 31.3116 44.1979C31.4078 44.745 31.6692 45.2497 32.0609 45.6442C32.5215 45.9333 33.0269 46.1444 33.5565 46.2688C33.962 46.3886 34.3591 46.5346 34.7455 46.7061C34.7269 47.3082 34.5953 47.9015 34.3575 48.4551C33.8444 49.3484 34.9332 50.0917 35.7217 50.6352L35.9157 50.7726C35.6648 51.0191 35.4835 51.3272 35.39 51.6658C35.2899 52.0406 35.4901 52.3592 35.7404 52.759C35.9204 53.02 36.0694 53.3009 36.1847 53.596C36.2323 54.498 36.1671 55.4024 35.9907 56.2883L35.9094 57.1003ZM35.5464 48.8861C35.8876 48.0796 36.0375 47.2052 35.9845 46.3313C35.8781 45.7067 35.0709 45.4256 33.957 45.082C33.5854 44.977 33.2233 44.8412 32.8744 44.676C32.7093 44.4687 32.6002 44.2226 32.5574 43.9613C32.5147 43.6999 32.5398 43.432 32.6304 43.1831L32.8056 42.8707C35.7655 37.6049 36.0158 36.7491 36.0158 36.3618C35.9086 35.5911 35.5527 34.8762 35.002 34.3255L34.7517 34.0007C34.4952 33.1074 34.564 26.6048 34.6579 24.4247C34.758 23.1129 36.1096 20.8205 38.4125 18.0658C47.6551 6.87197 61.7599 11.8692 66.7723 15.8795C72.3416 20.3145 73.8372 27.6729 73.3804 33.0762C73.1802 35.4498 71.2966 40.2222 69.7885 44.0638C68.393 47.6118 67.5295 49.8419 67.4857 50.8351C67.4294 52.0844 67.5608 55.6074 68.8749 57.294C69.4631 58.0498 70.7146 58.7557 71.9161 59.4365C72.7359 59.8988 74.0813 60.6858 74.3066 61.0544C73.7746 62.1225 67.4231 66.3327 63.5997 67.3759C59.382 68.5252 51.6099 68.8313 49.8327 68.7501C49.1757 66.0703 47.0668 59.3803 45.9405 59.0368C45.8347 59.0044 45.7228 58.9977 45.6139 59.0173C45.5051 59.0369 45.4025 59.0821 45.3147 59.1492C43.3868 59.5115 41.4237 59.6519 39.4638 59.5677C38.4563 59.2241 37.0233 58.2497 37.1484 57.2565L37.2548 56.4257C37.4613 54.8453 37.6052 53.8022 37.3925 53.1775C37.2463 52.787 37.053 52.4157 36.8168 52.0719L36.6853 51.847C36.761 51.7206 36.8585 51.6085 36.9732 51.5159C37.0956 51.4271 37.1975 51.3131 37.272 51.1817C37.3465 51.0502 37.3918 50.9043 37.405 50.7538C37.4014 50.6358 37.3741 50.5196 37.3246 50.4123C37.2752 50.305 37.2046 50.2087 37.1171 50.1292C36.912 49.9452 36.6923 49.7781 36.4601 49.6295C36.1373 49.41 35.8357 49.1612 35.559 48.8861H35.5464Z" fill="black"/>
<path d="M47.1296 36.8535C47.6137 37.5134 48.0093 38.2337 48.306 38.9961C48.4813 39.6208 48.6127 40.2454 48.7253 40.7889C48.834 41.3883 48.9931 41.9776 49.2009 42.5504C49.1953 42.5981 49.1953 42.6463 49.2009 42.694L49.2322 45.5987C49.2322 46.7874 49.7052 47.9273 50.5472 48.7679C51.3892 49.6084 52.5313 50.0806 53.7221 50.0806C54.9129 50.0806 56.0549 49.6084 56.8969 48.7679C57.7389 47.9273 58.2119 46.7874 58.2119 45.5987L58.1556 42.694C58.1599 42.6546 58.1599 42.6148 58.1556 42.5754C58.3636 42.0026 58.5227 41.4133 58.6312 40.8138C58.7439 40.2766 58.8753 39.6707 59.0505 39.0211C59.3375 38.2513 59.7246 37.5226 60.2019 36.8535C61.3408 35.092 62.9052 32.6809 62.9052 29.5826C62.9052 24.779 58.675 20.7188 53.6626 20.7188C48.6502 20.7188 44.4263 24.7977 44.4263 29.6013C44.4263 32.6933 45.9844 35.1108 47.1296 36.8535ZM53.7189 48.8406C53.052 48.8383 52.4022 48.6298 51.8588 48.2439C51.3154 47.8581 50.905 47.3137 50.684 46.6856C51.5912 46.8209 52.5075 46.8877 53.4248 46.8855C53.5908 46.8855 53.75 46.8197 53.8673 46.7025C53.9847 46.5854 54.0506 46.4265 54.0506 46.2608C54.0506 46.0951 53.9847 45.9363 53.8673 45.8191C53.75 45.702 53.5908 45.6362 53.4248 45.6362C52.4367 45.6384 51.4503 45.5527 50.4775 45.3801L50.4462 43.5873C51.0672 43.6972 51.694 43.7723 52.3235 43.8122C52.724 43.8122 53.1557 43.8621 53.6313 43.8621C54.1069 43.8621 54.5199 43.8621 54.9267 43.8122C55.7715 43.7497 56.4848 43.6498 56.9166 43.5748L56.9542 45.5987C56.955 46.0236 56.8719 46.4445 56.7098 46.8374C56.5477 47.2303 56.3096 47.5875 56.0092 47.8885C55.7088 48.1895 55.3519 48.4286 54.9589 48.5919C54.566 48.7553 54.1446 48.8398 53.7189 48.8406ZM52.8741 35.9915L50.8467 31.0942L53.6626 29.9824L56.3659 31.0755L54.3322 35.979C54.3001 36.0541 54.2831 36.1348 54.2821 36.2164V42.5879H53.6063H52.9242V36.2289C52.9232 36.1473 52.9062 36.0666 52.8741 35.9915ZM53.6626 21.9868C57.9929 21.9868 61.6537 25.4724 61.6537 29.6013C61.6537 32.3248 60.2645 34.4674 59.1506 36.1914C58.5898 36.9569 58.141 37.7982 57.8177 38.69C57.63 39.3771 57.4986 40.0018 57.3797 40.564C57.2866 41.1689 57.1206 41.7604 56.8853 42.3255C56.6225 42.3755 56.1344 42.4504 55.5399 42.5129V36.3538L57.7677 30.9818L58.1681 30.0198C58.1994 29.944 58.2153 29.8627 58.2151 29.7807C58.2148 29.6986 58.1984 29.6174 58.1668 29.5417C58.1351 29.466 58.0888 29.3973 58.0305 29.3395C57.9722 29.2816 57.9031 29.2358 57.8271 29.2047C57.7511 29.1735 57.6697 29.1576 57.5875 29.1578C57.5053 29.158 57.424 29.1744 57.3482 29.2061C57.2723 29.2377 57.2035 29.2839 57.1455 29.3421C57.0876 29.4002 57.0417 29.4692 57.0105 29.5451L56.8478 29.9386L53.9004 28.733C53.7499 28.6723 53.5816 28.6723 53.4311 28.733L50.3648 29.9386L50.2021 29.5389C50.1709 29.463 50.125 29.394 50.0671 29.3358C50.0091 29.2776 49.9403 29.2314 49.8644 29.1998C49.7886 29.1682 49.7073 29.1518 49.6251 29.1516C49.5429 29.1513 49.4615 29.1672 49.3855 29.1984C49.3095 29.2296 49.2404 29.2754 49.1821 29.3332C49.1238 29.3911 49.0775 29.4598 49.0458 29.5355C49.0142 29.6112 48.9977 29.6924 48.9975 29.7744C48.9973 29.8564 49.0132 29.9377 49.0444 30.0136L51.6727 36.3476V42.4754C51.1095 42.413 50.684 42.338 50.4524 42.288C50.2132 41.7216 50.0451 41.1279 49.9518 40.5203C49.8329 39.9706 49.7015 39.3397 49.5138 38.6463C49.1905 37.7545 48.7417 36.9132 48.1809 36.1477C47.067 34.4236 45.6778 32.2811 45.6778 29.5576C45.6778 25.4724 49.3323 21.9868 53.6626 21.9868Z" fill="black"/>
<path d="M38.982 30.72H41.266C41.432 30.72 41.5912 30.6542 41.7085 30.5371C41.8259 30.4199 41.8918 30.261 41.8918 30.0954C41.8918 29.9297 41.8259 29.7708 41.7085 29.6537C41.5912 29.5365 41.432 29.4707 41.266 29.4707H38.982C38.816 29.4707 38.6568 29.5365 38.5395 29.6537C38.4221 29.7708 38.3562 29.9297 38.3562 30.0954C38.3562 30.261 38.4221 30.4199 38.5395 30.5371C38.6568 30.6542 38.816 30.72 38.982 30.72Z" fill="black"/>
<path d="M66.0652 30.72H68.3493C68.5152 30.72 68.6744 30.6542 68.7918 30.5371C68.9091 30.4199 68.975 30.261 68.975 30.0954C68.975 29.9297 68.9091 29.7708 68.7918 29.6537C68.6744 29.5365 68.5152 29.4707 68.3493 29.4707H66.0652C65.8993 29.4707 65.7401 29.5365 65.6227 29.6537C65.5054 29.7708 65.4395 29.9297 65.4395 30.0954C65.4395 30.261 65.5054 30.4199 65.6227 30.5371C65.7401 30.6542 65.8993 30.72 66.0652 30.72Z" fill="black"/>
<path d="M53.5936 18.3451C53.7595 18.3451 53.9187 18.2793 54.0361 18.1622C54.1534 18.045 54.2193 17.8861 54.2193 17.7205V15.4342C54.2193 15.2686 54.1534 15.1097 54.0361 14.9925C53.9187 14.8754 53.7595 14.8096 53.5936 14.8096C53.4276 14.8096 53.2684 14.8754 53.1511 14.9925C53.0337 15.1097 52.9678 15.2686 52.9678 15.4342V17.7142C52.967 17.7968 52.9826 17.8787 53.0136 17.9552C53.0447 18.0317 53.0907 18.1013 53.1489 18.1599C53.2071 18.2186 53.2763 18.2652 53.3526 18.297C53.429 18.3288 53.5109 18.3451 53.5936 18.3451Z" fill="black"/>
<path d="M44.3824 21.7877C44.5002 21.9087 44.6613 21.9779 44.8303 21.9803C44.9993 21.9826 45.1623 21.9178 45.2835 21.8002C45.4046 21.6826 45.474 21.5217 45.4764 21.3531C45.4787 21.1844 45.4138 21.0217 45.296 20.9007L43.6815 19.2891C43.6236 19.2309 43.5547 19.1846 43.4789 19.1529C43.403 19.1212 43.3216 19.1048 43.2394 19.1045C43.1572 19.1042 43.0757 19.1201 42.9996 19.1512C42.9236 19.1824 42.8544 19.2282 42.796 19.286C42.7377 19.3438 42.6913 19.4126 42.6596 19.4883C42.6279 19.564 42.6114 19.6452 42.6111 19.7273C42.6108 19.8094 42.6267 19.8907 42.6579 19.9666C42.6891 20.0426 42.735 20.1116 42.7929 20.1699L44.3824 21.7877Z" fill="black"/>
<path d="M62.8175 38.4041C62.6978 38.3018 62.5438 38.2483 62.3863 38.2544C62.2288 38.2604 62.0794 38.3256 61.9679 38.4369C61.8565 38.5481 61.7912 38.6972 61.7851 38.8545C61.7791 39.0117 61.8326 39.1654 61.9351 39.2849L63.5496 40.8965C63.6693 40.9988 63.8233 41.0523 63.9808 41.0462C64.1383 41.0401 64.2877 40.975 64.3991 40.8637C64.5106 40.7525 64.5759 40.6033 64.582 40.4461C64.588 40.2889 64.5345 40.1352 64.432 40.0157L62.8175 38.4041Z" fill="black"/>
<path d="M62.3045 21.9184C62.3869 21.9189 62.4685 21.9032 62.5448 21.8721C62.621 21.841 62.6904 21.7952 62.7488 21.7373L64.3633 20.1257C64.4658 20.0062 64.5194 19.8525 64.5133 19.6953C64.5072 19.5381 64.442 19.3889 64.3305 19.2777C64.2191 19.1664 64.0697 19.1013 63.9122 19.0952C63.7547 19.0891 63.6007 19.1426 63.481 19.2449L61.8665 20.8565C61.7783 20.9439 61.7181 21.0555 61.6936 21.1772C61.6692 21.2988 61.6816 21.425 61.7292 21.5396C61.7769 21.6542 61.8577 21.752 61.9612 21.8206C62.0648 21.8892 62.1865 21.9254 62.3108 21.9247L62.3045 21.9184Z" fill="black"/>
<path d="M43.1558 41.0337C43.2381 41.0342 43.3198 41.0184 43.396 40.9873C43.4723 40.9562 43.5416 40.9104 43.6001 40.8525L45.2146 39.2409C45.3171 39.1214 45.3706 38.9677 45.3646 38.8105C45.3585 38.6533 45.2932 38.5042 45.1817 38.3929C45.0703 38.2817 44.9209 38.2165 44.7634 38.2104C44.6059 38.2044 44.4519 38.2578 44.3322 38.3602L42.7115 39.978C42.6232 40.0654 42.563 40.177 42.5386 40.2987C42.5141 40.4203 42.5265 40.5465 42.5742 40.6611C42.6219 40.7757 42.7026 40.8735 42.8062 40.9421C42.9098 41.0107 43.0315 41.0469 43.1558 41.0462V41.0337Z" fill="black"/>
<path d="M36.1412 65.8453C36.1429 65.6947 36.09 65.5485 35.9923 65.4337C35.8945 65.3189 35.7585 65.2433 35.6093 65.2207L33.1876 64.8521C33.0604 64.497 32.9099 64.1506 32.737 63.8152L34.1388 61.91C34.2274 61.7896 34.2698 61.6414 34.2583 61.4924C34.2468 61.3434 34.1822 61.2035 34.0762 61.098L31.5731 58.5994C31.4674 58.4935 31.3272 58.4291 31.178 58.4176C31.0287 58.4061 30.8803 58.4485 30.7596 58.5369L28.7759 59.9674C28.4351 59.8049 28.0839 59.6651 27.7246 59.5488L27.3679 57.2126C27.3453 57.0637 27.2695 56.9279 27.1545 56.8303C27.0395 56.7328 26.8931 56.68 26.7422 56.6817H23.1753C23.0244 56.68 22.8779 56.7328 22.7629 56.8303C22.648 56.9279 22.5722 57.0637 22.5495 57.2126L22.1803 59.63C21.8245 59.7569 21.4775 59.9072 21.1415 60.0798L19.2455 58.6806C19.1248 58.5921 18.9764 58.5498 18.8271 58.5613C18.6779 58.5727 18.5377 58.6372 18.432 58.743L15.9289 61.2416C15.8229 61.3472 15.7583 61.4871 15.7468 61.6361C15.7353 61.7851 15.7777 61.9332 15.8663 62.0537L17.3118 64.0214C17.1491 64.3616 17.009 64.7121 16.8926 65.0708L14.5522 65.4268C14.403 65.4494 14.267 65.5251 14.1692 65.6399C14.0715 65.7546 14.0186 65.9008 14.0203 66.0515V69.612C14.0186 69.7626 14.0715 69.9088 14.1692 70.0236C14.267 70.1384 14.403 70.2141 14.5522 70.2367L16.9739 70.6052C17.1012 70.9603 17.2517 71.3067 17.4245 71.6421L16.0228 73.5473C15.9342 73.6678 15.8918 73.8159 15.9032 73.9649C15.9147 74.1139 15.9793 74.2539 16.0853 74.3594L18.5884 76.858C18.6941 76.9638 18.8343 77.0283 18.9836 77.0398C19.1328 77.0512 19.2812 77.0089 19.4019 76.9204L21.3731 75.4775C21.7139 75.64 22.0651 75.7798 22.4244 75.896L22.7811 78.2322C22.8037 78.3812 22.8795 78.5169 22.9945 78.6145C23.1095 78.7121 23.2559 78.7649 23.4068 78.7632H26.9737C27.1246 78.7649 27.2711 78.7121 27.3861 78.6145C27.5011 78.5169 27.5769 78.3812 27.5995 78.2322L27.9687 75.8148C28.3245 75.6878 28.6715 75.5376 29.0075 75.3651L30.9035 76.7893C31.0242 76.8777 31.1726 76.92 31.3219 76.9086C31.4711 76.8971 31.6113 76.8326 31.717 76.7268L34.2201 74.2282C34.3261 74.1227 34.3907 73.9827 34.4022 73.8337C34.4137 73.6848 34.3713 73.5366 34.2827 73.4161L32.8372 71.4485C32.9999 71.1083 33.14 70.7577 33.2564 70.3991L35.5968 70.043C35.746 70.0204 35.882 69.9448 35.9798 69.83C36.0775 69.7152 36.1304 69.569 36.1287 69.4184L36.1412 65.8453ZM34.8897 68.8687L32.687 69.206C32.5673 69.2249 32.4558 69.278 32.3658 69.3589C32.2758 69.4399 32.2113 69.5452 32.1801 69.662C32.0306 70.1962 31.8206 70.7117 31.5543 71.1986C31.4995 71.3025 31.4751 71.4198 31.4839 71.5369C31.4928 71.654 31.5345 71.7662 31.6044 71.8608L32.9623 73.7347L31.1977 75.4962L29.4017 74.1782C29.3039 74.1067 29.1873 74.065 29.0662 74.0584C28.9451 74.0517 28.8247 74.0803 28.7196 74.1407C28.2398 74.4048 27.7318 74.6143 27.2052 74.7654C27.0917 74.7996 26.9902 74.8654 26.9127 74.9549C26.8351 75.0445 26.7847 75.1543 26.7672 75.2714L26.4168 77.5326H23.9137L23.5758 75.3338C23.5569 75.2144 23.5036 75.103 23.4225 75.0132C23.3415 74.9234 23.236 74.859 23.119 74.8279C22.5838 74.6786 22.0673 74.469 21.5796 74.2032C21.4755 74.1484 21.3581 74.1241 21.2407 74.1329C21.1234 74.1418 21.0109 74.1834 20.9163 74.2532L19.039 75.6087L17.2743 73.8471L18.5947 72.0544C18.6664 71.9567 18.7081 71.8404 18.7147 71.7195C18.7214 71.5986 18.6927 71.4784 18.6322 71.3735C18.3677 70.8946 18.1578 70.3875 18.0064 69.8619C17.9722 69.7485 17.9063 69.6472 17.8166 69.5698C17.7268 69.4924 17.6169 69.442 17.4996 69.4246L15.2593 69.0873V66.5887L17.462 66.2514C17.5817 66.2325 17.6932 66.1793 17.7832 66.0984C17.8732 66.0175 17.9377 65.9122 17.9689 65.7954C18.1184 65.2611 18.3284 64.7456 18.5947 64.2587C18.6495 64.1548 18.6739 64.0376 18.6651 63.9205C18.6562 63.8034 18.6145 63.6911 18.5446 63.5966L17.1867 61.7226L18.9514 59.9611L20.7473 61.2791C20.8451 61.3507 20.9617 61.3923 21.0828 61.399C21.2039 61.4056 21.3243 61.377 21.4294 61.3166C21.9091 61.0523 22.4171 60.8428 22.9438 60.692C23.0573 60.6577 23.1588 60.592 23.2363 60.5024C23.3139 60.4128 23.3643 60.3031 23.3818 60.186L23.7322 57.9247H26.2353L26.5232 60.136C26.5421 60.2554 26.5953 60.3668 26.6764 60.4566C26.7575 60.5464 26.8629 60.6108 26.98 60.642C27.5152 60.7911 28.0317 61.0007 28.5194 61.2666C28.6264 61.3266 28.7487 61.3538 28.8711 61.3449C28.9934 61.3361 29.1105 61.2914 29.2077 61.2167L31.085 59.8612L32.8497 61.6227L31.5293 63.4029C31.4576 63.5006 31.4159 63.6169 31.4093 63.7378C31.4026 63.8587 31.4313 63.9789 31.4918 64.0838C31.7563 64.5628 31.9662 65.0698 32.1175 65.5955C32.1518 65.7088 32.2177 65.8101 32.3074 65.8875C32.3972 65.9649 32.5071 66.0153 32.6244 66.0327L34.8897 66.3825V68.8687Z" fill="black"/>
<path d="M25.0774 62.7275C24.0873 62.7275 23.1194 63.0206 22.2962 63.5697C21.4729 64.1188 20.8313 64.8993 20.4524 65.8124C20.0735 66.7255 19.9743 67.7303 20.1675 68.6997C20.3606 69.669 20.8374 70.5595 21.5376 71.2583C22.2377 71.9572 23.1297 72.4332 24.1008 72.626C25.0719 72.8188 26.0785 72.7198 26.9932 72.3416C27.908 71.9634 28.6898 71.3229 29.2399 70.5011C29.79 69.6793 30.0836 68.7131 30.0836 67.7248C30.0836 66.3994 29.5562 65.1284 28.6173 64.1912C27.6785 63.254 26.4052 62.7275 25.0774 62.7275ZM25.0774 71.4727C24.3348 71.4727 23.6089 71.2529 22.9915 70.841C22.374 70.4292 21.8928 69.8439 21.6086 69.159C21.3245 68.4742 21.2501 67.7206 21.395 66.9936C21.5398 66.2666 21.8974 65.5987 22.4225 65.0746C22.9476 64.5504 23.6166 64.1935 24.345 64.0489C25.0733 63.9042 25.8282 63.9785 26.5143 64.2621C27.2003 64.5458 27.7867 65.0262 28.1993 65.6425C28.6118 66.2589 28.8321 66.9835 28.8321 67.7248C28.8345 68.2185 28.7392 68.7079 28.5517 69.1648C28.3641 69.6217 28.0879 70.0371 27.739 70.3871C27.3901 70.7371 26.9754 71.0148 26.5186 71.2043C26.0619 71.3939 25.5721 71.4914 25.0774 71.4914V71.4727Z" fill="black"/>
<path d="M43.4501 73.6218C43.277 73.2036 42.964 72.8582 42.5644 72.6446C42.1647 72.431 41.7033 72.3624 41.2586 72.4505C40.814 72.5385 40.4137 72.7778 40.126 73.1275C39.8384 73.4773 39.6812 73.9158 39.6812 74.3683C39.6812 74.8208 39.8384 75.2592 40.126 75.609C40.4137 75.9587 40.814 76.198 41.2586 76.286C41.7033 76.3741 42.1647 76.3055 42.5644 76.0919C42.964 75.8783 43.277 75.5329 43.4501 75.1147C43.6479 74.6367 43.6479 74.0998 43.4501 73.6218ZM41.9295 75.0398C41.801 75.0954 41.6589 75.1116 41.5211 75.0865C41.3834 75.0614 41.2562 74.996 41.1557 74.8986C41.0552 74.8012 40.986 74.6763 40.9567 74.5396C40.9275 74.4029 40.9395 74.2606 40.9914 74.1307C41.0432 74.0009 41.1325 73.8893 41.248 73.8102C41.3634 73.7311 41.4998 73.688 41.6398 73.6863C41.7799 73.6847 41.9172 73.7245 42.0345 73.8009C42.1518 73.8773 42.2438 73.9867 42.2987 74.1153C42.372 74.2868 42.3742 74.4803 42.3051 74.6535C42.2359 74.8267 42.1009 74.9656 41.9295 75.0398Z" fill="black"/>
<path d="M46.8982 73.8835L45.7405 73.2588L45.2962 72.2094L45.6341 70.9601C45.6643 70.8494 45.6633 70.7325 45.6313 70.6223C45.5993 70.5122 45.5375 70.4129 45.4527 70.3355C44.3652 69.334 42.9265 68.8 41.4478 68.8488C41.3306 68.8526 41.2169 68.8891 41.1195 68.9543C41.0221 69.0194 40.9451 69.1106 40.8971 69.2173L40.3777 70.3792L39.6017 70.7102L38.4128 70.2792C38.3052 70.2445 38.1902 70.2395 38.08 70.2648C37.9698 70.2901 37.8686 70.3448 37.787 70.4229C36.725 71.4517 36.1113 72.8564 36.0787 74.3332C36.0772 74.4467 36.1067 74.5583 36.1641 74.6563C36.2214 74.7542 36.3044 74.8347 36.4041 74.8892L37.5617 75.5138L38.0123 76.557L37.6744 77.8063C37.6442 77.917 37.6452 78.0339 37.6772 78.1441C37.7093 78.2543 37.771 78.3535 37.8558 78.431C38.8872 79.3981 40.2455 79.9422 41.6605 79.9551H41.8608C41.9779 79.9513 42.0917 79.9148 42.189 79.8496C42.2864 79.7845 42.3634 79.6933 42.4114 79.5866L42.9308 78.4247L43.7068 78.0936L44.9083 78.5184C45.0158 78.5531 45.1308 78.5581 45.241 78.5328C45.3512 78.5075 45.4525 78.4529 45.534 78.3747C46.589 77.3363 47.1916 75.9246 47.2111 74.4457C47.2149 74.3324 47.1878 74.2203 47.1327 74.1213C47.0776 74.0223 46.9965 73.9401 46.8982 73.8835ZM44.9333 77.1941L43.8883 76.8318C43.7414 76.7744 43.5783 76.7744 43.4314 76.8318L42.1799 77.3565C42.0352 77.4181 41.919 77.5319 41.8545 77.6751L41.429 78.7058C40.5395 78.6572 39.6859 78.3391 38.9822 77.7938L39.2763 76.6944C39.3216 76.5629 39.3216 76.42 39.2763 76.2884L38.6506 74.8454C38.5949 74.7176 38.498 74.6121 38.3752 74.5456L37.374 74.0022C37.4619 73.1177 37.8177 72.281 38.394 71.6035L39.439 71.972C39.5859 72.0295 39.749 72.0295 39.8959 71.972L41.1474 71.4473C41.2921 71.3858 41.4083 71.272 41.4728 71.1288L41.9233 70.1168C42.8129 70.1654 43.6664 70.4835 44.3701 71.0288L44.0447 72.097C43.9994 72.2285 43.9994 72.3714 44.0447 72.503L44.6705 73.9459C44.7262 74.0738 44.8231 74.1793 44.9458 74.2458L45.947 74.7892C45.864 75.6745 45.5125 76.5134 44.9395 77.1941H44.9333Z" fill="black"/>
<path d="M93.4801 41.1152C93.3142 41.1152 93.155 41.181 93.0376 41.2982C92.9203 41.4153 92.8544 41.5742 92.8544 41.7399C92.798 42.9455 92.6854 44.1635 92.5164 45.3629C91.8112 50.4006 90.1186 55.2504 87.5354 59.6351C84.9522 64.0198 81.529 67.8536 77.4613 70.9175C73.3936 73.9814 68.7611 76.2154 63.8283 77.4919C58.8956 78.7684 53.7592 79.0624 48.7126 78.3571C48.6305 78.3456 48.5468 78.3504 48.4665 78.3711C48.3862 78.3919 48.3107 78.4283 48.2445 78.4782C48.1107 78.5789 48.0225 78.7286 47.9993 78.8943C47.976 79.0599 48.0197 79.228 48.1206 79.3616C48.2215 79.4951 48.3715 79.5832 48.5374 79.6064C50.4033 79.8676 52.2852 79.9991 54.1693 79.9999C63.8171 79.9796 73.1332 76.4834 80.4049 70.1542C87.6766 63.8251 92.4151 55.0883 93.7492 45.5503C93.9244 44.301 94.0371 43.0517 94.0996 41.8024C94.1084 41.7158 94.0989 41.6283 94.0717 41.5456C94.0446 41.4629 94.0005 41.3867 93.9421 41.322C93.8838 41.2573 93.8126 41.2055 93.733 41.1699C93.6535 41.1343 93.5673 41.1157 93.4801 41.1152Z" fill="black"/>
<path d="M92.8546 32.9439C92.6912 32.9714 92.5455 33.0625 92.4493 33.1972C92.3531 33.3318 92.3143 33.4991 92.3415 33.6622C92.4979 34.6055 92.6168 35.5362 92.7044 36.5169C92.7185 36.6726 92.7906 36.8174 92.9065 36.9227C93.0223 37.0279 93.1735 37.086 93.3302 37.0853H93.3865C93.5516 37.071 93.7042 36.992 93.8109 36.8655C93.9177 36.7391 93.9698 36.5755 93.956 36.4107C93.8684 35.4238 93.7432 34.4368 93.5805 33.4624C93.5676 33.3804 93.5385 33.3019 93.4949 33.2313C93.4513 33.1607 93.394 33.0995 93.3264 33.0512C93.2589 33.003 93.1823 32.9686 93.1013 32.9502C93.0203 32.9318 92.9365 32.9296 92.8546 32.9439Z" fill="black"/>
<path d="M14.6334 41.4147C14.7994 41.4147 14.9585 41.3489 15.0759 41.2318C15.1932 41.1146 15.2592 40.9558 15.2592 40.7901C15.22 38.7326 15.3434 36.6753 15.6284 34.6373C16.47 28.5932 18.7304 22.8333 22.2254 17.8268C25.7204 12.8204 30.3511 8.70922 35.74 5.82838C41.1289 2.94753 47.1235 1.37857 53.2351 1.24937C59.3468 1.12017 65.4025 2.4344 70.9088 5.08492C70.983 5.12334 71.0643 5.1465 71.1476 5.15304C71.231 5.15958 71.3149 5.14936 71.3943 5.123C71.4736 5.09663 71.5469 5.05466 71.6097 4.99954C71.6725 4.94443 71.7237 4.87731 71.7601 4.80213C71.7965 4.72696 71.8174 4.64526 71.8216 4.56188C71.8259 4.47849 71.8133 4.3951 71.7847 4.31664C71.7561 4.23818 71.712 4.16625 71.6551 4.10508C71.5981 4.04392 71.5295 3.99477 71.4532 3.96055C65.2836 0.998403 58.4567 -0.336849 51.6234 0.0820942C44.7901 0.501037 38.1783 2.66021 32.4182 6.35376C26.6581 10.0473 21.9418 15.1521 18.7189 21.1814C15.4961 27.2108 13.8741 33.9637 14.0076 40.7963C14.0093 40.9609 14.0759 41.1182 14.1931 41.234C14.3103 41.3498 14.4685 41.4148 14.6334 41.4147Z" fill="black"/>
<path d="M15.0526 45.8005C14.8892 45.828 14.7435 45.9191 14.6473 46.0538C14.5511 46.1885 14.5123 46.3557 14.5395 46.5189C14.7147 47.5683 14.9337 48.6177 15.1652 49.6421C15.1995 49.7807 15.2803 49.9034 15.3941 49.9898C15.508 50.0762 15.6481 50.121 15.791 50.1169C15.8409 50.1229 15.8913 50.1229 15.9412 50.1169C16.0228 50.0979 16.0997 50.0628 16.1675 50.0136C16.2352 49.9644 16.2924 49.9021 16.3356 49.8305C16.3787 49.7588 16.4071 49.6793 16.4189 49.5965C16.4307 49.5137 16.4257 49.4294 16.4043 49.3485C16.154 48.3491 15.9412 47.3247 15.7785 46.3127C15.7649 46.2313 15.7352 46.1535 15.6913 46.0836C15.6474 46.0137 15.59 45.9532 15.5225 45.9056C15.455 45.858 15.3787 45.8242 15.2981 45.8061C15.2174 45.7881 15.134 45.7862 15.0526 45.8005Z" fill="black"/>
</svg>
