<svg width="100" height="100" viewBox="0 0 100 100" fill="none" xmlns="http://www.w3.org/2000/svg">
<path d="M59.3008 80.8134H45.5938C43.8165 80.8134 42.375 79.372 42.375 77.5946V74.1376L41.8008 71.6571C39.2227 72.4618 36.5664 72.9774 33.875 73.2001L31.0508 73.4306V73.4267C30.3946 73.4736 29.7461 73.247 29.2578 72.8017C28.7774 72.3564 28.5039 71.7314 28.5 71.0751V65.1063C28.5078 64.7001 28.6953 64.3211 29.0078 64.0633L29.8008 63.4071C29.8906 63.3328 29.9375 63.2196 29.9258 63.1063C29.9219 62.9852 29.8594 62.8758 29.7578 62.8133L28.7773 62.1766H28.7813C28.2383 61.825 28.0078 61.1532 28.2188 60.5438L28.7617 58.9618L28.7578 58.9579C28.8242 58.7587 28.7969 58.5438 28.6875 58.3641C28.582 58.1805 28.3945 58.0594 28.1875 58.0321L25.793 57.6884H25.7891C25.0782 57.6024 24.4688 57.1415 24.1953 56.4813C23.9141 55.8485 23.9726 55.118 24.3516 54.5438L28.8086 47.8251H28.8125C29.3359 47.0204 29.3359 45.9813 28.8125 45.1767L27.1367 42.54L27.1328 42.5439C26.5742 41.6806 26.4296 40.6142 26.7382 39.6377L27.1015 38.4932L18.3007 38.4893C18.0273 40.6729 16.1015 42.2665 13.9062 42.1298C11.7109 41.9892 10 40.169 10 37.9697C10 35.7704 11.7109 33.9501 13.9062 33.8094C16.1015 33.6727 18.0273 35.2665 18.3007 37.4501H27.4882L29.4062 31.5008C29.5156 31.1337 29.4921 30.7352 29.332 30.3875L28.6562 28.8875C28.1992 27.8719 28.4335 26.6844 29.2382 25.9187C30.3163 24.8679 31.4843 23.9187 32.7265 23.0749L26.9335 17.2937H26.9374C25.4022 18.4812 23.2538 18.4539 21.7499 17.2273C20.246 16.0007 19.789 13.8992 20.6444 12.1609C21.4999 10.4187 23.4452 9.50074 25.3358 9.94214C27.2225 10.3836 28.5546 12.071 28.5506 14.0124C28.5545 14.9343 28.2459 15.8288 27.6756 16.5515L33.5701 22.5007C37.8904 19.903 42.8162 18.489 47.8511 18.4069V8.55144C45.6714 8.278 44.0777 6.35224 44.2144 4.15694C44.3512 1.96164 46.1714 0.250741 48.3746 0.250741C50.5738 0.250741 52.3941 1.96164 52.5308 4.15694C52.6715 6.35224 51.0777 8.27804 48.8941 8.55144V18.3873C53.1441 18.3756 57.3629 19.0592 61.3941 20.4068C61.6598 20.5084 61.7965 20.8053 61.6949 21.0748C61.648 21.2037 61.5465 21.3092 61.4215 21.3678C61.2926 21.4225 61.148 21.4264 61.0191 21.3756C57.1168 20.0631 53.023 19.4029 48.9061 19.4186V22.7819H49.7811C50.785 22.7819 51.6014 23.5983 51.6014 24.6061V25.8249C51.6053 26.1374 51.7928 26.4226 52.0819 26.5436L53.8436 27.2741V27.2702C54.1366 27.3913 54.4686 27.3249 54.6952 27.1061L55.5506 26.2429V26.239C56.2733 25.5515 57.41 25.5515 58.1326 26.239L60.1014 28.2078C60.4491 28.5515 60.6483 29.0124 60.6561 29.5008C60.6522 29.9851 60.4569 30.45 60.1132 30.7938L59.2577 31.657C59.035 31.8758 58.9647 32.2078 59.0819 32.5008L59.8124 34.2625C59.9335 34.5555 60.2225 34.7508 60.5389 34.7508H61.6951C62.1756 34.7508 62.6365 34.9422 62.9763 35.282C63.3162 35.6219 63.5076 36.0828 63.5076 36.5632V39.364C63.5076 40.3679 62.699 41.1843 61.6951 41.1882H60.5193C60.2029 41.1843 59.9138 41.3757 59.7888 41.6687L59.0583 43.4304L59.0623 43.4265C58.9412 43.7195 59.0115 44.0515 59.238 44.2702L60.0935 45.1335V45.1374C60.4373 45.4773 60.6326 45.9421 60.6326 46.4265C60.6326 46.9148 60.4373 47.3796 60.0935 47.7195L59.0505 48.7625L65.3005 55.282C66.1872 54.4891 67.3317 54.0515 68.5193 54.0515C69.2849 54.0554 70.0349 54.239 70.7185 54.5828L71.6365 52.8133H71.6326C73.3474 49.5321 74.2459 45.8875 74.2498 42.1883C74.2498 41.8992 74.4802 41.6687 74.7693 41.6687C74.906 41.6687 75.0388 41.7234 75.1365 41.8211C75.2341 41.9187 75.2888 42.0516 75.2888 42.1883C75.2849 46.0594 74.3474 49.8719 72.5622 53.3013L71.5935 55.1568C72.5232 55.9302 73.1365 57.0201 73.3123 58.2193L81.3435 55.9185C81.2536 55.5786 81.2068 55.2271 81.2068 54.8755C81.2224 52.7857 82.7849 51.0278 84.8591 50.77C86.9333 50.5122 88.8786 51.8325 89.406 53.8559C89.9333 55.8793 88.8747 57.9809 86.9372 58.7661C84.9996 59.5513 82.781 58.7778 81.7497 56.9575L73.3435 59.3637C73.1364 61.8754 71.0388 63.809 68.5193 63.8129C67.9177 63.8129 67.3201 63.7035 66.7576 63.4887L64.8201 67.4886C63.3045 70.6605 62.5154 74.1292 62.5076 77.6446C62.4763 79.3985 61.0508 80.8016 59.3008 80.8134ZM42.8008 71.2822L43.3946 73.9697C43.3985 74.0088 43.3985 74.0479 43.3946 74.083V77.5947C43.3946 78.7978 44.3711 79.7705 45.5704 79.7705H59.3004C60.4996 79.7666 61.4723 78.794 61.4762 77.5947C61.4801 73.9228 62.3082 70.3017 63.8942 66.9897L65.863 62.8881C64.7732 62.1577 64.0232 61.0131 63.7888 59.724C63.5544 58.431 63.8552 57.099 64.6247 56.0326L58.3747 49.4584L58.1325 49.7006C57.4177 50.4076 56.2653 50.4076 55.5505 49.7006L54.6951 48.8373V48.8334C54.4685 48.6186 54.1365 48.5522 53.8435 48.6694L52.0818 49.3998V49.3959C51.7928 49.517 51.6052 49.8022 51.6013 50.1147V51.3335C51.6013 51.8179 51.4099 52.2827 51.0701 52.6226C50.7263 52.9663 50.2615 53.1577 49.781 53.1577H46.9763C45.9724 53.1577 45.156 52.3413 45.156 51.3335V50.1069C45.1482 49.7905 44.9568 49.5093 44.6638 49.3882L42.945 48.6577C42.6559 48.5405 42.3278 48.6069 42.1012 48.8257L41.238 49.689C40.5192 50.3765 39.3864 50.3765 38.6638 49.689L36.695 47.7007C35.9879 46.9858 35.9879 45.8296 36.695 45.1148L37.5582 44.2515H37.5622C37.7809 44.0288 37.8473 43.6968 37.7262 43.4077L36.9957 41.646H36.9997C36.8786 41.357 36.5934 41.1695 36.2809 41.1695H35.0075C34.0114 41.1695 33.1989 40.3648 33.1872 39.3648V38.4898H28.2575L27.8005 39.9468V39.9507C27.5817 40.6343 27.6833 41.3765 28.07 41.9819L29.7497 44.5757C30.4997 45.7241 30.4997 47.2085 29.7497 48.3569L25.238 55.1147C25.0818 55.3998 25.0818 55.7475 25.238 56.0327C25.3747 56.3373 25.656 56.5483 25.988 56.5952L28.3825 56.9389C28.902 57.0092 29.363 57.31 29.6325 57.7553C29.9059 58.2006 29.9645 58.7475 29.7888 59.2397L29.2575 60.8139C29.1989 60.9741 29.2614 61.1538 29.4059 61.2397L30.3864 61.8842L30.3825 61.8881C30.7653 62.1264 31.0036 62.5405 31.0192 62.9897C31.0466 63.4546 30.8278 63.8999 30.445 64.1694L29.6638 64.8257C29.5817 64.8921 29.5309 64.9976 29.5309 65.1069V71.0327C29.5309 71.3999 29.6872 71.7515 29.9567 72.0015C30.2263 72.2476 30.5895 72.3726 30.9567 72.3452L33.7809 72.1148C39.3161 71.6734 44.6679 69.9312 49.4059 67.0328L51.1754 65.9273C51.2926 65.8413 51.441 65.8101 51.5856 65.8374C51.7262 65.8648 51.8512 65.9507 51.9293 66.0757C52.0036 66.2007 52.0231 66.353 51.984 66.4898C51.945 66.6304 51.8473 66.7476 51.7184 66.814L49.9254 67.9195C47.6793 69.2984 45.293 70.4267 42.8008 71.2822ZM68.5508 55.0522C67.0156 55.0522 65.6289 55.978 65.0391 57.3999C64.4493 58.8179 64.7735 60.4507 65.8595 61.5405C66.9454 62.6303 68.5782 62.9546 70 62.3726C71.418 61.7866 72.3477 60.4038 72.3516 58.8648C72.3477 56.7671 70.6485 55.0639 68.5508 55.0522ZM85.3748 51.7084C84.1092 51.7084 82.9686 52.4702 82.4881 53.6381C82.0038 54.8061 82.2694 56.1498 83.1639 57.0443C84.0584 57.9388 85.4022 58.2045 86.5701 57.7201C87.7381 57.2397 88.4998 56.099 88.4998 54.8334C88.4998 53.1107 87.0975 51.7084 85.3748 51.7084ZM42.6048 47.5404L42.6009 47.5443C42.847 47.5443 43.0853 47.5951 43.3119 47.6889L45.0736 48.4193H45.0697C45.7533 48.6967 46.1947 49.3608 46.1947 50.0951V51.3139C46.1947 51.521 46.2728 51.7241 46.4212 51.8686C46.5697 52.0171 46.7689 52.0991 46.9759 52.0952H49.7689C50.1986 52.0952 50.5502 51.7436 50.5502 51.3139V50.107C50.5463 49.3687 50.9916 48.7046 51.6752 48.4272L53.4369 47.6968V47.7007C54.1126 47.4194 54.8978 47.5757 55.4135 48.0952L56.2767 48.9585H56.2807C56.5853 49.2632 57.0775 49.2632 57.3823 48.9585L59.3628 46.978V46.9819C59.6674 46.6772 59.6674 46.1811 59.3628 45.8764L58.4995 45.0131C57.976 44.4936 57.8198 43.7123 58.101 43.0326L58.8315 41.2709C59.1128 40.5873 59.7807 40.142 60.519 40.1459H61.6948C62.1245 40.142 62.4682 39.7944 62.4682 39.3647V36.5639C62.4682 36.3608 62.3862 36.1615 62.2417 36.017C62.0972 35.8725 61.9018 35.7943 61.6948 35.7943H60.519C59.7807 35.7904 59.1167 35.349 58.8315 34.6693L58.101 32.9076C57.8198 32.224 57.976 31.4388 58.4995 30.9193L59.3628 30.0561V30.0521C59.6674 29.7475 59.6674 29.2553 59.3628 28.9505L57.3823 26.9817C57.0776 26.6771 56.5854 26.6771 56.2807 26.9817L55.4174 27.8372L55.4135 27.8333C54.8978 28.3606 54.1127 28.5169 53.4369 28.2317L51.6752 27.5013C50.9916 27.2239 50.5463 26.5599 50.5502 25.8255V24.6067C50.5502 24.1731 50.1986 23.8254 49.7689 23.8254H46.9759C46.7689 23.8215 46.5697 23.9036 46.4212 24.0481C46.2728 24.1965 46.1947 24.3957 46.1947 24.6067V25.8255C46.1908 26.5716 45.7259 27.2357 45.0306 27.5013L43.2689 28.2317C42.5892 28.5247 41.7962 28.3646 41.2806 27.8333L40.4173 26.9778L40.4134 26.9817C40.1087 26.6771 39.6165 26.6771 39.3118 26.9817L37.3313 28.9622V28.9583C37.1828 29.1029 37.0969 29.3021 37.0969 29.513C37.0969 29.7201 37.1828 29.9193 37.3313 30.0638L38.1867 30.9271C38.7102 31.4505 38.8664 32.2357 38.5813 32.9193L37.8508 34.681V34.6771C37.5735 35.3607 36.9094 35.8021 36.175 35.8021H35.007C34.8039 35.8021 34.6047 35.8802 34.4562 36.0247C34.3078 36.1693 34.2258 36.3685 34.2258 36.5755V39.3646C34.2258 39.7982 34.5773 40.1459 35.007 40.1459H36.2258C36.9641 40.1459 37.6281 40.5912 37.9055 41.2709L38.636 43.0326H38.6321C38.925 43.7123 38.7649 44.4974 38.2375 45.0131L37.3821 45.8764C37.0774 46.181 37.0774 46.6771 37.3821 46.9819L39.3509 48.9624V48.9584C39.6634 49.2553 40.1478 49.2553 40.4564 48.9584L41.3196 48.0952C41.6595 47.7475 42.1204 47.5522 42.6008 47.5522L42.6048 47.5404ZM14.2068 34.8764C12.9412 34.8764 11.8045 35.6382 11.3201 36.8061C10.8358 37.9741 11.1053 39.3178 11.9959 40.2123C12.8904 41.103 14.2342 41.3725 15.4021 40.8881C16.5701 40.4037 17.3318 39.267 17.3318 38.0014C17.3318 36.2748 15.9334 34.8764 14.2068 34.8764ZM28.5818 37.4506H33.1873V36.5639C33.1873 36.0795 33.3787 35.6186 33.7225 35.2787C34.0623 34.9389 34.5272 34.7475 35.0077 34.7514H36.2265C36.5429 34.7475 36.8242 34.5522 36.9452 34.2631L37.6757 32.5014C37.7968 32.2123 37.7304 31.8803 37.5077 31.6577L36.6952 30.7944C35.9882 30.0795 35.9882 28.9233 36.6952 28.2085L37.2773 27.6343L33.4765 23.8335C32.2226 24.6694 31.0429 25.6187 29.957 26.6694C29.4726 27.1303 29.332 27.8491 29.6015 28.4585L30.2265 29.9897C30.4921 30.5756 30.5351 31.2358 30.3437 31.8452L28.5818 37.4506ZM39.9058 25.7086C40.3902 25.7086 40.8551 25.9001 41.1949 26.2399L42.0621 27.1071C42.2848 27.3219 42.6168 27.3883 42.9059 27.2711L44.6676 26.5407L44.6637 26.5446C44.9566 26.4235 45.1481 26.1422 45.1559 25.8258V24.607C45.1559 23.5992 45.9723 22.7828 46.9762 22.7828H47.8512V19.439C43.0856 19.525 38.4215 20.8413 34.3122 23.2632L37.9684 26.8648L38.6246 26.2086C38.9684 25.8805 39.4293 25.7008 39.9058 25.7086ZM24.3628 10.9196C23.0972 10.9196 21.9605 11.6814 21.4761 12.8493C20.9918 14.0134 21.2613 15.361 22.1519 16.2516C23.0464 17.1462 24.3902 17.4157 25.5581 16.9313C26.7261 16.447 27.4878 15.3063 27.4878 14.0446C27.4878 12.318 26.0894 10.9196 24.3628 10.9196ZM48.3748 1.35714C47.1092 1.35714 45.9686 2.11886 45.4881 3.28684C45.0038 4.45094 45.2694 5.79854 46.1639 6.68914C47.0584 7.58367 48.4022 7.85324 49.5701 7.36883C50.7381 6.88445 51.4998 5.74383 51.4998 4.48213C51.4998 3.6501 51.1678 2.85713 50.5818 2.27123C49.9959 1.68529 49.2029 1.35714 48.3748 1.35714ZM48.3748 45.5641C45.3006 45.5641 42.535 43.7125 41.3592 40.8766C40.1834 38.0407 40.8319 34.7711 43.0037 32.5993C45.1756 30.4275 48.4412 29.779 51.281 30.9548C54.1169 32.1306 55.9685 34.9001 55.9685 37.9704C55.9803 39.9938 55.1834 41.9352 53.7576 43.3688C52.3318 44.8063 50.3943 45.6149 48.3748 45.6149V45.5641ZM48.3748 31.4191C45.7225 31.4191 43.3357 33.0129 42.3201 35.4621C41.3045 37.9113 41.867 40.7277 43.742 42.6027C45.6131 44.4777 48.4334 45.0363 50.8826 44.0246C53.3279 43.009 54.9256 40.6184 54.9256 37.9699C54.9256 36.2316 54.2342 34.5676 53.0076 33.3371C51.7771 32.1066 50.1131 31.4191 48.3748 31.4191ZM78.9768 39.3644H74.3323C73.7386 39.3644 73.1721 39.1223 72.7542 38.7004C72.3402 38.2785 72.1097 37.7082 72.1136 37.1145V35.3957H71.9886C70.6527 35.3957 69.5706 34.3137 69.5706 32.9816V29.9191C69.5667 29.8722 69.5667 29.8292 69.5706 29.7824C69.5667 29.7433 69.5667 29.7042 69.5706 29.6691C69.5316 27.3761 68.6136 25.1886 67.0081 23.5519C64.3792 20.9777 62.9026 17.4425 62.9143 13.7628C62.9143 9.84478 64.5823 6.11438 67.5002 3.50078C70.4182 0.871882 74.3283 -0.366417 78.2272 0.094583C83.4264 0.688333 87.8405 4.18438 89.6062 9.11018C91.3757 14.036 90.1961 19.5362 86.5632 23.3012C84.821 25.0317 83.8249 27.3715 83.7898 29.8246V32.9496C83.7898 34.2816 82.7078 35.3637 81.3757 35.3637H81.2195V37.0825C81.2312 37.684 81.0007 38.2661 80.5788 38.6958C80.157 39.1255 79.5784 39.3684 78.9768 39.3644ZM73.1565 35.3956V37.1144C73.1487 37.4309 73.2698 37.7394 73.4925 37.966C73.7112 38.1926 74.0159 38.3215 74.3323 38.3254H78.9768C79.6331 38.3254 80.1643 37.7941 80.1643 37.1379V35.3957L73.1565 35.3956ZM80.6995 34.3526H81.3753V34.3566C81.7386 34.3566 82.0902 34.212 82.348 33.9542C82.6058 33.6964 82.7503 33.3448 82.7503 32.9816V30.3018H70.6023V32.9816C70.6101 33.7355 71.2234 34.3488 71.9773 34.3566L80.6995 34.3526ZM79.3128 29.2628H82.7503C82.9339 26.7433 84.0198 24.3722 85.8011 22.5831C89.1644 19.1065 90.2581 14.0206 88.6292 9.46614C86.9964 4.91144 82.9183 1.67704 78.1132 1.12634C72.7187 0.481812 67.5082 3.34514 65.1562 8.23964C62.8007 13.138 63.8242 18.9936 67.6953 22.8016C69.3984 24.5399 70.4141 26.8328 70.5508 29.2625H73.9688V20.3328L71.0704 18.1375C69.5352 16.9773 68.6329 15.1648 68.6329 13.2391C68.6251 12.3915 69.0079 11.5868 69.6759 11.0633C70.4064 10.4891 71.379 10.3212 72.2579 10.618C73.1407 10.9149 73.8126 11.6336 74.0509 12.5321C74.6759 14.829 75.0041 17.1962 75.0314 19.5751H78.2814C78.3009 17.204 78.6252 14.8446 79.2384 12.5517C79.4767 11.665 80.1408 10.954 81.0079 10.6533C81.879 10.3565 82.8399 10.5088 83.5704 11.0635C84.2384 11.5869 84.6251 12.3916 84.6134 13.2393C84.6134 15.1651 83.7111 16.9776 82.1759 18.1377L79.2501 20.3369L79.3128 29.2628ZM75.0433 29.2628H78.2738L78.2699 20.6144H75.0394L75.0433 29.2628ZM71.3988 11.5558L71.3949 11.5519C71.016 11.5637 70.6527 11.6926 70.3519 11.9269C69.9379 12.2551 69.6957 12.7551 69.6957 13.2824C69.7035 14.8762 70.4496 16.3801 71.7191 17.3449L74.0003 19.0637C73.9417 16.9504 73.637 14.8567 73.094 12.8137C72.93 12.2044 72.4534 11.7317 71.844 11.5754C71.6956 11.5364 71.5472 11.5168 71.3948 11.5129L71.3988 11.5558ZM81.9188 11.5558L81.9149 11.5519C81.7743 11.5363 81.6298 11.5363 81.4892 11.5519C80.8798 11.7121 80.4033 12.1847 80.2392 12.7941C79.6962 14.8332 79.3915 16.9308 79.3329 19.0441L81.6141 17.3253C82.8836 16.3566 83.6297 14.8565 83.6336 13.2628C83.6375 12.7316 83.3914 12.2276 82.9695 11.9073C82.6727 11.6612 82.3016 11.5206 81.9148 11.5128L81.9188 11.5558Z" fill="black"/>
</svg>
